  0
SECTION
  2
BLOCKS
  0
ENDSEC
  0
SECTION
  2
ENTITIES
  0
LINE
  8
0
 10
60
 20
20
 11
20
 21
60
  0
LINE
  8
0
 10
20
 20
60
 11
0
 21
60
  0
LINE
  8
0
 10
0
 20
60
 11
0
 21
0
  0
LINE
  8
0
 10
0
 20
0
 11
60
 21
0
  0
LINE
  8
0
 10
60
 20
0
 11
60
 21
20
  0
LINE
  8
0
 10
9.84302
 20
47.5049
 11
9.53154
 21
47.5443
  0
LINE
  8
0
 10
9.53154
 20
47.5443
 11
9.22745
 21
47.6223
  0
LINE
  8
0
 10
9.22745
 20
47.6223
 11
8.93555
 21
47.7379
  0
LINE
  8
0
 10
8.93555
 20
47.7379
 11
8.66043
 21
47.8892
  0
LINE
  8
0
 10
8.66043
 20
47.8892
 11
8.40643
 21
48.0737
  0
LINE
  8
0
 10
8.40643
 20
48.0737
 11
8.17757
 21
48.2886
  0
LINE
  8
0
 10
8.17757
 20
48.2886
 11
7.97745
 21
48.5305
  0
LINE
  8
0
 10
7.97745
 20
48.5305
 11
7.80922
 21
48.7956
  0
LINE
  8
0
 10
7.80922
 20
48.7956
 11
7.67555
 21
49.0797
  0
LINE
  8
0
 10
7.67555
 20
49.0797
 11
7.57854
 21
49.3783
  0
LINE
  8
0
 10
7.57854
 20
49.3783
 11
7.5197
 21
49.6867
  0
LINE
  8
0
 10
7.5197
 20
49.6867
 11
7.5
 21
50
  0
LINE
  8
0
 10
7.5
 20
50
 11
7.5197
 21
50.3133
  0
LINE
  8
0
 10
7.5197
 20
50.3133
 11
7.57854
 21
50.6217
  0
LINE
  8
0
 10
7.57854
 20
50.6217
 11
7.67555
 21
50.9203
  0
LINE
  8
0
 10
7.67555
 20
50.9203
 11
7.80922
 21
51.2044
  0
LINE
  8
0
 10
7.80922
 20
51.2044
 11
7.97745
 21
51.4695
  0
LINE
  8
0
 10
7.97745
 20
51.4695
 11
8.17757
 21
51.7114
  0
LINE
  8
0
 10
8.17757
 20
51.7114
 11
8.40643
 21
51.9263
  0
LINE
  8
0
 10
8.40643
 20
51.9263
 11
8.66043
 21
52.1108
  0
LINE
  8
0
 10
8.66043
 20
52.1108
 11
8.93555
 21
52.2621
  0
LINE
  8
0
 10
8.93555
 20
52.2621
 11
9.22745
 21
52.3776
  0
LINE
  8
0
 10
9.22745
 20
52.3776
 11
9.53154
 21
52.4557
  0
LINE
  8
0
 10
9.53154
 20
52.4557
 11
9.84302
 21
52.4951
  0
LINE
  8
0
 10
9.84302
 20
52.4951
 11
10.157
 21
52.4951
  0
LINE
  8
0
 10
10.157
 20
52.4951
 11
10.4684
 21
52.4557
  0
LINE
  8
0
 10
10.4684
 20
52.4557
 11
10.7725
 21
52.3776
  0
LINE
  8
0
 10
10.7725
 20
52.3776
 11
11.0644
 21
52.2621
  0
LINE
  8
0
 10
11.0644
 20
52.2621
 11
11.3396
 21
52.1108
  0
LINE
  8
0
 10
11.3396
 20
52.1108
 11
11.5936
 21
51.9263
  0
LINE
  8
0
 10
11.5936
 20
51.9263
 11
11.8224
 21
51.7114
  0
LINE
  8
0
 10
11.8224
 20
51.7114
 11
12.0225
 21
51.4695
  0
LINE
  8
0
 10
12.0225
 20
51.4695
 11
12.1908
 21
51.2044
  0
LINE
  8
0
 10
12.1908
 20
51.2044
 11
12.3244
 21
50.9203
  0
LINE
  8
0
 10
12.3244
 20
50.9203
 11
12.4214
 21
50.6217
  0
LINE
  8
0
 10
12.4214
 20
50.6217
 11
12.4803
 21
50.3133
  0
LINE
  8
0
 10
12.4803
 20
50.3133
 11
12.5
 21
50
  0
LINE
  8
0
 10
12.5
 20
50
 11
12.4803
 21
49.6867
  0
LINE
  8
0
 10
12.4803
 20
49.6867
 11
12.4214
 21
49.3783
  0
LINE
  8
0
 10
12.4214
 20
49.3783
 11
12.3244
 21
49.0797
  0
LINE
  8
0
 10
12.3244
 20
49.0797
 11
12.1908
 21
48.7956
  0
LINE
  8
0
 10
12.1908
 20
48.7956
 11
12.0225
 21
48.5305
  0
LINE
  8
0
 10
12.0225
 20
48.5305
 11
11.8224
 21
48.2886
  0
LINE
  8
0
 10
11.8224
 20
48.2886
 11
11.5936
 21
48.0737
  0
LINE
  8
0
 10
11.5936
 20
48.0737
 11
11.3396
 21
47.8892
  0
LINE
  8
0
 10
11.3396
 20
47.8892
 11
11.0644
 21
47.7379
  0
LINE
  8
0
 10
11.0644
 20
47.7379
 11
10.7725
 21
47.6223
  0
LINE
  8
0
 10
10.7725
 20
47.6223
 11
10.4684
 21
47.5443
  0
LINE
  8
0
 10
10.4684
 20
47.5443
 11
10.157
 21
47.5049
  0
LINE
  8
0
 10
10.157
 20
47.5049
 11
9.84302
 21
47.5049
  0
LINE
  8
0
 10
9.84302
 20
27.5049
 11
9.53154
 21
27.5443
  0
LINE
  8
0
 10
9.53154
 20
27.5443
 11
9.22745
 21
27.6223
  0
LINE
  8
0
 10
9.22745
 20
27.6223
 11
8.93555
 21
27.7379
  0
LINE
  8
0
 10
8.93555
 20
27.7379
 11
8.66043
 21
27.8892
  0
LINE
  8
0
 10
8.66043
 20
27.8892
 11
8.40643
 21
28.0737
  0
LINE
  8
0
 10
8.40643
 20
28.0737
 11
8.17757
 21
28.2886
  0
LINE
  8
0
 10
8.17757
 20
28.2886
 11
7.97745
 21
28.5305
  0
LINE
  8
0
 10
7.97745
 20
28.5305
 11
7.80922
 21
28.7956
  0
LINE
  8
0
 10
7.80922
 20
28.7956
 11
7.67555
 21
29.0797
  0
LINE
  8
0
 10
7.67555
 20
29.0797
 11
7.57854
 21
29.3783
  0
LINE
  8
0
 10
7.57854
 20
29.3783
 11
7.5197
 21
29.6867
  0
LINE
  8
0
 10
7.5197
 20
29.6867
 11
7.5
 21
30
  0
LINE
  8
0
 10
7.5
 20
30
 11
7.5197
 21
30.3133
  0
LINE
  8
0
 10
7.5197
 20
30.3133
 11
7.57854
 21
30.6217
  0
LINE
  8
0
 10
7.57854
 20
30.6217
 11
7.67555
 21
30.9203
  0
LINE
  8
0
 10
7.67555
 20
30.9203
 11
7.80922
 21
31.2044
  0
LINE
  8
0
 10
7.80922
 20
31.2044
 11
7.97745
 21
31.4695
  0
LINE
  8
0
 10
7.97745
 20
31.4695
 11
8.17757
 21
31.7114
  0
LINE
  8
0
 10
8.17757
 20
31.7114
 11
8.40643
 21
31.9263
  0
LINE
  8
0
 10
8.40643
 20
31.9263
 11
8.66043
 21
32.1108
  0
LINE
  8
0
 10
8.66043
 20
32.1108
 11
8.93555
 21
32.2621
  0
LINE
  8
0
 10
8.93555
 20
32.2621
 11
9.22745
 21
32.3776
  0
LINE
  8
0
 10
9.22745
 20
32.3776
 11
9.53154
 21
32.4557
  0
LINE
  8
0
 10
9.53154
 20
32.4557
 11
9.84302
 21
32.4951
  0
LINE
  8
0
 10
9.84302
 20
32.4951
 11
10.157
 21
32.4951
  0
LINE
  8
0
 10
10.157
 20
32.4951
 11
10.4684
 21
32.4557
  0
LINE
  8
0
 10
10.4684
 20
32.4557
 11
10.7725
 21
32.3776
  0
LINE
  8
0
 10
10.7725
 20
32.3776
 11
11.0644
 21
32.2621
  0
LINE
  8
0
 10
11.0644
 20
32.2621
 11
11.3396
 21
32.1108
  0
LINE
  8
0
 10
11.3396
 20
32.1108
 11
11.5936
 21
31.9263
  0
LINE
  8
0
 10
11.5936
 20
31.9263
 11
11.8224
 21
31.7114
  0
LINE
  8
0
 10
11.8224
 20
31.7114
 11
12.0225
 21
31.4695
  0
LINE
  8
0
 10
12.0225
 20
31.4695
 11
12.1908
 21
31.2044
  0
LINE
  8
0
 10
12.1908
 20
31.2044
 11
12.3244
 21
30.9203
  0
LINE
  8
0
 10
12.3244
 20
30.9203
 11
12.4214
 21
30.6217
  0
LINE
  8
0
 10
12.4214
 20
30.6217
 11
12.4803
 21
30.3133
  0
LINE
  8
0
 10
12.4803
 20
30.3133
 11
12.5
 21
30
  0
LINE
  8
0
 10
12.5
 20
30
 11
12.4803
 21
29.6867
  0
LINE
  8
0
 10
12.4803
 20
29.6867
 11
12.4214
 21
29.3783
  0
LINE
  8
0
 10
12.4214
 20
29.3783
 11
12.3244
 21
29.0797
  0
LINE
  8
0
 10
12.3244
 20
29.0797
 11
12.1908
 21
28.7956
  0
LINE
  8
0
 10
12.1908
 20
28.7956
 11
12.0225
 21
28.5305
  0
LINE
  8
0
 10
12.0225
 20
28.5305
 11
11.8224
 21
28.2886
  0
LINE
  8
0
 10
11.8224
 20
28.2886
 11
11.5936
 21
28.0737
  0
LINE
  8
0
 10
11.5936
 20
28.0737
 11
11.3396
 21
27.8892
  0
LINE
  8
0
 10
11.3396
 20
27.8892
 11
11.0644
 21
27.7379
  0
LINE
  8
0
 10
11.0644
 20
27.7379
 11
10.7725
 21
27.6223
  0
LINE
  8
0
 10
10.7725
 20
27.6223
 11
10.4684
 21
27.5443
  0
LINE
  8
0
 10
10.4684
 20
27.5443
 11
10.157
 21
27.5049
  0
LINE
  8
0
 10
10.157
 20
27.5049
 11
9.84302
 21
27.5049
  0
LINE
  8
0
 10
9.84302
 20
7.50493
 11
9.53154
 21
7.54428
  0
LINE
  8
0
 10
9.53154
 20
7.54428
 11
9.22745
 21
7.62234
  0
LINE
  8
0
 10
9.22745
 20
7.62234
 11
8.93555
 21
7.73793
  0
LINE
  8
0
 10
8.93555
 20
7.73793
 11
8.66043
 21
7.88918
  0
LINE
  8
0
 10
8.66043
 20
7.88918
 11
8.40643
 21
8.07372
  0
LINE
  8
0
 10
8.40643
 20
8.07372
 11
8.17757
 21
8.28862
  0
LINE
  8
0
 10
8.17757
 20
8.28862
 11
7.97745
 21
8.53053
  0
LINE
  8
0
 10
7.97745
 20
8.53053
 11
7.80922
 21
8.79561
  0
LINE
  8
0
 10
7.80922
 20
8.79561
 11
7.67555
 21
9.07968
  0
LINE
  8
0
 10
7.67555
 20
9.07968
 11
7.57854
 21
9.37827
  0
LINE
  8
0
 10
7.57854
 20
9.37827
 11
7.5197
 21
9.68666
  0
LINE
  8
0
 10
7.5197
 20
9.68666
 11
7.5
 21
10
  0
LINE
  8
0
 10
7.5
 20
10
 11
7.5197
 21
10.3133
  0
LINE
  8
0
 10
7.5197
 20
10.3133
 11
7.57854
 21
10.6217
  0
LINE
  8
0
 10
7.57854
 20
10.6217
 11
7.67555
 21
10.9203
  0
LINE
  8
0
 10
7.67555
 20
10.9203
 11
7.80922
 21
11.2044
  0
LINE
  8
0
 10
7.80922
 20
11.2044
 11
7.97745
 21
11.4695
  0
LINE
  8
0
 10
7.97745
 20
11.4695
 11
8.17757
 21
11.7114
  0
LINE
  8
0
 10
8.17757
 20
11.7114
 11
8.40643
 21
11.9263
  0
LINE
  8
0
 10
8.40643
 20
11.9263
 11
8.66043
 21
12.1108
  0
LINE
  8
0
 10
8.66043
 20
12.1108
 11
8.93555
 21
12.2621
  0
LINE
  8
0
 10
8.93555
 20
12.2621
 11
9.22745
 21
12.3776
  0
LINE
  8
0
 10
9.22745
 20
12.3776
 11
9.53154
 21
12.4557
  0
LINE
  8
0
 10
9.53154
 20
12.4557
 11
9.84302
 21
12.4951
  0
LINE
  8
0
 10
9.84302
 20
12.4951
 11
10.157
 21
12.4951
  0
LINE
  8
0
 10
10.157
 20
12.4951
 11
10.4684
 21
12.4557
  0
LINE
  8
0
 10
10.4684
 20
12.4557
 11
10.7725
 21
12.3776
  0
LINE
  8
0
 10
10.7725
 20
12.3776
 11
11.0644
 21
12.2621
  0
LINE
  8
0
 10
11.0644
 20
12.2621
 11
11.3396
 21
12.1108
  0
LINE
  8
0
 10
11.3396
 20
12.1108
 11
11.5936
 21
11.9263
  0
LINE
  8
0
 10
11.5936
 20
11.9263
 11
11.8224
 21
11.7114
  0
LINE
  8
0
 10
11.8224
 20
11.7114
 11
12.0225
 21
11.4695
  0
LINE
  8
0
 10
12.0225
 20
11.4695
 11
12.1908
 21
11.2044
  0
LINE
  8
0
 10
12.1908
 20
11.2044
 11
12.3244
 21
10.9203
  0
LINE
  8
0
 10
12.3244
 20
10.9203
 11
12.4214
 21
10.6217
  0
LINE
  8
0
 10
12.4214
 20
10.6217
 11
12.4803
 21
10.3133
  0
LINE
  8
0
 10
12.4803
 20
10.3133
 11
12.5
 21
10
  0
LINE
  8
0
 10
12.5
 20
10
 11
12.4803
 21
9.68666
  0
LINE
  8
0
 10
12.4803
 20
9.68666
 11
12.4214
 21
9.37827
  0
LINE
  8
0
 10
12.4214
 20
9.37827
 11
12.3244
 21
9.07968
  0
LINE
  8
0
 10
12.3244
 20
9.07968
 11
12.1908
 21
8.79561
  0
LINE
  8
0
 10
12.1908
 20
8.79561
 11
12.0225
 21
8.53053
  0
LINE
  8
0
 10
12.0225
 20
8.53053
 11
11.8224
 21
8.28862
  0
LINE
  8
0
 10
11.8224
 20
8.28862
 11
11.5936
 21
8.07372
  0
LINE
  8
0
 10
11.5936
 20
8.07372
 11
11.3396
 21
7.88918
  0
LINE
  8
0
 10
11.3396
 20
7.88918
 11
11.0644
 21
7.73793
  0
LINE
  8
0
 10
11.0644
 20
7.73793
 11
10.7725
 21
7.62234
  0
LINE
  8
0
 10
10.7725
 20
7.62234
 11
10.4684
 21
7.54428
  0
LINE
  8
0
 10
10.4684
 20
7.54428
 11
10.157
 21
7.50493
  0
LINE
  8
0
 10
10.157
 20
7.50493
 11
9.84302
 21
7.50493
  0
LINE
  8
0
 10
49.843
 20
7.50493
 11
49.5315
 21
7.54428
  0
LINE
  8
0
 10
49.5315
 20
7.54428
 11
49.2274
 21
7.62234
  0
LINE
  8
0
 10
49.2274
 20
7.62234
 11
48.9355
 21
7.73793
  0
LINE
  8
0
 10
48.9355
 20
7.73793
 11
48.6604
 21
7.88918
  0
LINE
  8
0
 10
48.6604
 20
7.88918
 11
48.4064
 21
8.07372
  0
LINE
  8
0
 10
48.4064
 20
8.07372
 11
48.1776
 21
8.28862
  0
LINE
  8
0
 10
48.1776
 20
8.28862
 11
47.9774
 21
8.53053
  0
LINE
  8
0
 10
47.9774
 20
8.53053
 11
47.8092
 21
8.79561
  0
LINE
  8
0
 10
47.8092
 20
8.79561
 11
47.6756
 21
9.07968
  0
LINE
  8
0
 10
47.6756
 20
9.07968
 11
47.5785
 21
9.37827
  0
LINE
  8
0
 10
47.5785
 20
9.37827
 11
47.5197
 21
9.68666
  0
LINE
  8
0
 10
47.5197
 20
9.68666
 11
47.5
 21
10
  0
LINE
  8
0
 10
47.5
 20
10
 11
47.5197
 21
10.3133
  0
LINE
  8
0
 10
47.5197
 20
10.3133
 11
47.5785
 21
10.6217
  0
LINE
  8
0
 10
47.5785
 20
10.6217
 11
47.6756
 21
10.9203
  0
LINE
  8
0
 10
47.6756
 20
10.9203
 11
47.8092
 21
11.2044
  0
LINE
  8
0
 10
47.8092
 20
11.2044
 11
47.9774
 21
11.4695
  0
LINE
  8
0
 10
47.9774
 20
11.4695
 11
48.1776
 21
11.7114
  0
LINE
  8
0
 10
48.1776
 20
11.7114
 11
48.4064
 21
11.9263
  0
LINE
  8
0
 10
48.4064
 20
11.9263
 11
48.6604
 21
12.1108
  0
LINE
  8
0
 10
48.6604
 20
12.1108
 11
48.9355
 21
12.2621
  0
LINE
  8
0
 10
48.9355
 20
12.2621
 11
49.2274
 21
12.3776
  0
LINE
  8
0
 10
49.2274
 20
12.3776
 11
49.5315
 21
12.4557
  0
LINE
  8
0
 10
49.5315
 20
12.4557
 11
49.843
 21
12.4951
  0
LINE
  8
0
 10
49.843
 20
12.4951
 11
50.157
 21
12.4951
  0
LINE
  8
0
 10
50.157
 20
12.4951
 11
50.4684
 21
12.4557
  0
LINE
  8
0
 10
50.4684
 20
12.4557
 11
50.7725
 21
12.3776
  0
LINE
  8
0
 10
50.7725
 20
12.3776
 11
51.0644
 21
12.2621
  0
LINE
  8
0
 10
51.0644
 20
12.2621
 11
51.3396
 21
12.1108
  0
LINE
  8
0
 10
51.3396
 20
12.1108
 11
51.5936
 21
11.9263
  0
LINE
  8
0
 10
51.5936
 20
11.9263
 11
51.8224
 21
11.7114
  0
LINE
  8
0
 10
51.8224
 20
11.7114
 11
52.0225
 21
11.4695
  0
LINE
  8
0
 10
52.0225
 20
11.4695
 11
52.1908
 21
11.2044
  0
LINE
  8
0
 10
52.1908
 20
11.2044
 11
52.3244
 21
10.9203
  0
LINE
  8
0
 10
52.3244
 20
10.9203
 11
52.4214
 21
10.6217
  0
LINE
  8
0
 10
52.4214
 20
10.6217
 11
52.4803
 21
10.3133
  0
LINE
  8
0
 10
52.4803
 20
10.3133
 11
52.5
 21
10
  0
LINE
  8
0
 10
52.5
 20
10
 11
52.4803
 21
9.68666
  0
LINE
  8
0
 10
52.4803
 20
9.68666
 11
52.4214
 21
9.37827
  0
LINE
  8
0
 10
52.4214
 20
9.37827
 11
52.3244
 21
9.07968
  0
LINE
  8
0
 10
52.3244
 20
9.07968
 11
52.1908
 21
8.79561
  0
LINE
  8
0
 10
52.1908
 20
8.79561
 11
52.0225
 21
8.53053
  0
LINE
  8
0
 10
52.0225
 20
8.53053
 11
51.8224
 21
8.28862
  0
LINE
  8
0
 10
51.8224
 20
8.28862
 11
51.5936
 21
8.07372
  0
LINE
  8
0
 10
51.5936
 20
8.07372
 11
51.3396
 21
7.88918
  0
LINE
  8
0
 10
51.3396
 20
7.88918
 11
51.0644
 21
7.73793
  0
LINE
  8
0
 10
51.0644
 20
7.73793
 11
50.7725
 21
7.62234
  0
LINE
  8
0
 10
50.7725
 20
7.62234
 11
50.4684
 21
7.54428
  0
LINE
  8
0
 10
50.4684
 20
7.54428
 11
50.157
 21
7.50493
  0
LINE
  8
0
 10
50.157
 20
7.50493
 11
49.843
 21
7.50493
  0
ENDSEC
  0
SECTION
  2
OBJECTS
  0
DICTIONARY
  0
ENDSEC
  0
EOF
