  0
SECTION
  2
BLOCKS
  0
ENDSEC
  0
SECTION
  2
ENTITIES
  0
LINE
  8
0
 10
14
 20
14
 11
-14
 21
14
  0
LINE
  8
0
 10
-14
 20
14
 11
-14
 21
-14
  0
LINE
  8
0
 10
-14
 20
-14
 11
14
 21
-14
  0
LINE
  8
0
 10
14
 20
-14
 11
14
 21
14
  0
LINE
  8
0
 10
-10.0942
 20
8.50294
 11
-10.2811
 21
8.52657
  0
LINE
  8
0
 10
-10.2811
 20
8.52657
 11
-10.4635
 21
8.57341
  0
LINE
  8
0
 10
-10.4635
 20
8.57341
 11
-10.6387
 21
8.64275
  0
LINE
  8
0
 10
-10.6387
 20
8.64275
 11
-10.8037
 21
8.73351
  0
LINE
  8
0
 10
-10.8037
 20
8.73351
 11
-10.9561
 21
8.84422
  0
LINE
  8
0
 10
-10.9561
 20
8.84422
 11
-11.0934
 21
8.97318
  0
LINE
  8
0
 10
-11.0934
 20
8.97318
 11
-11.2135
 21
9.11832
  0
LINE
  8
0
 10
-11.2135
 20
9.11832
 11
-11.3145
 21
9.27736
  0
LINE
  8
0
 10
-11.3145
 20
9.27736
 11
-11.3947
 21
9.4478
  0
LINE
  8
0
 10
-11.3947
 20
9.4478
 11
-11.4529
 21
9.62695
  0
LINE
  8
0
 10
-11.4529
 20
9.62695
 11
-11.4882
 21
9.812
  0
LINE
  8
0
 10
-11.4882
 20
9.812
 11
-11.5
 21
10
  0
LINE
  8
0
 10
-11.5
 20
10
 11
-11.4882
 21
10.188
  0
LINE
  8
0
 10
-11.4882
 20
10.188
 11
-11.4529
 21
10.373
  0
LINE
  8
0
 10
-11.4529
 20
10.373
 11
-11.3947
 21
10.5522
  0
LINE
  8
0
 10
-11.3947
 20
10.5522
 11
-11.3145
 21
10.7226
  0
LINE
  8
0
 10
-11.3145
 20
10.7226
 11
-11.2135
 21
10.8817
  0
LINE
  8
0
 10
-11.2135
 20
10.8817
 11
-11.0934
 21
11.0268
  0
LINE
  8
0
 10
-11.0934
 20
11.0268
 11
-10.9561
 21
11.1558
  0
LINE
  8
0
 10
-10.9561
 20
11.1558
 11
-10.8037
 21
11.2665
  0
LINE
  8
0
 10
-10.8037
 20
11.2665
 11
-10.6387
 21
11.3572
  0
LINE
  8
0
 10
-10.6387
 20
11.3572
 11
-10.4635
 21
11.4266
  0
LINE
  8
0
 10
-10.4635
 20
11.4266
 11
-10.2811
 21
11.4734
  0
LINE
  8
0
 10
-10.2811
 20
11.4734
 11
-10.0942
 21
11.497
  0
LINE
  8
0
 10
-10.0942
 20
11.497
 11
-9.90581
 21
11.497
  0
LINE
  8
0
 10
-9.90581
 20
11.497
 11
-9.71892
 21
11.4734
  0
LINE
  8
0
 10
-9.71892
 20
11.4734
 11
-9.53647
 21
11.4266
  0
LINE
  8
0
 10
-9.53647
 20
11.4266
 11
-9.36133
 21
11.3572
  0
LINE
  8
0
 10
-9.36133
 20
11.3572
 11
-9.19626
 21
11.2665
  0
LINE
  8
0
 10
-9.19626
 20
11.2665
 11
-9.04385
 21
11.1558
  0
LINE
  8
0
 10
-9.04385
 20
11.1558
 11
-8.90654
 21
11.0268
  0
LINE
  8
0
 10
-8.90654
 20
11.0268
 11
-8.78647
 21
10.8817
  0
LINE
  8
0
 10
-8.78647
 20
10.8817
 11
-8.68553
 21
10.7226
  0
LINE
  8
0
 10
-8.68553
 20
10.7226
 11
-8.60533
 21
10.5522
  0
LINE
  8
0
 10
-8.60533
 20
10.5522
 11
-8.54712
 21
10.373
  0
LINE
  8
0
 10
-8.54712
 20
10.373
 11
-8.51183
 21
10.188
  0
LINE
  8
0
 10
-8.51183
 20
10.188
 11
-8.5
 21
10
  0
LINE
  8
0
 10
-8.5
 20
10
 11
-8.51183
 21
9.812
  0
LINE
  8
0
 10
-8.51183
 20
9.812
 11
-8.54712
 21
9.62695
  0
LINE
  8
0
 10
-8.54712
 20
9.62695
 11
-8.60533
 21
9.4478
  0
LINE
  8
0
 10
-8.60533
 20
9.4478
 11
-8.68553
 21
9.27736
  0
LINE
  8
0
 10
-8.68553
 20
9.27736
 11
-8.78647
 21
9.11832
  0
LINE
  8
0
 10
-8.78647
 20
9.11832
 11
-8.90654
 21
8.97318
  0
LINE
  8
0
 10
-8.90654
 20
8.97318
 11
-9.04385
 21
8.84422
  0
LINE
  8
0
 10
-9.04385
 20
8.84422
 11
-9.19626
 21
8.73351
  0
LINE
  8
0
 10
-9.19626
 20
8.73351
 11
-9.36133
 21
8.64275
  0
LINE
  8
0
 10
-9.36133
 20
8.64275
 11
-9.53647
 21
8.57341
  0
LINE
  8
0
 10
-9.53647
 20
8.57341
 11
-9.71892
 21
8.52657
  0
LINE
  8
0
 10
-9.71892
 20
8.52657
 11
-9.90581
 21
8.50294
  0
LINE
  8
0
 10
-9.90581
 20
8.50294
 11
-10.0942
 21
8.50294
  0
LINE
  8
0
 10
9.90581
 20
8.50294
 11
9.71892
 21
8.52657
  0
LINE
  8
0
 10
9.71892
 20
8.52657
 11
9.53647
 21
8.57341
  0
LINE
  8
0
 10
9.53647
 20
8.57341
 11
9.36133
 21
8.64275
  0
LINE
  8
0
 10
9.36133
 20
8.64275
 11
9.19626
 21
8.73351
  0
LINE
  8
0
 10
9.19626
 20
8.73351
 11
9.04385
 21
8.84422
  0
LINE
  8
0
 10
9.04385
 20
8.84422
 11
8.90654
 21
8.97318
  0
LINE
  8
0
 10
8.90654
 20
8.97318
 11
8.78647
 21
9.11832
  0
LINE
  8
0
 10
8.78647
 20
9.11832
 11
8.68553
 21
9.27736
  0
LINE
  8
0
 10
8.68553
 20
9.27736
 11
8.60533
 21
9.4478
  0
LINE
  8
0
 10
8.60533
 20
9.4478
 11
8.54712
 21
9.62695
  0
LINE
  8
0
 10
8.54712
 20
9.62695
 11
8.51183
 21
9.812
  0
LINE
  8
0
 10
8.51183
 20
9.812
 11
8.5
 21
10
  0
LINE
  8
0
 10
8.5
 20
10
 11
8.51183
 21
10.188
  0
LINE
  8
0
 10
8.51183
 20
10.188
 11
8.54712
 21
10.373
  0
LINE
  8
0
 10
8.54712
 20
10.373
 11
8.60533
 21
10.5522
  0
LINE
  8
0
 10
8.60533
 20
10.5522
 11
8.68553
 21
10.7226
  0
LINE
  8
0
 10
8.68553
 20
10.7226
 11
8.78647
 21
10.8817
  0
LINE
  8
0
 10
8.78647
 20
10.8817
 11
8.90654
 21
11.0268
  0
LINE
  8
0
 10
8.90654
 20
11.0268
 11
9.04385
 21
11.1558
  0
LINE
  8
0
 10
9.04385
 20
11.1558
 11
9.19626
 21
11.2665
  0
LINE
  8
0
 10
9.19626
 20
11.2665
 11
9.36133
 21
11.3572
  0
LINE
  8
0
 10
9.36133
 20
11.3572
 11
9.53647
 21
11.4266
  0
LINE
  8
0
 10
9.53647
 20
11.4266
 11
9.71892
 21
11.4734
  0
LINE
  8
0
 10
9.71892
 20
11.4734
 11
9.90581
 21
11.497
  0
LINE
  8
0
 10
9.90581
 20
11.497
 11
10.0942
 21
11.497
  0
LINE
  8
0
 10
10.0942
 20
11.497
 11
10.2811
 21
11.4734
  0
LINE
  8
0
 10
10.2811
 20
11.4734
 11
10.4635
 21
11.4266
  0
LINE
  8
0
 10
10.4635
 20
11.4266
 11
10.6387
 21
11.3572
  0
LINE
  8
0
 10
10.6387
 20
11.3572
 11
10.8037
 21
11.2665
  0
LINE
  8
0
 10
10.8037
 20
11.2665
 11
10.9561
 21
11.1558
  0
LINE
  8
0
 10
10.9561
 20
11.1558
 11
11.0934
 21
11.0268
  0
LINE
  8
0
 10
11.0934
 20
11.0268
 11
11.2135
 21
10.8817
  0
LINE
  8
0
 10
11.2135
 20
10.8817
 11
11.3145
 21
10.7226
  0
LINE
  8
0
 10
11.3145
 20
10.7226
 11
11.3947
 21
10.5522
  0
LINE
  8
0
 10
11.3947
 20
10.5522
 11
11.4529
 21
10.373
  0
LINE
  8
0
 10
11.4529
 20
10.373
 11
11.4882
 21
10.188
  0
LINE
  8
0
 10
11.4882
 20
10.188
 11
11.5
 21
10
  0
LINE
  8
0
 10
11.5
 20
10
 11
11.4882
 21
9.812
  0
LINE
  8
0
 10
11.4882
 20
9.812
 11
11.4529
 21
9.62695
  0
LINE
  8
0
 10
11.4529
 20
9.62695
 11
11.3947
 21
9.4478
  0
LINE
  8
0
 10
11.3947
 20
9.4478
 11
11.3145
 21
9.27736
  0
LINE
  8
0
 10
11.3145
 20
9.27736
 11
11.2135
 21
9.11832
  0
LINE
  8
0
 10
11.2135
 20
9.11832
 11
11.0934
 21
8.97318
  0
LINE
  8
0
 10
11.0934
 20
8.97318
 11
10.9561
 21
8.84422
  0
LINE
  8
0
 10
10.9561
 20
8.84422
 11
10.8037
 21
8.73351
  0
LINE
  8
0
 10
10.8037
 20
8.73351
 11
10.6387
 21
8.64275
  0
LINE
  8
0
 10
10.6387
 20
8.64275
 11
10.4635
 21
8.57341
  0
LINE
  8
0
 10
10.4635
 20
8.57341
 11
10.2811
 21
8.52657
  0
LINE
  8
0
 10
10.2811
 20
8.52657
 11
10.0942
 21
8.50294
  0
LINE
  8
0
 10
10.0942
 20
8.50294
 11
9.90581
 21
8.50294
  0
LINE
  8
0
 10
-0.156967
 20
-2.49506
 11
-0.468445
 21
-2.4557
  0
LINE
  8
0
 10
-0.468445
 20
-2.4557
 11
-0.772537
 21
-2.37764
  0
LINE
  8
0
 10
-0.772537
 20
-2.37764
 11
-1.06444
 21
-2.26205
  0
LINE
  8
0
 10
-1.06444
 20
-2.26205
 11
-1.33955
 21
-2.11081
  0
LINE
  8
0
 10
-1.33955
 20
-2.11081
 11
-1.59355
 21
-1.92627
  0
LINE
  8
0
 10
-1.59355
 20
-1.92627
 11
-1.82242
 21
-1.71136
  0
LINE
  8
0
 10
-1.82242
 20
-1.71136
 11
-2.02254
 21
-1.46945
  0
LINE
  8
0
 10
-2.02254
 20
-1.46945
 11
-2.19077
 21
-1.20438
  0
LINE
  8
0
 10
-2.19077
 20
-1.20438
 11
-2.32443
 21
-0.920303
  0
LINE
  8
0
 10
-2.32443
 20
-0.920303
 11
-2.42145
 21
-0.621719
  0
LINE
  8
0
 10
-2.42145
 20
-0.621719
 11
-2.48029
 21
-0.313324
  0
LINE
  8
0
 10
-2.48029
 20
-0.313324
 11
-2.5
 21
0
  0
LINE
  8
0
 10
-2.5
 20
0
 11
-2.48029
 21
0.313324
  0
LINE
  8
0
 10
-2.48029
 20
0.313324
 11
-2.42145
 21
0.621719
  0
LINE
  8
0
 10
-2.42145
 20
0.621719
 11
-2.32443
 21
0.920303
  0
LINE
  8
0
 10
-2.32443
 20
0.920303
 11
-2.19077
 21
1.20438
  0
LINE
  8
0
 10
-2.19077
 20
1.20438
 11
-2.02254
 21
1.46945
  0
LINE
  8
0
 10
-2.02254
 20
1.46945
 11
-1.82242
 21
1.71136
  0
LINE
  8
0
 10
-1.82242
 20
1.71136
 11
-1.59355
 21
1.92627
  0
LINE
  8
0
 10
-1.59355
 20
1.92627
 11
-1.33955
 21
2.11081
  0
LINE
  8
0
 10
-1.33955
 20
2.11081
 11
-1.06444
 21
2.26205
  0
LINE
  8
0
 10
-1.06444
 20
2.26205
 11
-0.772537
 21
2.37764
  0
LINE
  8
0
 10
-0.772537
 20
2.37764
 11
-0.468445
 21
2.4557
  0
LINE
  8
0
 10
-0.468445
 20
2.4557
 11
-0.156967
 21
2.49506
  0
LINE
  8
0
 10
-0.156967
 20
2.49506
 11
0.156967
 21
2.49506
  0
LINE
  8
0
 10
0.156967
 20
2.49506
 11
0.468445
 21
2.4557
  0
LINE
  8
0
 10
0.468445
 20
2.4557
 11
0.772537
 21
2.37764
  0
LINE
  8
0
 10
0.772537
 20
2.37764
 11
1.06444
 21
2.26205
  0
LINE
  8
0
 10
1.06444
 20
2.26205
 11
1.33955
 21
2.11081
  0
LINE
  8
0
 10
1.33955
 20
2.11081
 11
1.59355
 21
1.92627
  0
LINE
  8
0
 10
1.59355
 20
1.92627
 11
1.82242
 21
1.71136
  0
LINE
  8
0
 10
1.82242
 20
1.71136
 11
2.02254
 21
1.46945
  0
LINE
  8
0
 10
2.02254
 20
1.46945
 11
2.19077
 21
1.20438
  0
LINE
  8
0
 10
2.19077
 20
1.20438
 11
2.32443
 21
0.920303
  0
LINE
  8
0
 10
2.32443
 20
0.920303
 11
2.42145
 21
0.621719
  0
LINE
  8
0
 10
2.42145
 20
0.621719
 11
2.48029
 21
0.313324
  0
LINE
  8
0
 10
2.48029
 20
0.313324
 11
2.5
 21
0
  0
LINE
  8
0
 10
2.5
 20
0
 11
2.48029
 21
-0.313324
  0
LINE
  8
0
 10
2.48029
 20
-0.313324
 11
2.42145
 21
-0.621719
  0
LINE
  8
0
 10
2.42145
 20
-0.621719
 11
2.32443
 21
-0.920303
  0
LINE
  8
0
 10
2.32443
 20
-0.920303
 11
2.19077
 21
-1.20438
  0
LINE
  8
0
 10
2.19077
 20
-1.20438
 11
2.02254
 21
-1.46945
  0
LINE
  8
0
 10
2.02254
 20
-1.46945
 11
1.82242
 21
-1.71136
  0
LINE
  8
0
 10
1.82242
 20
-1.71136
 11
1.59355
 21
-1.92627
  0
LINE
  8
0
 10
1.59355
 20
-1.92627
 11
1.33955
 21
-2.11081
  0
LINE
  8
0
 10
1.33955
 20
-2.11081
 11
1.06444
 21
-2.26205
  0
LINE
  8
0
 10
1.06444
 20
-2.26205
 11
0.772537
 21
-2.37764
  0
LINE
  8
0
 10
0.772537
 20
-2.37764
 11
0.468445
 21
-2.4557
  0
LINE
  8
0
 10
0.468445
 20
-2.4557
 11
0.156967
 21
-2.49506
  0
LINE
  8
0
 10
0.156967
 20
-2.49506
 11
-0.156967
 21
-2.49506
  0
LINE
  8
0
 10
-10.0942
 20
-11.497
 11
-10.2811
 21
-11.4734
  0
LINE
  8
0
 10
-10.2811
 20
-11.4734
 11
-10.4635
 21
-11.4266
  0
LINE
  8
0
 10
-10.4635
 20
-11.4266
 11
-10.6387
 21
-11.3572
  0
LINE
  8
0
 10
-10.6387
 20
-11.3572
 11
-10.8037
 21
-11.2665
  0
LINE
  8
0
 10
-10.8037
 20
-11.2665
 11
-10.9561
 21
-11.1558
  0
LINE
  8
0
 10
-10.9561
 20
-11.1558
 11
-11.0934
 21
-11.0268
  0
LINE
  8
0
 10
-11.0934
 20
-11.0268
 11
-11.2135
 21
-10.8817
  0
LINE
  8
0
 10
-11.2135
 20
-10.8817
 11
-11.3145
 21
-10.7226
  0
LINE
  8
0
 10
-11.3145
 20
-10.7226
 11
-11.3947
 21
-10.5522
  0
LINE
  8
0
 10
-11.3947
 20
-10.5522
 11
-11.4529
 21
-10.373
  0
LINE
  8
0
 10
-11.4529
 20
-10.373
 11
-11.4882
 21
-10.188
  0
LINE
  8
0
 10
-11.4882
 20
-10.188
 11
-11.5
 21
-10
  0
LINE
  8
0
 10
-11.5
 20
-10
 11
-11.4882
 21
-9.812
  0
LINE
  8
0
 10
-11.4882
 20
-9.812
 11
-11.4529
 21
-9.62695
  0
LINE
  8
0
 10
-11.4529
 20
-9.62695
 11
-11.3947
 21
-9.4478
  0
LINE
  8
0
 10
-11.3947
 20
-9.4478
 11
-11.3145
 21
-9.27736
  0
LINE
  8
0
 10
-11.3145
 20
-9.27736
 11
-11.2135
 21
-9.11832
  0
LINE
  8
0
 10
-11.2135
 20
-9.11832
 11
-11.0934
 21
-8.97318
  0
LINE
  8
0
 10
-11.0934
 20
-8.97318
 11
-10.9561
 21
-8.84422
  0
LINE
  8
0
 10
-10.9561
 20
-8.84422
 11
-10.8037
 21
-8.73351
  0
LINE
  8
0
 10
-10.8037
 20
-8.73351
 11
-10.6387
 21
-8.64275
  0
LINE
  8
0
 10
-10.6387
 20
-8.64275
 11
-10.4635
 21
-8.57341
  0
LINE
  8
0
 10
-10.4635
 20
-8.57341
 11
-10.2811
 21
-8.52657
  0
LINE
  8
0
 10
-10.2811
 20
-8.52657
 11
-10.0942
 21
-8.50294
  0
LINE
  8
0
 10
-10.0942
 20
-8.50294
 11
-9.90581
 21
-8.50294
  0
LINE
  8
0
 10
-9.90581
 20
-8.50294
 11
-9.71892
 21
-8.52657
  0
LINE
  8
0
 10
-9.71892
 20
-8.52657
 11
-9.53647
 21
-8.57341
  0
LINE
  8
0
 10
-9.53647
 20
-8.57341
 11
-9.36133
 21
-8.64275
  0
LINE
  8
0
 10
-9.36133
 20
-8.64275
 11
-9.19626
 21
-8.73351
  0
LINE
  8
0
 10
-9.19626
 20
-8.73351
 11
-9.04385
 21
-8.84422
  0
LINE
  8
0
 10
-9.04385
 20
-8.84422
 11
-8.90654
 21
-8.97318
  0
LINE
  8
0
 10
-8.90654
 20
-8.97318
 11
-8.78647
 21
-9.11832
  0
LINE
  8
0
 10
-8.78647
 20
-9.11832
 11
-8.68553
 21
-9.27736
  0
LINE
  8
0
 10
-8.68553
 20
-9.27736
 11
-8.60533
 21
-9.4478
  0
LINE
  8
0
 10
-8.60533
 20
-9.4478
 11
-8.54712
 21
-9.62695
  0
LINE
  8
0
 10
-8.54712
 20
-9.62695
 11
-8.51183
 21
-9.812
  0
LINE
  8
0
 10
-8.51183
 20
-9.812
 11
-8.5
 21
-10
  0
LINE
  8
0
 10
-8.5
 20
-10
 11
-8.51183
 21
-10.188
  0
LINE
  8
0
 10
-8.51183
 20
-10.188
 11
-8.54712
 21
-10.373
  0
LINE
  8
0
 10
-8.54712
 20
-10.373
 11
-8.60533
 21
-10.5522
  0
LINE
  8
0
 10
-8.60533
 20
-10.5522
 11
-8.68553
 21
-10.7226
  0
LINE
  8
0
 10
-8.68553
 20
-10.7226
 11
-8.78647
 21
-10.8817
  0
LINE
  8
0
 10
-8.78647
 20
-10.8817
 11
-8.90654
 21
-11.0268
  0
LINE
  8
0
 10
-8.90654
 20
-11.0268
 11
-9.04385
 21
-11.1558
  0
LINE
  8
0
 10
-9.04385
 20
-11.1558
 11
-9.19626
 21
-11.2665
  0
LINE
  8
0
 10
-9.19626
 20
-11.2665
 11
-9.36133
 21
-11.3572
  0
LINE
  8
0
 10
-9.36133
 20
-11.3572
 11
-9.53647
 21
-11.4266
  0
LINE
  8
0
 10
-9.53647
 20
-11.4266
 11
-9.71892
 21
-11.4734
  0
LINE
  8
0
 10
-9.71892
 20
-11.4734
 11
-9.90581
 21
-11.497
  0
LINE
  8
0
 10
-9.90581
 20
-11.497
 11
-10.0942
 21
-11.497
  0
LINE
  8
0
 10
9.90581
 20
-11.497
 11
9.71892
 21
-11.4734
  0
LINE
  8
0
 10
9.71892
 20
-11.4734
 11
9.53647
 21
-11.4266
  0
LINE
  8
0
 10
9.53647
 20
-11.4266
 11
9.36133
 21
-11.3572
  0
LINE
  8
0
 10
9.36133
 20
-11.3572
 11
9.19626
 21
-11.2665
  0
LINE
  8
0
 10
9.19626
 20
-11.2665
 11
9.04385
 21
-11.1558
  0
LINE
  8
0
 10
9.04385
 20
-11.1558
 11
8.90654
 21
-11.0268
  0
LINE
  8
0
 10
8.90654
 20
-11.0268
 11
8.78647
 21
-10.8817
  0
LINE
  8
0
 10
8.78647
 20
-10.8817
 11
8.68553
 21
-10.7226
  0
LINE
  8
0
 10
8.68553
 20
-10.7226
 11
8.60533
 21
-10.5522
  0
LINE
  8
0
 10
8.60533
 20
-10.5522
 11
8.54712
 21
-10.373
  0
LINE
  8
0
 10
8.54712
 20
-10.373
 11
8.51183
 21
-10.188
  0
LINE
  8
0
 10
8.51183
 20
-10.188
 11
8.5
 21
-10
  0
LINE
  8
0
 10
8.5
 20
-10
 11
8.51183
 21
-9.812
  0
LINE
  8
0
 10
8.51183
 20
-9.812
 11
8.54712
 21
-9.62695
  0
LINE
  8
0
 10
8.54712
 20
-9.62695
 11
8.60533
 21
-9.4478
  0
LINE
  8
0
 10
8.60533
 20
-9.4478
 11
8.68553
 21
-9.27736
  0
LINE
  8
0
 10
8.68553
 20
-9.27736
 11
8.78647
 21
-9.11832
  0
LINE
  8
0
 10
8.78647
 20
-9.11832
 11
8.90654
 21
-8.97318
  0
LINE
  8
0
 10
8.90654
 20
-8.97318
 11
9.04385
 21
-8.84422
  0
LINE
  8
0
 10
9.04385
 20
-8.84422
 11
9.19626
 21
-8.73351
  0
LINE
  8
0
 10
9.19626
 20
-8.73351
 11
9.36133
 21
-8.64275
  0
LINE
  8
0
 10
9.36133
 20
-8.64275
 11
9.53647
 21
-8.57341
  0
LINE
  8
0
 10
9.53647
 20
-8.57341
 11
9.71892
 21
-8.52657
  0
LINE
  8
0
 10
9.71892
 20
-8.52657
 11
9.90581
 21
-8.50294
  0
LINE
  8
0
 10
9.90581
 20
-8.50294
 11
10.0942
 21
-8.50294
  0
LINE
  8
0
 10
10.0942
 20
-8.50294
 11
10.2811
 21
-8.52657
  0
LINE
  8
0
 10
10.2811
 20
-8.52657
 11
10.4635
 21
-8.57341
  0
LINE
  8
0
 10
10.4635
 20
-8.57341
 11
10.6387
 21
-8.64275
  0
LINE
  8
0
 10
10.6387
 20
-8.64275
 11
10.8037
 21
-8.73351
  0
LINE
  8
0
 10
10.8037
 20
-8.73351
 11
10.9561
 21
-8.84422
  0
LINE
  8
0
 10
10.9561
 20
-8.84422
 11
11.0934
 21
-8.97318
  0
LINE
  8
0
 10
11.0934
 20
-8.97318
 11
11.2135
 21
-9.11832
  0
LINE
  8
0
 10
11.2135
 20
-9.11832
 11
11.3145
 21
-9.27736
  0
LINE
  8
0
 10
11.3145
 20
-9.27736
 11
11.3947
 21
-9.4478
  0
LINE
  8
0
 10
11.3947
 20
-9.4478
 11
11.4529
 21
-9.62695
  0
LINE
  8
0
 10
11.4529
 20
-9.62695
 11
11.4882
 21
-9.812
  0
LINE
  8
0
 10
11.4882
 20
-9.812
 11
11.5
 21
-10
  0
LINE
  8
0
 10
11.5
 20
-10
 11
11.4882
 21
-10.188
  0
LINE
  8
0
 10
11.4882
 20
-10.188
 11
11.4529
 21
-10.373
  0
LINE
  8
0
 10
11.4529
 20
-10.373
 11
11.3947
 21
-10.5522
  0
LINE
  8
0
 10
11.3947
 20
-10.5522
 11
11.3145
 21
-10.7226
  0
LINE
  8
0
 10
11.3145
 20
-10.7226
 11
11.2135
 21
-10.8817
  0
LINE
  8
0
 10
11.2135
 20
-10.8817
 11
11.0934
 21
-11.0268
  0
LINE
  8
0
 10
11.0934
 20
-11.0268
 11
10.9561
 21
-11.1558
  0
LINE
  8
0
 10
10.9561
 20
-11.1558
 11
10.8037
 21
-11.2665
  0
LINE
  8
0
 10
10.8037
 20
-11.2665
 11
10.6387
 21
-11.3572
  0
LINE
  8
0
 10
10.6387
 20
-11.3572
 11
10.4635
 21
-11.4266
  0
LINE
  8
0
 10
10.4635
 20
-11.4266
 11
10.2811
 21
-11.4734
  0
LINE
  8
0
 10
10.2811
 20
-11.4734
 11
10.0942
 21
-11.497
  0
LINE
  8
0
 10
10.0942
 20
-11.497
 11
9.90581
 21
-11.497
  0
ENDSEC
  0
SECTION
  2
OBJECTS
  0
DICTIONARY
  0
ENDSEC
  0
EOF
