  0
SECTION
  2
BLOCKS
  0
ENDSEC
  0
SECTION
  2
ENTITIES
  0
LINE
  8
0
 10
60
 20
40
 11
-60
 21
40
  0
LINE
  8
0
 10
-60
 20
40
 11
-60
 21
-40
  0
LINE
  8
0
 10
-60
 20
-40
 11
60
 21
-40
  0
LINE
  8
0
 10
60
 20
-40
 11
60
 21
40
  0
LINE
  8
0
 10
54.9058
 20
33.5029
 11
54.7189
 21
33.5266
  0
LINE
  8
0
 10
54.7189
 20
33.5266
 11
54.5365
 21
33.5734
  0
LINE
  8
0
 10
54.5365
 20
33.5734
 11
54.3613
 21
33.6427
  0
LINE
  8
0
 10
54.3613
 20
33.6427
 11
54.1963
 21
33.7335
  0
LINE
  8
0
 10
54.1963
 20
33.7335
 11
54.0439
 21
33.8442
  0
LINE
  8
0
 10
54.0439
 20
33.8442
 11
53.9065
 21
33.9732
  0
LINE
  8
0
 10
53.9065
 20
33.9732
 11
53.7865
 21
34.1183
  0
LINE
  8
0
 10
53.7865
 20
34.1183
 11
53.6855
 21
34.2774
  0
LINE
  8
0
 10
53.6855
 20
34.2774
 11
53.6053
 21
34.4478
  0
LINE
  8
0
 10
53.6053
 20
34.4478
 11
53.5471
 21
34.627
  0
LINE
  8
0
 10
53.5471
 20
34.627
 11
53.5118
 21
34.812
  0
LINE
  8
0
 10
53.5118
 20
34.812
 11
53.5
 21
35
  0
LINE
  8
0
 10
53.5
 20
35
 11
53.5118
 21
35.188
  0
LINE
  8
0
 10
53.5118
 20
35.188
 11
53.5471
 21
35.373
  0
LINE
  8
0
 10
53.5471
 20
35.373
 11
53.6053
 21
35.5522
  0
LINE
  8
0
 10
53.6053
 20
35.5522
 11
53.6855
 21
35.7226
  0
LINE
  8
0
 10
53.6855
 20
35.7226
 11
53.7865
 21
35.8817
  0
LINE
  8
0
 10
53.7865
 20
35.8817
 11
53.9065
 21
36.0268
  0
LINE
  8
0
 10
53.9065
 20
36.0268
 11
54.0439
 21
36.1558
  0
LINE
  8
0
 10
54.0439
 20
36.1558
 11
54.1963
 21
36.2665
  0
LINE
  8
0
 10
54.1963
 20
36.2665
 11
54.3613
 21
36.3572
  0
LINE
  8
0
 10
54.3613
 20
36.3572
 11
54.5365
 21
36.4266
  0
LINE
  8
0
 10
54.5365
 20
36.4266
 11
54.7189
 21
36.4734
  0
LINE
  8
0
 10
54.7189
 20
36.4734
 11
54.9058
 21
36.497
  0
LINE
  8
0
 10
54.9058
 20
36.497
 11
55.0942
 21
36.497
  0
LINE
  8
0
 10
55.0942
 20
36.497
 11
55.2811
 21
36.4734
  0
LINE
  8
0
 10
55.2811
 20
36.4734
 11
55.4635
 21
36.4266
  0
LINE
  8
0
 10
55.4635
 20
36.4266
 11
55.6387
 21
36.3572
  0
LINE
  8
0
 10
55.6387
 20
36.3572
 11
55.8037
 21
36.2665
  0
LINE
  8
0
 10
55.8037
 20
36.2665
 11
55.9561
 21
36.1558
  0
LINE
  8
0
 10
55.9561
 20
36.1558
 11
56.0934
 21
36.0268
  0
LINE
  8
0
 10
56.0934
 20
36.0268
 11
56.2135
 21
35.8817
  0
LINE
  8
0
 10
56.2135
 20
35.8817
 11
56.3145
 21
35.7226
  0
LINE
  8
0
 10
56.3145
 20
35.7226
 11
56.3947
 21
35.5522
  0
LINE
  8
0
 10
56.3947
 20
35.5522
 11
56.4529
 21
35.373
  0
LINE
  8
0
 10
56.4529
 20
35.373
 11
56.4882
 21
35.188
  0
LINE
  8
0
 10
56.4882
 20
35.188
 11
56.5
 21
35
  0
LINE
  8
0
 10
56.5
 20
35
 11
56.4882
 21
34.812
  0
LINE
  8
0
 10
56.4882
 20
34.812
 11
56.4529
 21
34.627
  0
LINE
  8
0
 10
56.4529
 20
34.627
 11
56.3947
 21
34.4478
  0
LINE
  8
0
 10
56.3947
 20
34.4478
 11
56.3145
 21
34.2774
  0
LINE
  8
0
 10
56.3145
 20
34.2774
 11
56.2135
 21
34.1183
  0
LINE
  8
0
 10
56.2135
 20
34.1183
 11
56.0934
 21
33.9732
  0
LINE
  8
0
 10
56.0934
 20
33.9732
 11
55.9561
 21
33.8442
  0
LINE
  8
0
 10
55.9561
 20
33.8442
 11
55.8037
 21
33.7335
  0
LINE
  8
0
 10
55.8037
 20
33.7335
 11
55.6387
 21
33.6427
  0
LINE
  8
0
 10
55.6387
 20
33.6427
 11
55.4635
 21
33.5734
  0
LINE
  8
0
 10
55.4635
 20
33.5734
 11
55.2811
 21
33.5266
  0
LINE
  8
0
 10
55.2811
 20
33.5266
 11
55.0942
 21
33.5029
  0
LINE
  8
0
 10
55.0942
 20
33.5029
 11
54.9058
 21
33.5029
  0
LINE
  8
0
 10
-55.0942
 20
33.5029
 11
-55.2811
 21
33.5266
  0
LINE
  8
0
 10
-55.2811
 20
33.5266
 11
-55.4635
 21
33.5734
  0
LINE
  8
0
 10
-55.4635
 20
33.5734
 11
-55.6387
 21
33.6427
  0
LINE
  8
0
 10
-55.6387
 20
33.6427
 11
-55.8037
 21
33.7335
  0
LINE
  8
0
 10
-55.8037
 20
33.7335
 11
-55.9561
 21
33.8442
  0
LINE
  8
0
 10
-55.9561
 20
33.8442
 11
-56.0934
 21
33.9732
  0
LINE
  8
0
 10
-56.0934
 20
33.9732
 11
-56.2135
 21
34.1183
  0
LINE
  8
0
 10
-56.2135
 20
34.1183
 11
-56.3145
 21
34.2774
  0
LINE
  8
0
 10
-56.3145
 20
34.2774
 11
-56.3947
 21
34.4478
  0
LINE
  8
0
 10
-56.3947
 20
34.4478
 11
-56.4529
 21
34.627
  0
LINE
  8
0
 10
-56.4529
 20
34.627
 11
-56.4882
 21
34.812
  0
LINE
  8
0
 10
-56.4882
 20
34.812
 11
-56.5
 21
35
  0
LINE
  8
0
 10
-56.5
 20
35
 11
-56.4882
 21
35.188
  0
LINE
  8
0
 10
-56.4882
 20
35.188
 11
-56.4529
 21
35.373
  0
LINE
  8
0
 10
-56.4529
 20
35.373
 11
-56.3947
 21
35.5522
  0
LINE
  8
0
 10
-56.3947
 20
35.5522
 11
-56.3145
 21
35.7226
  0
LINE
  8
0
 10
-56.3145
 20
35.7226
 11
-56.2135
 21
35.8817
  0
LINE
  8
0
 10
-56.2135
 20
35.8817
 11
-56.0934
 21
36.0268
  0
LINE
  8
0
 10
-56.0934
 20
36.0268
 11
-55.9561
 21
36.1558
  0
LINE
  8
0
 10
-55.9561
 20
36.1558
 11
-55.8037
 21
36.2665
  0
LINE
  8
0
 10
-55.8037
 20
36.2665
 11
-55.6387
 21
36.3572
  0
LINE
  8
0
 10
-55.6387
 20
36.3572
 11
-55.4635
 21
36.4266
  0
LINE
  8
0
 10
-55.4635
 20
36.4266
 11
-55.2811
 21
36.4734
  0
LINE
  8
0
 10
-55.2811
 20
36.4734
 11
-55.0942
 21
36.497
  0
LINE
  8
0
 10
-55.0942
 20
36.497
 11
-54.9058
 21
36.497
  0
LINE
  8
0
 10
-54.9058
 20
36.497
 11
-54.7189
 21
36.4734
  0
LINE
  8
0
 10
-54.7189
 20
36.4734
 11
-54.5365
 21
36.4266
  0
LINE
  8
0
 10
-54.5365
 20
36.4266
 11
-54.3613
 21
36.3572
  0
LINE
  8
0
 10
-54.3613
 20
36.3572
 11
-54.1963
 21
36.2665
  0
LINE
  8
0
 10
-54.1963
 20
36.2665
 11
-54.0439
 21
36.1558
  0
LINE
  8
0
 10
-54.0439
 20
36.1558
 11
-53.9065
 21
36.0268
  0
LINE
  8
0
 10
-53.9065
 20
36.0268
 11
-53.7865
 21
35.8817
  0
LINE
  8
0
 10
-53.7865
 20
35.8817
 11
-53.6855
 21
35.7226
  0
LINE
  8
0
 10
-53.6855
 20
35.7226
 11
-53.6053
 21
35.5522
  0
LINE
  8
0
 10
-53.6053
 20
35.5522
 11
-53.5471
 21
35.373
  0
LINE
  8
0
 10
-53.5471
 20
35.373
 11
-53.5118
 21
35.188
  0
LINE
  8
0
 10
-53.5118
 20
35.188
 11
-53.5
 21
35
  0
LINE
  8
0
 10
-53.5
 20
35
 11
-53.5118
 21
34.812
  0
LINE
  8
0
 10
-53.5118
 20
34.812
 11
-53.5471
 21
34.627
  0
LINE
  8
0
 10
-53.5471
 20
34.627
 11
-53.6053
 21
34.4478
  0
LINE
  8
0
 10
-53.6053
 20
34.4478
 11
-53.6855
 21
34.2774
  0
LINE
  8
0
 10
-53.6855
 20
34.2774
 11
-53.7865
 21
34.1183
  0
LINE
  8
0
 10
-53.7865
 20
34.1183
 11
-53.9065
 21
33.9732
  0
LINE
  8
0
 10
-53.9065
 20
33.9732
 11
-54.0439
 21
33.8442
  0
LINE
  8
0
 10
-54.0439
 20
33.8442
 11
-54.1963
 21
33.7335
  0
LINE
  8
0
 10
-54.1963
 20
33.7335
 11
-54.3613
 21
33.6427
  0
LINE
  8
0
 10
-54.3613
 20
33.6427
 11
-54.5365
 21
33.5734
  0
LINE
  8
0
 10
-54.5365
 20
33.5734
 11
-54.7189
 21
33.5266
  0
LINE
  8
0
 10
-54.7189
 20
33.5266
 11
-54.9058
 21
33.5029
  0
LINE
  8
0
 10
-54.9058
 20
33.5029
 11
-55.0942
 21
33.5029
  0
LINE
  8
0
 10
21.4058
 20
8.50294
 11
21.2189
 21
8.52657
  0
LINE
  8
0
 10
21.2189
 20
8.52657
 11
21.0365
 21
8.57341
  0
LINE
  8
0
 10
21.0365
 20
8.57341
 11
20.8613
 21
8.64275
  0
LINE
  8
0
 10
20.8613
 20
8.64275
 11
20.6963
 21
8.73351
  0
LINE
  8
0
 10
20.6963
 20
8.73351
 11
20.5439
 21
8.84422
  0
LINE
  8
0
 10
20.5439
 20
8.84422
 11
20.4066
 21
8.97318
  0
LINE
  8
0
 10
20.4066
 20
8.97318
 11
20.2865
 21
9.11832
  0
LINE
  8
0
 10
20.2865
 20
9.11832
 11
20.1855
 21
9.27736
  0
LINE
  8
0
 10
20.1855
 20
9.27736
 11
20.1053
 21
9.4478
  0
LINE
  8
0
 10
20.1053
 20
9.4478
 11
20.0471
 21
9.62695
  0
LINE
  8
0
 10
20.0471
 20
9.62695
 11
20.0118
 21
9.812
  0
LINE
  8
0
 10
20.0118
 20
9.812
 11
20
 21
10
  0
LINE
  8
0
 10
20
 20
10
 11
20.0118
 21
10.188
  0
LINE
  8
0
 10
20.0118
 20
10.188
 11
20.0471
 21
10.373
  0
LINE
  8
0
 10
20.0471
 20
10.373
 11
20.1053
 21
10.5522
  0
LINE
  8
0
 10
20.1053
 20
10.5522
 11
20.1855
 21
10.7226
  0
LINE
  8
0
 10
20.1855
 20
10.7226
 11
20.2865
 21
10.8817
  0
LINE
  8
0
 10
20.2865
 20
10.8817
 11
20.4066
 21
11.0268
  0
LINE
  8
0
 10
20.4066
 20
11.0268
 11
20.5439
 21
11.1558
  0
LINE
  8
0
 10
20.5439
 20
11.1558
 11
20.6963
 21
11.2665
  0
LINE
  8
0
 10
20.6963
 20
11.2665
 11
20.8613
 21
11.3572
  0
LINE
  8
0
 10
20.8613
 20
11.3572
 11
21.0365
 21
11.4266
  0
LINE
  8
0
 10
21.0365
 20
11.4266
 11
21.2189
 21
11.4734
  0
LINE
  8
0
 10
21.2189
 20
11.4734
 11
21.4058
 21
11.497
  0
LINE
  8
0
 10
21.4058
 20
11.497
 11
21.5942
 21
11.497
  0
LINE
  8
0
 10
21.5942
 20
11.497
 11
21.7811
 21
11.4734
  0
LINE
  8
0
 10
21.7811
 20
11.4734
 11
21.9635
 21
11.4266
  0
LINE
  8
0
 10
21.9635
 20
11.4266
 11
22.1387
 21
11.3572
  0
LINE
  8
0
 10
22.1387
 20
11.3572
 11
22.3037
 21
11.2665
  0
LINE
  8
0
 10
22.3037
 20
11.2665
 11
22.4561
 21
11.1558
  0
LINE
  8
0
 10
22.4561
 20
11.1558
 11
22.5935
 21
11.0268
  0
LINE
  8
0
 10
22.5935
 20
11.0268
 11
22.7135
 21
10.8817
  0
LINE
  8
0
 10
22.7135
 20
10.8817
 11
22.8145
 21
10.7226
  0
LINE
  8
0
 10
22.8145
 20
10.7226
 11
22.8947
 21
10.5522
  0
LINE
  8
0
 10
22.8947
 20
10.5522
 11
22.9529
 21
10.373
  0
LINE
  8
0
 10
22.9529
 20
10.373
 11
22.9882
 21
10.188
  0
LINE
  8
0
 10
22.9882
 20
10.188
 11
23
 21
10
  0
LINE
  8
0
 10
23
 20
10
 11
22.9882
 21
9.812
  0
LINE
  8
0
 10
22.9882
 20
9.812
 11
22.9529
 21
9.62695
  0
LINE
  8
0
 10
22.9529
 20
9.62695
 11
22.8947
 21
9.4478
  0
LINE
  8
0
 10
22.8947
 20
9.4478
 11
22.8145
 21
9.27736
  0
LINE
  8
0
 10
22.8145
 20
9.27736
 11
22.7135
 21
9.11832
  0
LINE
  8
0
 10
22.7135
 20
9.11832
 11
22.5935
 21
8.97318
  0
LINE
  8
0
 10
22.5935
 20
8.97318
 11
22.4561
 21
8.84422
  0
LINE
  8
0
 10
22.4561
 20
8.84422
 11
22.3037
 21
8.73351
  0
LINE
  8
0
 10
22.3037
 20
8.73351
 11
22.1387
 21
8.64275
  0
LINE
  8
0
 10
22.1387
 20
8.64275
 11
21.9635
 21
8.57341
  0
LINE
  8
0
 10
21.9635
 20
8.57341
 11
21.7811
 21
8.52657
  0
LINE
  8
0
 10
21.7811
 20
8.52657
 11
21.5942
 21
8.50294
  0
LINE
  8
0
 10
21.5942
 20
8.50294
 11
21.4058
 21
8.50294
  0
LINE
  8
0
 10
41.4058
 20
8.50294
 11
41.2189
 21
8.52657
  0
LINE
  8
0
 10
41.2189
 20
8.52657
 11
41.0365
 21
8.57341
  0
LINE
  8
0
 10
41.0365
 20
8.57341
 11
40.8613
 21
8.64275
  0
LINE
  8
0
 10
40.8613
 20
8.64275
 11
40.6963
 21
8.73351
  0
LINE
  8
0
 10
40.6963
 20
8.73351
 11
40.5439
 21
8.84422
  0
LINE
  8
0
 10
40.5439
 20
8.84422
 11
40.4065
 21
8.97318
  0
LINE
  8
0
 10
40.4065
 20
8.97318
 11
40.2865
 21
9.11832
  0
LINE
  8
0
 10
40.2865
 20
9.11832
 11
40.1855
 21
9.27736
  0
LINE
  8
0
 10
40.1855
 20
9.27736
 11
40.1053
 21
9.4478
  0
LINE
  8
0
 10
40.1053
 20
9.4478
 11
40.0471
 21
9.62695
  0
LINE
  8
0
 10
40.0471
 20
9.62695
 11
40.0118
 21
9.812
  0
LINE
  8
0
 10
40.0118
 20
9.812
 11
40
 21
10
  0
LINE
  8
0
 10
40
 20
10
 11
40.0118
 21
10.188
  0
LINE
  8
0
 10
40.0118
 20
10.188
 11
40.0471
 21
10.373
  0
LINE
  8
0
 10
40.0471
 20
10.373
 11
40.1053
 21
10.5522
  0
LINE
  8
0
 10
40.1053
 20
10.5522
 11
40.1855
 21
10.7226
  0
LINE
  8
0
 10
40.1855
 20
10.7226
 11
40.2865
 21
10.8817
  0
LINE
  8
0
 10
40.2865
 20
10.8817
 11
40.4065
 21
11.0268
  0
LINE
  8
0
 10
40.4065
 20
11.0268
 11
40.5439
 21
11.1558
  0
LINE
  8
0
 10
40.5439
 20
11.1558
 11
40.6963
 21
11.2665
  0
LINE
  8
0
 10
40.6963
 20
11.2665
 11
40.8613
 21
11.3572
  0
LINE
  8
0
 10
40.8613
 20
11.3572
 11
41.0365
 21
11.4266
  0
LINE
  8
0
 10
41.0365
 20
11.4266
 11
41.2189
 21
11.4734
  0
LINE
  8
0
 10
41.2189
 20
11.4734
 11
41.4058
 21
11.497
  0
LINE
  8
0
 10
41.4058
 20
11.497
 11
41.5942
 21
11.497
  0
LINE
  8
0
 10
41.5942
 20
11.497
 11
41.7811
 21
11.4734
  0
LINE
  8
0
 10
41.7811
 20
11.4734
 11
41.9635
 21
11.4266
  0
LINE
  8
0
 10
41.9635
 20
11.4266
 11
42.1387
 21
11.3572
  0
LINE
  8
0
 10
42.1387
 20
11.3572
 11
42.3037
 21
11.2665
  0
LINE
  8
0
 10
42.3037
 20
11.2665
 11
42.4561
 21
11.1558
  0
LINE
  8
0
 10
42.4561
 20
11.1558
 11
42.5934
 21
11.0268
  0
LINE
  8
0
 10
42.5934
 20
11.0268
 11
42.7135
 21
10.8817
  0
LINE
  8
0
 10
42.7135
 20
10.8817
 11
42.8145
 21
10.7226
  0
LINE
  8
0
 10
42.8145
 20
10.7226
 11
42.8947
 21
10.5522
  0
LINE
  8
0
 10
42.8947
 20
10.5522
 11
42.9529
 21
10.373
  0
LINE
  8
0
 10
42.9529
 20
10.373
 11
42.9882
 21
10.188
  0
LINE
  8
0
 10
42.9882
 20
10.188
 11
43
 21
10
  0
LINE
  8
0
 10
43
 20
10
 11
42.9882
 21
9.812
  0
LINE
  8
0
 10
42.9882
 20
9.812
 11
42.9529
 21
9.62695
  0
LINE
  8
0
 10
42.9529
 20
9.62695
 11
42.8947
 21
9.4478
  0
LINE
  8
0
 10
42.8947
 20
9.4478
 11
42.8145
 21
9.27736
  0
LINE
  8
0
 10
42.8145
 20
9.27736
 11
42.7135
 21
9.11832
  0
LINE
  8
0
 10
42.7135
 20
9.11832
 11
42.5934
 21
8.97318
  0
LINE
  8
0
 10
42.5934
 20
8.97318
 11
42.4561
 21
8.84422
  0
LINE
  8
0
 10
42.4561
 20
8.84422
 11
42.3037
 21
8.73351
  0
LINE
  8
0
 10
42.3037
 20
8.73351
 11
42.1387
 21
8.64275
  0
LINE
  8
0
 10
42.1387
 20
8.64275
 11
41.9635
 21
8.57341
  0
LINE
  8
0
 10
41.9635
 20
8.57341
 11
41.7811
 21
8.52657
  0
LINE
  8
0
 10
41.7811
 20
8.52657
 11
41.5942
 21
8.50294
  0
LINE
  8
0
 10
41.5942
 20
8.50294
 11
41.4058
 21
8.50294
  0
LINE
  8
0
 10
-8
 20
-10.2
 11
-8.25334
 21
-10.185
  0
LINE
  8
0
 10
-8.25334
 20
-10.185
 11
-8.27763
 21
-10.182
  0
LINE
  8
0
 10
-8.27763
 20
-10.182
 11
-8.51494
 21
-10.1381
  0
LINE
  8
0
 10
-8.51494
 20
-10.1381
 11
-8.53761
 21
-10.1325
  0
LINE
  8
0
 10
-8.53761
 20
-10.1325
 11
-8.76808
 21
-10.0612
  0
LINE
  8
0
 10
-8.76808
 20
-10.0612
 11
-8.79126
 21
-10.0524
  0
LINE
  8
0
 10
-8.79126
 20
-10.0524
 11
-9.01196
 21
-9.9528
  0
LINE
  8
0
 10
-9.01196
 20
-9.9528
 11
-9.03342
 21
-9.9415
  0
LINE
  8
0
 10
-9.03342
 20
-9.9415
 11
-9.23947
 21
-9.8165
  0
LINE
  8
0
 10
-9.23947
 20
-9.8165
 11
-9.2587
 21
-9.80325
  0
LINE
  8
0
 10
-9.2587
 20
-9.80325
 11
-9.44913
 21
-9.65482
  0
LINE
  8
0
 10
-9.44913
 20
-9.65482
 11
-9.46759
 21
-9.63849
  0
LINE
  8
0
 10
-9.46759
 20
-9.63849
 11
-9.63849
 21
-9.46759
  0
LINE
  8
0
 10
-9.63849
 20
-9.46759
 11
-9.65482
 21
-9.44913
  0
LINE
  8
0
 10
-9.65482
 20
-9.44913
 11
-9.80325
 21
-9.2587
  0
LINE
  8
0
 10
-9.80325
 20
-9.2587
 11
-9.8165
 21
-9.23947
  0
LINE
  8
0
 10
-9.8165
 20
-9.23947
 11
-9.9415
 21
-9.03342
  0
LINE
  8
0
 10
-9.9415
 20
-9.03342
 11
-9.9528
 21
-9.01196
  0
LINE
  8
0
 10
-9.9528
 20
-9.01196
 11
-10.0524
 21
-8.79126
  0
LINE
  8
0
 10
-10.0524
 20
-8.79126
 11
-10.0612
 21
-8.76808
  0
LINE
  8
0
 10
-10.0612
 20
-8.76808
 11
-10.1325
 21
-8.53761
  0
LINE
  8
0
 10
-10.1325
 20
-8.53761
 11
-10.1381
 21
-8.51494
  0
LINE
  8
0
 10
-10.1381
 20
-8.51494
 11
-10.182
 21
-8.27763
  0
LINE
  8
0
 10
-10.182
 20
-8.27763
 11
-10.185
 21
-8.25334
  0
LINE
  8
0
 10
-10.185
 20
-8.25334
 11
-10.1996
 21
-8.01213
  0
LINE
  8
0
 10
-10.1996
 20
-8.01213
 11
-10.2
 21
-3.2998
  0
LINE
  8
0
 10
-10.2
 20
-3.2998
 11
-10.1938
 21
-3.19102
  0
LINE
  8
0
 10
-10.1938
 20
-3.19102
 11
-10.1908
 21
-3.16664
  0
LINE
  8
0
 10
-10.1908
 20
-3.16664
 11
-10.1732
 21
-3.07191
  0
LINE
  8
0
 10
-10.1732
 20
-3.07191
 11
-10.1677
 21
-3.04944
  0
LINE
  8
0
 10
-10.1677
 20
-3.04944
 11
-10.1394
 21
-2.95764
  0
LINE
  8
0
 10
-10.1394
 20
-2.95764
 11
-10.1306
 21
-2.93445
  0
LINE
  8
0
 10
-10.1306
 20
-2.93445
 11
-10.0905
 21
-2.84558
  0
LINE
  8
0
 10
-10.0905
 20
-2.84558
 11
-10.0792
 21
-2.82394
  0
LINE
  8
0
 10
-10.0792
 20
-2.82394
 11
-10.0294
 21
-2.74191
  0
LINE
  8
0
 10
-10.0294
 20
-2.74191
 11
-10.0159
 21
-2.72249
  0
LINE
  8
0
 10
-10.0159
 20
-2.72249
 11
-9.95638
 21
-2.64632
  0
LINE
  8
0
 10
-9.95638
 20
-2.64632
 11
-9.94025
 21
-2.62811
  0
LINE
  8
0
 10
-9.94025
 20
-2.62811
 11
-9.87189
 21
-2.55975
  0
LINE
  8
0
 10
-9.87189
 20
-2.55975
 11
-9.85368
 21
-2.54362
  0
LINE
  8
0
 10
-9.85368
 20
-2.54362
 11
-9.77751
 21
-2.48405
  0
LINE
  8
0
 10
-9.77751
 20
-2.48405
 11
-9.75809
 21
-2.47064
  0
LINE
  8
0
 10
-9.75809
 20
-2.47064
 11
-9.67606
 21
-2.42084
  0
LINE
  8
0
 10
-9.67606
 20
-2.42084
 11
-9.65442
 21
-2.40945
  0
LINE
  8
0
 10
-9.65442
 20
-2.40945
 11
-9.56555
 21
-2.36942
  0
LINE
  8
0
 10
-9.56555
 20
-2.36942
 11
-9.54236
 21
-2.36064
  0
LINE
  8
0
 10
-9.54236
 20
-2.36064
 11
-9.45056
 21
-2.33232
  0
LINE
  8
0
 10
-9.45056
 20
-2.33232
 11
-9.42809
 21
-2.3268
  0
LINE
  8
0
 10
-9.42809
 20
-2.3268
 11
-9.33336
 21
-2.30922
  0
LINE
  8
0
 10
-9.33336
 20
-2.30922
 11
-9.30898
 21
-2.30623
  0
LINE
  8
0
 10
-9.30898
 20
-2.30623
 11
-9.2123
 21
-2.30037
  0
LINE
  8
0
 10
-9.2123
 20
-2.30037
 11
-8.5
 21
-2.3
  0
LINE
  8
0
 10
-8.5
 20
-2.3
 11
-8.45308
 21
-2.30225
  0
LINE
  8
0
 10
-8.45308
 20
-2.30225
 11
-8.42668
 21
-2.30544
  0
LINE
  8
0
 10
-8.42668
 20
-2.30544
 11
-8.39055
 21
-2.31227
  0
LINE
  8
0
 10
-8.39055
 20
-2.31227
 11
-8.33359
 21
-2.32874
  0
LINE
  8
0
 10
-8.33359
 20
-2.32874
 11
-8.27962
 21
-2.3512
  0
LINE
  8
0
 10
-8.27962
 20
-2.3512
 11
-8.22699
 21
-2.38077
  0
LINE
  8
0
 10
-8.22699
 20
-2.38077
 11
-8.20482
 21
-2.39604
  0
LINE
  8
0
 10
-8.20482
 20
-2.39604
 11
-8.15936
 21
-2.43378
  0
LINE
  8
0
 10
-8.15936
 20
-2.43378
 11
-8.11667
 21
-2.4789
  0
LINE
  8
0
 10
-8.11667
 20
-2.4789
 11
-8.09421
 21
-2.50819
  0
LINE
  8
0
 10
-8.09421
 20
-2.50819
 11
-8.06386
 21
-2.55565
  0
LINE
  8
0
 10
-8.06386
 20
-2.55565
 11
-8.05139
 21
-2.57942
  0
LINE
  8
0
 10
-8.05139
 20
-2.57942
 11
-8.03674
 21
-2.61263
  0
LINE
  8
0
 10
-8.03674
 20
-2.61263
 11
-8.01772
 21
-2.67007
  0
LINE
  8
0
 10
-8.01772
 20
-2.67007
 11
-8.00583
 21
-2.72549
  0
LINE
  8
0
 10
-8.00583
 20
-2.72549
 11
-8.00244
 21
-2.75288
  0
LINE
  8
0
 10
-8.00244
 20
-2.75288
 11
-8.00049
 21
-2.78902
  0
LINE
  8
0
 10
-8.00049
 20
-2.78902
 11
-8.0002
 21
-4.99014
  0
LINE
  8
0
 10
-8.0002
 20
-4.99014
 11
-7.99545
 21
-5.06998
  0
LINE
  8
0
 10
-7.99545
 20
-5.06998
 11
-7.98155
 21
-5.14314
  0
LINE
  8
0
 10
-7.98155
 20
-5.14314
 11
-7.95889
 21
-5.21404
  0
LINE
  8
0
 10
-7.95889
 20
-5.21404
 11
-7.92757
 21
-5.28108
  0
LINE
  8
0
 10
-7.92757
 20
-5.28108
 11
-7.88786
 21
-5.3443
  0
LINE
  8
0
 10
-7.88786
 20
-5.3443
 11
-7.84077
 21
-5.40242
  0
LINE
  8
0
 10
-7.84077
 20
-5.40242
 11
-7.78709
 21
-5.4539
  0
LINE
  8
0
 10
-7.78709
 20
-5.4539
 11
-7.72826
 21
-5.49821
  0
LINE
  8
0
 10
-7.72826
 20
-5.49821
 11
-7.66302
 21
-5.53485
  0
LINE
  8
0
 10
-7.66302
 20
-5.53485
 11
-7.59557
 21
-5.56314
  0
LINE
  8
0
 10
-7.59557
 20
-5.56314
 11
-7.52397
 21
-5.58214
  0
LINE
  8
0
 10
-7.52397
 20
-5.58214
 11
-7.44913
 21
-5.59326
  0
LINE
  8
0
 10
-7.44913
 20
-5.59326
 11
-7.37498
 21
-5.59473
  0
LINE
  8
0
 10
-7.37498
 20
-5.59473
 11
-7.30121
 21
-5.58742
  0
LINE
  8
0
 10
-7.30121
 20
-5.58742
 11
-7.22931
 21
-5.57071
  0
LINE
  8
0
 10
-7.22931
 20
-5.57071
 11
-7.15993
 21
-5.54515
  0
LINE
  8
0
 10
-7.15993
 20
-5.54515
 11
-7.09262
 21
-5.51039
  0
LINE
  8
0
 10
-7.09262
 20
-5.51039
 11
-7.03096
 21
-5.46855
  0
LINE
  8
0
 10
-7.03096
 20
-5.46855
 11
-6.97089
 21
-5.41559
  0
LINE
  8
0
 10
-6.97089
 20
-5.41559
 11
-4.6739
 21
-3.11861
  0
LINE
  8
0
 10
-4.6739
 20
-3.11861
 11
-4.46127
 21
-2.87999
  0
LINE
  8
0
 10
-4.46127
 20
-2.87999
 11
-4.27893
 21
-2.62379
  0
LINE
  8
0
 10
-4.27893
 20
-2.62379
 11
-4.12781
 21
-2.34976
  0
LINE
  8
0
 10
-4.12781
 20
-2.34976
 11
-4.00751
 21
-2.05904
  0
LINE
  8
0
 10
-4.00751
 20
-2.05904
 11
-3.92084
 21
-1.75703
  0
LINE
  8
0
 10
-3.92084
 20
-1.75703
 11
-3.86801
 21
-1.44829
  0
LINE
  8
0
 10
-3.86801
 20
-1.44829
 11
-3.85039
 21
-1.12926
  0
LINE
  8
0
 10
-3.85039
 20
-1.12926
 11
-3.85039
 21
1.12926
  0
LINE
  8
0
 10
-3.85039
 20
1.12926
 11
-3.86801
 21
1.44829
  0
LINE
  8
0
 10
-3.86801
 20
1.44829
 11
-3.92084
 21
1.75703
  0
LINE
  8
0
 10
-3.92084
 20
1.75703
 11
-4.00751
 21
2.05904
  0
LINE
  8
0
 10
-4.00751
 20
2.05904
 11
-4.12781
 21
2.34976
  0
LINE
  8
0
 10
-4.12781
 20
2.34976
 11
-4.27893
 21
2.62379
  0
LINE
  8
0
 10
-4.27893
 20
2.62379
 11
-4.46127
 21
2.87999
  0
LINE
  8
0
 10
-4.46127
 20
2.87999
 11
-4.6739
 21
3.11861
  0
LINE
  8
0
 10
-4.6739
 20
3.11861
 11
-6.97089
 21
5.41559
  0
LINE
  8
0
 10
-6.97089
 20
5.41559
 11
-7.03096
 21
5.46855
  0
LINE
  8
0
 10
-7.03096
 20
5.46855
 11
-7.09262
 21
5.51039
  0
LINE
  8
0
 10
-7.09262
 20
5.51039
 11
-7.15993
 21
5.54515
  0
LINE
  8
0
 10
-7.15993
 20
5.54515
 11
-7.22931
 21
5.57071
  0
LINE
  8
0
 10
-7.22931
 20
5.57071
 11
-7.30121
 21
5.58742
  0
LINE
  8
0
 10
-7.30121
 20
5.58742
 11
-7.37498
 21
5.59473
  0
LINE
  8
0
 10
-7.37498
 20
5.59473
 11
-7.44913
 21
5.59326
  0
LINE
  8
0
 10
-7.44913
 20
5.59326
 11
-7.52397
 21
5.58214
  0
LINE
  8
0
 10
-7.52397
 20
5.58214
 11
-7.59557
 21
5.56314
  0
LINE
  8
0
 10
-7.59557
 20
5.56314
 11
-7.66302
 21
5.53485
  0
LINE
  8
0
 10
-7.66302
 20
5.53485
 11
-7.72826
 21
5.49821
  0
LINE
  8
0
 10
-7.72826
 20
5.49821
 11
-7.78709
 21
5.4539
  0
LINE
  8
0
 10
-7.78709
 20
5.4539
 11
-7.84077
 21
5.40242
  0
LINE
  8
0
 10
-7.84077
 20
5.40242
 11
-7.88786
 21
5.3443
  0
LINE
  8
0
 10
-7.88786
 20
5.3443
 11
-7.92757
 21
5.28108
  0
LINE
  8
0
 10
-7.92757
 20
5.28108
 11
-7.95889
 21
5.21404
  0
LINE
  8
0
 10
-7.95889
 20
5.21404
 11
-7.98155
 21
5.14314
  0
LINE
  8
0
 10
-7.98155
 20
5.14314
 11
-7.99545
 21
5.06998
  0
LINE
  8
0
 10
-7.99545
 20
5.06998
 11
-8.0002
 21
4.99014
  0
LINE
  8
0
 10
-8.0002
 20
4.99014
 11
-8.0002
 21
2.7998
  0
LINE
  8
0
 10
-8.0002
 20
2.7998
 11
-8.00244
 21
2.75288
  0
LINE
  8
0
 10
-8.00244
 20
2.75288
 11
-8.00583
 21
2.72549
  0
LINE
  8
0
 10
-8.00583
 20
2.72549
 11
-8.01266
 21
2.69034
  0
LINE
  8
0
 10
-8.01266
 20
2.69034
 11
-8.02846
 21
2.63492
  0
LINE
  8
0
 10
-8.02846
 20
2.63492
 11
-8.05139
 21
2.57942
  0
LINE
  8
0
 10
-8.05139
 20
2.57942
 11
-8.06386
 21
2.55565
  0
LINE
  8
0
 10
-8.06386
 20
2.55565
 11
-8.08241
 21
2.52538
  0
LINE
  8
0
 10
-8.08241
 20
2.52538
 11
-8.11667
 21
2.4789
  0
LINE
  8
0
 10
-8.11667
 20
2.4789
 11
-8.15936
 21
2.43378
  0
LINE
  8
0
 10
-8.15936
 20
2.43378
 11
-8.20482
 21
2.39604
  0
LINE
  8
0
 10
-8.20482
 20
2.39604
 11
-8.22699
 21
2.38077
  0
LINE
  8
0
 10
-8.22699
 20
2.38077
 11
-8.25824
 21
2.36221
  0
LINE
  8
0
 10
-8.25824
 20
2.36221
 11
-8.31282
 21
2.33655
  0
LINE
  8
0
 10
-8.31282
 20
2.33655
 11
-8.36777
 21
2.31799
  0
LINE
  8
0
 10
-8.36777
 20
2.31799
 11
-8.42668
 21
2.30544
  0
LINE
  8
0
 10
-8.42668
 20
2.30544
 11
-8.45308
 21
2.30225
  0
LINE
  8
0
 10
-8.45308
 20
2.30225
 11
-8.48921
 21
2.30029
  0
LINE
  8
0
 10
-8.48921
 20
2.30029
 11
-9.2002
 21
2.3
  0
LINE
  8
0
 10
-9.2002
 20
2.3
 11
-9.30898
 21
2.30623
  0
LINE
  8
0
 10
-9.30898
 20
2.30623
 11
-9.33336
 21
2.30922
  0
LINE
  8
0
 10
-9.33336
 20
2.30922
 11
-9.42809
 21
2.3268
  0
LINE
  8
0
 10
-9.42809
 20
2.3268
 11
-9.45056
 21
2.33232
  0
LINE
  8
0
 10
-9.45056
 20
2.33232
 11
-9.54236
 21
2.36064
  0
LINE
  8
0
 10
-9.54236
 20
2.36064
 11
-9.56555
 21
2.36942
  0
LINE
  8
0
 10
-9.56555
 20
2.36942
 11
-9.65442
 21
2.40945
  0
LINE
  8
0
 10
-9.65442
 20
2.40945
 11
-9.67606
 21
2.42084
  0
LINE
  8
0
 10
-9.67606
 20
2.42084
 11
-9.75809
 21
2.47064
  0
LINE
  8
0
 10
-9.75809
 20
2.47064
 11
-9.77751
 21
2.48405
  0
LINE
  8
0
 10
-9.77751
 20
2.48405
 11
-9.85368
 21
2.54362
  0
LINE
  8
0
 10
-9.85368
 20
2.54362
 11
-9.87189
 21
2.55975
  0
LINE
  8
0
 10
-9.87189
 20
2.55975
 11
-9.94025
 21
2.62811
  0
LINE
  8
0
 10
-9.94025
 20
2.62811
 11
-9.95638
 21
2.64632
  0
LINE
  8
0
 10
-9.95638
 20
2.64632
 11
-10.0159
 21
2.72249
  0
LINE
  8
0
 10
-10.0159
 20
2.72249
 11
-10.0294
 21
2.74191
  0
LINE
  8
0
 10
-10.0294
 20
2.74191
 11
-10.0792
 21
2.82394
  0
LINE
  8
0
 10
-10.0792
 20
2.82394
 11
-10.0905
 21
2.84558
  0
LINE
  8
0
 10
-10.0905
 20
2.84558
 11
-10.1306
 21
2.93445
  0
LINE
  8
0
 10
-10.1306
 20
2.93445
 11
-10.1394
 21
2.95764
  0
LINE
  8
0
 10
-10.1394
 20
2.95764
 11
-10.1677
 21
3.04944
  0
LINE
  8
0
 10
-10.1677
 20
3.04944
 11
-10.1732
 21
3.07191
  0
LINE
  8
0
 10
-10.1732
 20
3.07191
 11
-10.1908
 21
3.16664
  0
LINE
  8
0
 10
-10.1908
 20
3.16664
 11
-10.1938
 21
3.19102
  0
LINE
  8
0
 10
-10.1938
 20
3.19102
 11
-10.1996
 21
3.2877
  0
LINE
  8
0
 10
-10.1996
 20
3.2877
 11
-10.2
 21
8
  0
LINE
  8
0
 10
-10.2
 20
8
 11
-10.185
 21
8.25334
  0
LINE
  8
0
 10
-10.185
 20
8.25334
 11
-10.182
 21
8.27763
  0
LINE
  8
0
 10
-10.182
 20
8.27763
 11
-10.1381
 21
8.51494
  0
LINE
  8
0
 10
-10.1381
 20
8.51494
 11
-10.1325
 21
8.53761
  0
LINE
  8
0
 10
-10.1325
 20
8.53761
 11
-10.0612
 21
8.76808
  0
LINE
  8
0
 10
-10.0612
 20
8.76808
 11
-10.0524
 21
8.79126
  0
LINE
  8
0
 10
-10.0524
 20
8.79126
 11
-9.9528
 21
9.01196
  0
LINE
  8
0
 10
-9.9528
 20
9.01196
 11
-9.9415
 21
9.03342
  0
LINE
  8
0
 10
-9.9415
 20
9.03342
 11
-9.8165
 21
9.23947
  0
LINE
  8
0
 10
-9.8165
 20
9.23947
 11
-9.80325
 21
9.2587
  0
LINE
  8
0
 10
-9.80325
 20
9.2587
 11
-9.65482
 21
9.44913
  0
LINE
  8
0
 10
-9.65482
 20
9.44913
 11
-9.63849
 21
9.46759
  0
LINE
  8
0
 10
-9.63849
 20
9.46759
 11
-9.46759
 21
9.63849
  0
LINE
  8
0
 10
-9.46759
 20
9.63849
 11
-9.44913
 21
9.65482
  0
LINE
  8
0
 10
-9.44913
 20
9.65482
 11
-9.2587
 21
9.80325
  0
LINE
  8
0
 10
-9.2587
 20
9.80325
 11
-9.23947
 21
9.8165
  0
LINE
  8
0
 10
-9.23947
 20
9.8165
 11
-9.03342
 21
9.9415
  0
LINE
  8
0
 10
-9.03342
 20
9.9415
 11
-9.01196
 21
9.9528
  0
LINE
  8
0
 10
-9.01196
 20
9.9528
 11
-8.79126
 21
10.0524
  0
LINE
  8
0
 10
-8.79126
 20
10.0524
 11
-8.76808
 21
10.0612
  0
LINE
  8
0
 10
-8.76808
 20
10.0612
 11
-8.53761
 21
10.1325
  0
LINE
  8
0
 10
-8.53761
 20
10.1325
 11
-8.51494
 21
10.1381
  0
LINE
  8
0
 10
-8.51494
 20
10.1381
 11
-8.27763
 21
10.182
  0
LINE
  8
0
 10
-8.27763
 20
10.182
 11
-8.25334
 21
10.185
  0
LINE
  8
0
 10
-8.25334
 20
10.185
 11
-8.01213
 21
10.1996
  0
LINE
  8
0
 10
-8.01213
 20
10.1996
 11
-3.2998
 21
10.2
  0
LINE
  8
0
 10
-3.2998
 20
10.2
 11
-3.19102
 21
10.1938
  0
LINE
  8
0
 10
-3.19102
 20
10.1938
 11
-3.16664
 21
10.1908
  0
LINE
  8
0
 10
-3.16664
 20
10.1908
 11
-3.07191
 21
10.1732
  0
LINE
  8
0
 10
-3.07191
 20
10.1732
 11
-3.04944
 21
10.1677
  0
LINE
  8
0
 10
-3.04944
 20
10.1677
 11
-2.95764
 21
10.1394
  0
LINE
  8
0
 10
-2.95764
 20
10.1394
 11
-2.93445
 21
10.1306
  0
LINE
  8
0
 10
-2.93445
 20
10.1306
 11
-2.84558
 21
10.0905
  0
LINE
  8
0
 10
-2.84558
 20
10.0905
 11
-2.82394
 21
10.0792
  0
LINE
  8
0
 10
-2.82394
 20
10.0792
 11
-2.74191
 21
10.0294
  0
LINE
  8
0
 10
-2.74191
 20
10.0294
 11
-2.72249
 21
10.0159
  0
LINE
  8
0
 10
-2.72249
 20
10.0159
 11
-2.64632
 21
9.95638
  0
LINE
  8
0
 10
-2.64632
 20
9.95638
 11
-2.62811
 21
9.94025
  0
LINE
  8
0
 10
-2.62811
 20
9.94025
 11
-2.55975
 21
9.87189
  0
LINE
  8
0
 10
-2.55975
 20
9.87189
 11
-2.54362
 21
9.85368
  0
LINE
  8
0
 10
-2.54362
 20
9.85368
 11
-2.48405
 21
9.77751
  0
LINE
  8
0
 10
-2.48405
 20
9.77751
 11
-2.47064
 21
9.75809
  0
LINE
  8
0
 10
-2.47064
 20
9.75809
 11
-2.42084
 21
9.67606
  0
LINE
  8
0
 10
-2.42084
 20
9.67606
 11
-2.40945
 21
9.65442
  0
LINE
  8
0
 10
-2.40945
 20
9.65442
 11
-2.36942
 21
9.56555
  0
LINE
  8
0
 10
-2.36942
 20
9.56555
 11
-2.36064
 21
9.54236
  0
LINE
  8
0
 10
-2.36064
 20
9.54236
 11
-2.33232
 21
9.45056
  0
LINE
  8
0
 10
-2.33232
 20
9.45056
 11
-2.3268
 21
9.42809
  0
LINE
  8
0
 10
-2.3268
 20
9.42809
 11
-2.30922
 21
9.33336
  0
LINE
  8
0
 10
-2.30922
 20
9.33336
 11
-2.30623
 21
9.30898
  0
LINE
  8
0
 10
-2.30623
 20
9.30898
 11
-2.30037
 21
9.2123
  0
LINE
  8
0
 10
-2.30037
 20
9.2123
 11
-2.3
 21
8.5
  0
LINE
  8
0
 10
-2.3
 20
8.5
 11
-2.30225
 21
8.45308
  0
LINE
  8
0
 10
-2.30225
 20
8.45308
 11
-2.30544
 21
8.42668
  0
LINE
  8
0
 10
-2.30544
 20
8.42668
 11
-2.31227
 21
8.39055
  0
LINE
  8
0
 10
-2.31227
 20
8.39055
 11
-2.32874
 21
8.33359
  0
LINE
  8
0
 10
-2.32874
 20
8.33359
 11
-2.3512
 21
8.27962
  0
LINE
  8
0
 10
-2.3512
 20
8.27962
 11
-2.38077
 21
8.22699
  0
LINE
  8
0
 10
-2.38077
 20
8.22699
 11
-2.39604
 21
8.20482
  0
LINE
  8
0
 10
-2.39604
 20
8.20482
 11
-2.43378
 21
8.15936
  0
LINE
  8
0
 10
-2.43378
 20
8.15936
 11
-2.4789
 21
8.11667
  0
LINE
  8
0
 10
-2.4789
 20
8.11667
 11
-2.50819
 21
8.09421
  0
LINE
  8
0
 10
-2.50819
 20
8.09421
 11
-2.55565
 21
8.06386
  0
LINE
  8
0
 10
-2.55565
 20
8.06386
 11
-2.57942
 21
8.05139
  0
LINE
  8
0
 10
-2.57942
 20
8.05139
 11
-2.61263
 21
8.03674
  0
LINE
  8
0
 10
-2.61263
 20
8.03674
 11
-2.67007
 21
8.01772
  0
LINE
  8
0
 10
-2.67007
 20
8.01772
 11
-2.72549
 21
8.00583
  0
LINE
  8
0
 10
-2.72549
 20
8.00583
 11
-2.75288
 21
8.00244
  0
LINE
  8
0
 10
-2.75288
 20
8.00244
 11
-2.78902
 21
8.00049
  0
LINE
  8
0
 10
-2.78902
 20
8.00049
 11
-4.99014
 21
8.0002
  0
LINE
  8
0
 10
-4.99014
 20
8.0002
 11
-5.06998
 21
7.99545
  0
LINE
  8
0
 10
-5.06998
 20
7.99545
 11
-5.14314
 21
7.98155
  0
LINE
  8
0
 10
-5.14314
 20
7.98155
 11
-5.21404
 21
7.95889
  0
LINE
  8
0
 10
-5.21404
 20
7.95889
 11
-5.28108
 21
7.92757
  0
LINE
  8
0
 10
-5.28108
 20
7.92757
 11
-5.3443
 21
7.88786
  0
LINE
  8
0
 10
-5.3443
 20
7.88786
 11
-5.40242
 21
7.84077
  0
LINE
  8
0
 10
-5.40242
 20
7.84077
 11
-5.4539
 21
7.78709
  0
LINE
  8
0
 10
-5.4539
 20
7.78709
 11
-5.49821
 21
7.72826
  0
LINE
  8
0
 10
-5.49821
 20
7.72826
 11
-5.53485
 21
7.66302
  0
LINE
  8
0
 10
-5.53485
 20
7.66302
 11
-5.56354
 21
7.59464
  0
LINE
  8
0
 10
-5.56354
 20
7.59464
 11
-5.58299
 21
7.52405
  0
LINE
  8
0
 10
-5.58299
 20
7.52405
 11
-5.59323
 21
7.4501
  0
LINE
  8
0
 10
-5.59323
 20
7.4501
 11
-5.59473
 21
7.37498
  0
LINE
  8
0
 10
-5.59473
 20
7.37498
 11
-5.58742
 21
7.30121
  0
LINE
  8
0
 10
-5.58742
 20
7.30121
 11
-5.57071
 21
7.22931
  0
LINE
  8
0
 10
-5.57071
 20
7.22931
 11
-5.54515
 21
7.15993
  0
LINE
  8
0
 10
-5.54515
 20
7.15993
 11
-5.51039
 21
7.09262
  0
LINE
  8
0
 10
-5.51039
 20
7.09262
 11
-5.46855
 21
7.03096
  0
LINE
  8
0
 10
-5.46855
 20
7.03096
 11
-5.41559
 21
6.97089
  0
LINE
  8
0
 10
-5.41559
 20
6.97089
 11
-3.11861
 21
4.6739
  0
LINE
  8
0
 10
-3.11861
 20
4.6739
 11
-2.87999
 21
4.46127
  0
LINE
  8
0
 10
-2.87999
 20
4.46127
 11
-2.62379
 21
4.27893
  0
LINE
  8
0
 10
-2.62379
 20
4.27893
 11
-2.34976
 21
4.12781
  0
LINE
  8
0
 10
-2.34976
 20
4.12781
 11
-2.05904
 21
4.00751
  0
LINE
  8
0
 10
-2.05904
 20
4.00751
 11
-1.75703
 21
3.92084
  0
LINE
  8
0
 10
-1.75703
 20
3.92084
 11
-1.44829
 21
3.86801
  0
LINE
  8
0
 10
-1.44829
 20
3.86801
 11
-1.12926
 21
3.85039
  0
LINE
  8
0
 10
-1.12926
 20
3.85039
 11
1.12926
 21
3.85039
  0
LINE
  8
0
 10
1.12926
 20
3.85039
 11
1.44829
 21
3.86801
  0
LINE
  8
0
 10
1.44829
 20
3.86801
 11
1.75703
 21
3.92084
  0
LINE
  8
0
 10
1.75703
 20
3.92084
 11
2.05904
 21
4.00751
  0
LINE
  8
0
 10
2.05904
 20
4.00751
 11
2.34976
 21
4.12781
  0
LINE
  8
0
 10
2.34976
 20
4.12781
 11
2.62379
 21
4.27893
  0
LINE
  8
0
 10
2.62379
 20
4.27893
 11
2.87999
 21
4.46127
  0
LINE
  8
0
 10
2.87999
 20
4.46127
 11
3.11861
 21
4.6739
  0
LINE
  8
0
 10
3.11861
 20
4.6739
 11
5.41559
 21
6.97089
  0
LINE
  8
0
 10
5.41559
 20
6.97089
 11
5.46855
 21
7.03096
  0
LINE
  8
0
 10
5.46855
 20
7.03096
 11
5.51039
 21
7.09262
  0
LINE
  8
0
 10
5.51039
 20
7.09262
 11
5.54515
 21
7.15993
  0
LINE
  8
0
 10
5.54515
 20
7.15993
 11
5.57071
 21
7.22931
  0
LINE
  8
0
 10
5.57071
 20
7.22931
 11
5.58742
 21
7.30121
  0
LINE
  8
0
 10
5.58742
 20
7.30121
 11
5.59473
 21
7.37498
  0
LINE
  8
0
 10
5.59473
 20
7.37498
 11
5.59323
 21
7.4501
  0
LINE
  8
0
 10
5.59323
 20
7.4501
 11
5.58299
 21
7.52405
  0
LINE
  8
0
 10
5.58299
 20
7.52405
 11
5.56354
 21
7.59464
  0
LINE
  8
0
 10
5.56354
 20
7.59464
 11
5.53485
 21
7.66302
  0
LINE
  8
0
 10
5.53485
 20
7.66302
 11
5.49821
 21
7.72826
  0
LINE
  8
0
 10
5.49821
 20
7.72826
 11
5.4539
 21
7.78709
  0
LINE
  8
0
 10
5.4539
 20
7.78709
 11
5.40242
 21
7.84077
  0
LINE
  8
0
 10
5.40242
 20
7.84077
 11
5.3443
 21
7.88786
  0
LINE
  8
0
 10
5.3443
 20
7.88786
 11
5.28108
 21
7.92757
  0
LINE
  8
0
 10
5.28108
 20
7.92757
 11
5.21404
 21
7.95889
  0
LINE
  8
0
 10
5.21404
 20
7.95889
 11
5.14314
 21
7.98155
  0
LINE
  8
0
 10
5.14314
 20
7.98155
 11
5.06998
 21
7.99545
  0
LINE
  8
0
 10
5.06998
 20
7.99545
 11
4.99014
 21
8.0002
  0
LINE
  8
0
 10
4.99014
 20
8.0002
 11
2.7998
 21
8.0002
  0
LINE
  8
0
 10
2.7998
 20
8.0002
 11
2.75288
 21
8.00244
  0
LINE
  8
0
 10
2.75288
 20
8.00244
 11
2.72549
 21
8.00583
  0
LINE
  8
0
 10
2.72549
 20
8.00583
 11
2.69034
 21
8.01266
  0
LINE
  8
0
 10
2.69034
 20
8.01266
 11
2.63492
 21
8.02846
  0
LINE
  8
0
 10
2.63492
 20
8.02846
 11
2.57942
 21
8.05139
  0
LINE
  8
0
 10
2.57942
 20
8.05139
 11
2.55565
 21
8.06386
  0
LINE
  8
0
 10
2.55565
 20
8.06386
 11
2.52538
 21
8.08241
  0
LINE
  8
0
 10
2.52538
 20
8.08241
 11
2.4789
 21
8.11667
  0
LINE
  8
0
 10
2.4789
 20
8.11667
 11
2.43378
 21
8.15936
  0
LINE
  8
0
 10
2.43378
 20
8.15936
 11
2.39604
 21
8.20482
  0
LINE
  8
0
 10
2.39604
 20
8.20482
 11
2.38077
 21
8.22699
  0
LINE
  8
0
 10
2.38077
 20
8.22699
 11
2.36221
 21
8.25824
  0
LINE
  8
0
 10
2.36221
 20
8.25824
 11
2.33655
 21
8.31282
  0
LINE
  8
0
 10
2.33655
 20
8.31282
 11
2.31799
 21
8.36777
  0
LINE
  8
0
 10
2.31799
 20
8.36777
 11
2.30544
 21
8.42668
  0
LINE
  8
0
 10
2.30544
 20
8.42668
 11
2.30225
 21
8.45308
  0
LINE
  8
0
 10
2.30225
 20
8.45308
 11
2.30029
 21
8.48921
  0
LINE
  8
0
 10
2.30029
 20
8.48921
 11
2.3
 21
9.2002
  0
LINE
  8
0
 10
2.3
 20
9.2002
 11
2.30623
 21
9.30898
  0
LINE
  8
0
 10
2.30623
 20
9.30898
 11
2.30922
 21
9.33336
  0
LINE
  8
0
 10
2.30922
 20
9.33336
 11
2.3268
 21
9.42809
  0
LINE
  8
0
 10
2.3268
 20
9.42809
 11
2.33232
 21
9.45056
  0
LINE
  8
0
 10
2.33232
 20
9.45056
 11
2.36064
 21
9.54236
  0
LINE
  8
0
 10
2.36064
 20
9.54236
 11
2.36942
 21
9.56555
  0
LINE
  8
0
 10
2.36942
 20
9.56555
 11
2.40945
 21
9.65442
  0
LINE
  8
0
 10
2.40945
 20
9.65442
 11
2.42084
 21
9.67606
  0
LINE
  8
0
 10
2.42084
 20
9.67606
 11
2.47064
 21
9.75809
  0
LINE
  8
0
 10
2.47064
 20
9.75809
 11
2.48405
 21
9.77751
  0
LINE
  8
0
 10
2.48405
 20
9.77751
 11
2.54362
 21
9.85368
  0
LINE
  8
0
 10
2.54362
 20
9.85368
 11
2.55975
 21
9.87189
  0
LINE
  8
0
 10
2.55975
 20
9.87189
 11
2.62811
 21
9.94025
  0
LINE
  8
0
 10
2.62811
 20
9.94025
 11
2.64632
 21
9.95638
  0
LINE
  8
0
 10
2.64632
 20
9.95638
 11
2.72249
 21
10.0159
  0
LINE
  8
0
 10
2.72249
 20
10.0159
 11
2.74191
 21
10.0294
  0
LINE
  8
0
 10
2.74191
 20
10.0294
 11
2.82394
 21
10.0792
  0
LINE
  8
0
 10
2.82394
 20
10.0792
 11
2.84558
 21
10.0905
  0
LINE
  8
0
 10
2.84558
 20
10.0905
 11
2.93445
 21
10.1306
  0
LINE
  8
0
 10
2.93445
 20
10.1306
 11
2.95764
 21
10.1394
  0
LINE
  8
0
 10
2.95764
 20
10.1394
 11
3.04944
 21
10.1677
  0
LINE
  8
0
 10
3.04944
 20
10.1677
 11
3.07191
 21
10.1732
  0
LINE
  8
0
 10
3.07191
 20
10.1732
 11
3.16664
 21
10.1908
  0
LINE
  8
0
 10
3.16664
 20
10.1908
 11
3.19102
 21
10.1938
  0
LINE
  8
0
 10
3.19102
 20
10.1938
 11
3.2877
 21
10.1996
  0
LINE
  8
0
 10
3.2877
 20
10.1996
 11
8
 21
10.2
  0
LINE
  8
0
 10
8
 20
10.2
 11
8.25334
 21
10.185
  0
LINE
  8
0
 10
8.25334
 20
10.185
 11
8.27763
 21
10.182
  0
LINE
  8
0
 10
8.27763
 20
10.182
 11
8.51494
 21
10.1381
  0
LINE
  8
0
 10
8.51494
 20
10.1381
 11
8.53761
 21
10.1325
  0
LINE
  8
0
 10
8.53761
 20
10.1325
 11
8.76808
 21
10.0612
  0
LINE
  8
0
 10
8.76808
 20
10.0612
 11
8.79126
 21
10.0524
  0
LINE
  8
0
 10
8.79126
 20
10.0524
 11
9.01196
 21
9.9528
  0
LINE
  8
0
 10
9.01196
 20
9.9528
 11
9.03342
 21
9.9415
  0
LINE
  8
0
 10
9.03342
 20
9.9415
 11
9.23947
 21
9.8165
  0
LINE
  8
0
 10
9.23947
 20
9.8165
 11
9.2587
 21
9.80325
  0
LINE
  8
0
 10
9.2587
 20
9.80325
 11
9.44913
 21
9.65482
  0
LINE
  8
0
 10
9.44913
 20
9.65482
 11
9.46759
 21
9.63849
  0
LINE
  8
0
 10
9.46759
 20
9.63849
 11
9.63849
 21
9.46759
  0
LINE
  8
0
 10
9.63849
 20
9.46759
 11
9.65482
 21
9.44913
  0
LINE
  8
0
 10
9.65482
 20
9.44913
 11
9.80325
 21
9.2587
  0
LINE
  8
0
 10
9.80325
 20
9.2587
 11
9.8165
 21
9.23947
  0
LINE
  8
0
 10
9.8165
 20
9.23947
 11
9.9415
 21
9.03342
  0
LINE
  8
0
 10
9.9415
 20
9.03342
 11
9.9528
 21
9.01196
  0
LINE
  8
0
 10
9.9528
 20
9.01196
 11
10.0524
 21
8.79126
  0
LINE
  8
0
 10
10.0524
 20
8.79126
 11
10.0612
 21
8.76808
  0
LINE
  8
0
 10
10.0612
 20
8.76808
 11
10.1325
 21
8.53761
  0
LINE
  8
0
 10
10.1325
 20
8.53761
 11
10.1381
 21
8.51494
  0
LINE
  8
0
 10
10.1381
 20
8.51494
 11
10.182
 21
8.27763
  0
LINE
  8
0
 10
10.182
 20
8.27763
 11
10.185
 21
8.25334
  0
LINE
  8
0
 10
10.185
 20
8.25334
 11
10.1996
 21
8.01213
  0
LINE
  8
0
 10
10.1996
 20
8.01213
 11
10.2
 21
3.2998
  0
LINE
  8
0
 10
10.2
 20
3.2998
 11
10.1938
 21
3.19102
  0
LINE
  8
0
 10
10.1938
 20
3.19102
 11
10.1908
 21
3.16664
  0
LINE
  8
0
 10
10.1908
 20
3.16664
 11
10.1732
 21
3.07191
  0
LINE
  8
0
 10
10.1732
 20
3.07191
 11
10.1677
 21
3.04944
  0
LINE
  8
0
 10
10.1677
 20
3.04944
 11
10.1394
 21
2.95764
  0
LINE
  8
0
 10
10.1394
 20
2.95764
 11
10.1306
 21
2.93445
  0
LINE
  8
0
 10
10.1306
 20
2.93445
 11
10.0905
 21
2.84558
  0
LINE
  8
0
 10
10.0905
 20
2.84558
 11
10.0792
 21
2.82394
  0
LINE
  8
0
 10
10.0792
 20
2.82394
 11
10.0294
 21
2.74191
  0
LINE
  8
0
 10
10.0294
 20
2.74191
 11
10.0159
 21
2.72249
  0
LINE
  8
0
 10
10.0159
 20
2.72249
 11
9.95638
 21
2.64632
  0
LINE
  8
0
 10
9.95638
 20
2.64632
 11
9.94025
 21
2.62811
  0
LINE
  8
0
 10
9.94025
 20
2.62811
 11
9.87189
 21
2.55975
  0
LINE
  8
0
 10
9.87189
 20
2.55975
 11
9.85368
 21
2.54362
  0
LINE
  8
0
 10
9.85368
 20
2.54362
 11
9.77751
 21
2.48405
  0
LINE
  8
0
 10
9.77751
 20
2.48405
 11
9.75809
 21
2.47064
  0
LINE
  8
0
 10
9.75809
 20
2.47064
 11
9.67606
 21
2.42084
  0
LINE
  8
0
 10
9.67606
 20
2.42084
 11
9.65442
 21
2.40945
  0
LINE
  8
0
 10
9.65442
 20
2.40945
 11
9.56555
 21
2.36942
  0
LINE
  8
0
 10
9.56555
 20
2.36942
 11
9.54236
 21
2.36064
  0
LINE
  8
0
 10
9.54236
 20
2.36064
 11
9.45056
 21
2.33232
  0
LINE
  8
0
 10
9.45056
 20
2.33232
 11
9.42809
 21
2.3268
  0
LINE
  8
0
 10
9.42809
 20
2.3268
 11
9.33336
 21
2.30922
  0
LINE
  8
0
 10
9.33336
 20
2.30922
 11
9.30898
 21
2.30623
  0
LINE
  8
0
 10
9.30898
 20
2.30623
 11
9.2123
 21
2.30037
  0
LINE
  8
0
 10
9.2123
 20
2.30037
 11
8.5
 21
2.3
  0
LINE
  8
0
 10
8.5
 20
2.3
 11
8.45308
 21
2.30225
  0
LINE
  8
0
 10
8.45308
 20
2.30225
 11
8.42668
 21
2.30544
  0
LINE
  8
0
 10
8.42668
 20
2.30544
 11
8.39055
 21
2.31227
  0
LINE
  8
0
 10
8.39055
 20
2.31227
 11
8.33359
 21
2.32874
  0
LINE
  8
0
 10
8.33359
 20
2.32874
 11
8.27962
 21
2.3512
  0
LINE
  8
0
 10
8.27962
 20
2.3512
 11
8.22699
 21
2.38077
  0
LINE
  8
0
 10
8.22699
 20
2.38077
 11
8.20482
 21
2.39604
  0
LINE
  8
0
 10
8.20482
 20
2.39604
 11
8.15936
 21
2.43378
  0
LINE
  8
0
 10
8.15936
 20
2.43378
 11
8.11667
 21
2.4789
  0
LINE
  8
0
 10
8.11667
 20
2.4789
 11
8.09421
 21
2.50819
  0
LINE
  8
0
 10
8.09421
 20
2.50819
 11
8.06386
 21
2.55565
  0
LINE
  8
0
 10
8.06386
 20
2.55565
 11
8.05139
 21
2.57942
  0
LINE
  8
0
 10
8.05139
 20
2.57942
 11
8.03674
 21
2.61263
  0
LINE
  8
0
 10
8.03674
 20
2.61263
 11
8.01772
 21
2.67007
  0
LINE
  8
0
 10
8.01772
 20
2.67007
 11
8.00583
 21
2.72549
  0
LINE
  8
0
 10
8.00583
 20
2.72549
 11
8.00244
 21
2.75288
  0
LINE
  8
0
 10
8.00244
 20
2.75288
 11
8.00049
 21
2.78902
  0
LINE
  8
0
 10
8.00049
 20
2.78902
 11
8.0002
 21
4.99014
  0
LINE
  8
0
 10
8.0002
 20
4.99014
 11
7.99545
 21
5.06998
  0
LINE
  8
0
 10
7.99545
 20
5.06998
 11
7.98155
 21
5.14314
  0
LINE
  8
0
 10
7.98155
 20
5.14314
 11
7.95889
 21
5.21404
  0
LINE
  8
0
 10
7.95889
 20
5.21404
 11
7.92757
 21
5.28108
  0
LINE
  8
0
 10
7.92757
 20
5.28108
 11
7.88786
 21
5.3443
  0
LINE
  8
0
 10
7.88786
 20
5.3443
 11
7.84077
 21
5.40242
  0
LINE
  8
0
 10
7.84077
 20
5.40242
 11
7.78709
 21
5.4539
  0
LINE
  8
0
 10
7.78709
 20
5.4539
 11
7.72826
 21
5.49821
  0
LINE
  8
0
 10
7.72826
 20
5.49821
 11
7.66302
 21
5.53485
  0
LINE
  8
0
 10
7.66302
 20
5.53485
 11
7.59557
 21
5.56314
  0
LINE
  8
0
 10
7.59557
 20
5.56314
 11
7.52397
 21
5.58214
  0
LINE
  8
0
 10
7.52397
 20
5.58214
 11
7.44913
 21
5.59326
  0
LINE
  8
0
 10
7.44913
 20
5.59326
 11
7.37498
 21
5.59473
  0
LINE
  8
0
 10
7.37498
 20
5.59473
 11
7.30121
 21
5.58742
  0
LINE
  8
0
 10
7.30121
 20
5.58742
 11
7.22931
 21
5.57071
  0
LINE
  8
0
 10
7.22931
 20
5.57071
 11
7.15993
 21
5.54515
  0
LINE
  8
0
 10
7.15993
 20
5.54515
 11
7.09262
 21
5.51039
  0
LINE
  8
0
 10
7.09262
 20
5.51039
 11
7.03096
 21
5.46855
  0
LINE
  8
0
 10
7.03096
 20
5.46855
 11
6.97089
 21
5.41559
  0
LINE
  8
0
 10
6.97089
 20
5.41559
 11
4.6739
 21
3.11861
  0
LINE
  8
0
 10
4.6739
 20
3.11861
 11
4.46127
 21
2.87999
  0
LINE
  8
0
 10
4.46127
 20
2.87999
 11
4.27893
 21
2.62379
  0
LINE
  8
0
 10
4.27893
 20
2.62379
 11
4.12781
 21
2.34976
  0
LINE
  8
0
 10
4.12781
 20
2.34976
 11
4.00751
 21
2.05904
  0
LINE
  8
0
 10
4.00751
 20
2.05904
 11
3.92084
 21
1.75703
  0
LINE
  8
0
 10
3.92084
 20
1.75703
 11
3.86801
 21
1.44829
  0
LINE
  8
0
 10
3.86801
 20
1.44829
 11
3.85039
 21
1.12926
  0
LINE
  8
0
 10
3.85039
 20
1.12926
 11
3.85039
 21
-1.12926
  0
LINE
  8
0
 10
3.85039
 20
-1.12926
 11
3.86801
 21
-1.44829
  0
LINE
  8
0
 10
3.86801
 20
-1.44829
 11
3.92084
 21
-1.75703
  0
LINE
  8
0
 10
3.92084
 20
-1.75703
 11
4.00751
 21
-2.05904
  0
LINE
  8
0
 10
4.00751
 20
-2.05904
 11
4.12781
 21
-2.34976
  0
LINE
  8
0
 10
4.12781
 20
-2.34976
 11
4.27893
 21
-2.62379
  0
LINE
  8
0
 10
4.27893
 20
-2.62379
 11
4.46127
 21
-2.87999
  0
LINE
  8
0
 10
4.46127
 20
-2.87999
 11
4.6739
 21
-3.11861
  0
LINE
  8
0
 10
4.6739
 20
-3.11861
 11
6.97089
 21
-5.41559
  0
LINE
  8
0
 10
6.97089
 20
-5.41559
 11
7.03096
 21
-5.46855
  0
LINE
  8
0
 10
7.03096
 20
-5.46855
 11
7.09262
 21
-5.51039
  0
LINE
  8
0
 10
7.09262
 20
-5.51039
 11
7.15993
 21
-5.54515
  0
LINE
  8
0
 10
7.15993
 20
-5.54515
 11
7.22931
 21
-5.57071
  0
LINE
  8
0
 10
7.22931
 20
-5.57071
 11
7.30121
 21
-5.58742
  0
LINE
  8
0
 10
7.30121
 20
-5.58742
 11
7.37498
 21
-5.59473
  0
LINE
  8
0
 10
7.37498
 20
-5.59473
 11
7.44913
 21
-5.59326
  0
LINE
  8
0
 10
7.44913
 20
-5.59326
 11
7.52397
 21
-5.58214
  0
LINE
  8
0
 10
7.52397
 20
-5.58214
 11
7.59557
 21
-5.56314
  0
LINE
  8
0
 10
7.59557
 20
-5.56314
 11
7.66302
 21
-5.53485
  0
LINE
  8
0
 10
7.66302
 20
-5.53485
 11
7.72826
 21
-5.49821
  0
LINE
  8
0
 10
7.72826
 20
-5.49821
 11
7.78709
 21
-5.4539
  0
LINE
  8
0
 10
7.78709
 20
-5.4539
 11
7.84077
 21
-5.40242
  0
LINE
  8
0
 10
7.84077
 20
-5.40242
 11
7.88786
 21
-5.3443
  0
LINE
  8
0
 10
7.88786
 20
-5.3443
 11
7.92757
 21
-5.28108
  0
LINE
  8
0
 10
7.92757
 20
-5.28108
 11
7.95889
 21
-5.21404
  0
LINE
  8
0
 10
7.95889
 20
-5.21404
 11
7.98155
 21
-5.14314
  0
LINE
  8
0
 10
7.98155
 20
-5.14314
 11
7.99545
 21
-5.06998
  0
LINE
  8
0
 10
7.99545
 20
-5.06998
 11
8.0002
 21
-4.99014
  0
LINE
  8
0
 10
8.0002
 20
-4.99014
 11
8.0002
 21
-2.7998
  0
LINE
  8
0
 10
8.0002
 20
-2.7998
 11
8.00244
 21
-2.75288
  0
LINE
  8
0
 10
8.00244
 20
-2.75288
 11
8.00583
 21
-2.72549
  0
LINE
  8
0
 10
8.00583
 20
-2.72549
 11
8.01266
 21
-2.69034
  0
LINE
  8
0
 10
8.01266
 20
-2.69034
 11
8.02846
 21
-2.63492
  0
LINE
  8
0
 10
8.02846
 20
-2.63492
 11
8.05139
 21
-2.57942
  0
LINE
  8
0
 10
8.05139
 20
-2.57942
 11
8.06386
 21
-2.55565
  0
LINE
  8
0
 10
8.06386
 20
-2.55565
 11
8.08241
 21
-2.52538
  0
LINE
  8
0
 10
8.08241
 20
-2.52538
 11
8.11667
 21
-2.4789
  0
LINE
  8
0
 10
8.11667
 20
-2.4789
 11
8.15936
 21
-2.43378
  0
LINE
  8
0
 10
8.15936
 20
-2.43378
 11
8.20482
 21
-2.39604
  0
LINE
  8
0
 10
8.20482
 20
-2.39604
 11
8.22699
 21
-2.38077
  0
LINE
  8
0
 10
8.22699
 20
-2.38077
 11
8.25824
 21
-2.36221
  0
LINE
  8
0
 10
8.25824
 20
-2.36221
 11
8.31282
 21
-2.33655
  0
LINE
  8
0
 10
8.31282
 20
-2.33655
 11
8.36777
 21
-2.31799
  0
LINE
  8
0
 10
8.36777
 20
-2.31799
 11
8.42668
 21
-2.30544
  0
LINE
  8
0
 10
8.42668
 20
-2.30544
 11
8.45308
 21
-2.30225
  0
LINE
  8
0
 10
8.45308
 20
-2.30225
 11
8.48921
 21
-2.30029
  0
LINE
  8
0
 10
8.48921
 20
-2.30029
 11
9.2002
 21
-2.3
  0
LINE
  8
0
 10
9.2002
 20
-2.3
 11
9.30898
 21
-2.30623
  0
LINE
  8
0
 10
9.30898
 20
-2.30623
 11
9.33336
 21
-2.30922
  0
LINE
  8
0
 10
9.33336
 20
-2.30922
 11
9.42809
 21
-2.3268
  0
LINE
  8
0
 10
9.42809
 20
-2.3268
 11
9.45056
 21
-2.33232
  0
LINE
  8
0
 10
9.45056
 20
-2.33232
 11
9.54236
 21
-2.36064
  0
LINE
  8
0
 10
9.54236
 20
-2.36064
 11
9.56555
 21
-2.36942
  0
LINE
  8
0
 10
9.56555
 20
-2.36942
 11
9.65442
 21
-2.40945
  0
LINE
  8
0
 10
9.65442
 20
-2.40945
 11
9.67606
 21
-2.42084
  0
LINE
  8
0
 10
9.67606
 20
-2.42084
 11
9.75809
 21
-2.47064
  0
LINE
  8
0
 10
9.75809
 20
-2.47064
 11
9.77751
 21
-2.48405
  0
LINE
  8
0
 10
9.77751
 20
-2.48405
 11
9.85368
 21
-2.54362
  0
LINE
  8
0
 10
9.85368
 20
-2.54362
 11
9.87189
 21
-2.55975
  0
LINE
  8
0
 10
9.87189
 20
-2.55975
 11
9.94025
 21
-2.62811
  0
LINE
  8
0
 10
9.94025
 20
-2.62811
 11
9.95638
 21
-2.64632
  0
LINE
  8
0
 10
9.95638
 20
-2.64632
 11
10.0159
 21
-2.72249
  0
LINE
  8
0
 10
10.0159
 20
-2.72249
 11
10.0294
 21
-2.74191
  0
LINE
  8
0
 10
10.0294
 20
-2.74191
 11
10.0792
 21
-2.82394
  0
LINE
  8
0
 10
10.0792
 20
-2.82394
 11
10.0905
 21
-2.84558
  0
LINE
  8
0
 10
10.0905
 20
-2.84558
 11
10.1306
 21
-2.93445
  0
LINE
  8
0
 10
10.1306
 20
-2.93445
 11
10.1394
 21
-2.95764
  0
LINE
  8
0
 10
10.1394
 20
-2.95764
 11
10.1677
 21
-3.04944
  0
LINE
  8
0
 10
10.1677
 20
-3.04944
 11
10.1732
 21
-3.07191
  0
LINE
  8
0
 10
10.1732
 20
-3.07191
 11
10.1908
 21
-3.16664
  0
LINE
  8
0
 10
10.1908
 20
-3.16664
 11
10.1938
 21
-3.19102
  0
LINE
  8
0
 10
10.1938
 20
-3.19102
 11
10.1996
 21
-3.2877
  0
LINE
  8
0
 10
10.1996
 20
-3.2877
 11
10.2
 21
-8
  0
LINE
  8
0
 10
10.2
 20
-8
 11
10.185
 21
-8.25334
  0
LINE
  8
0
 10
10.185
 20
-8.25334
 11
10.182
 21
-8.27763
  0
LINE
  8
0
 10
10.182
 20
-8.27763
 11
10.1381
 21
-8.51494
  0
LINE
  8
0
 10
10.1381
 20
-8.51494
 11
10.1325
 21
-8.53761
  0
LINE
  8
0
 10
10.1325
 20
-8.53761
 11
10.0612
 21
-8.76808
  0
LINE
  8
0
 10
10.0612
 20
-8.76808
 11
10.0524
 21
-8.79126
  0
LINE
  8
0
 10
10.0524
 20
-8.79126
 11
9.9528
 21
-9.01196
  0
LINE
  8
0
 10
9.9528
 20
-9.01196
 11
9.9415
 21
-9.03342
  0
LINE
  8
0
 10
9.9415
 20
-9.03342
 11
9.8165
 21
-9.23947
  0
LINE
  8
0
 10
9.8165
 20
-9.23947
 11
9.80325
 21
-9.2587
  0
LINE
  8
0
 10
9.80325
 20
-9.2587
 11
9.65482
 21
-9.44913
  0
LINE
  8
0
 10
9.65482
 20
-9.44913
 11
9.63849
 21
-9.46759
  0
LINE
  8
0
 10
9.63849
 20
-9.46759
 11
9.46759
 21
-9.63849
  0
LINE
  8
0
 10
9.46759
 20
-9.63849
 11
9.44913
 21
-9.65482
  0
LINE
  8
0
 10
9.44913
 20
-9.65482
 11
9.2587
 21
-9.80325
  0
LINE
  8
0
 10
9.2587
 20
-9.80325
 11
9.23947
 21
-9.8165
  0
LINE
  8
0
 10
9.23947
 20
-9.8165
 11
9.03342
 21
-9.9415
  0
LINE
  8
0
 10
9.03342
 20
-9.9415
 11
9.01196
 21
-9.9528
  0
LINE
  8
0
 10
9.01196
 20
-9.9528
 11
8.79126
 21
-10.0524
  0
LINE
  8
0
 10
8.79126
 20
-10.0524
 11
8.76808
 21
-10.0612
  0
LINE
  8
0
 10
8.76808
 20
-10.0612
 11
8.53761
 21
-10.1325
  0
LINE
  8
0
 10
8.53761
 20
-10.1325
 11
8.51494
 21
-10.1381
  0
LINE
  8
0
 10
8.51494
 20
-10.1381
 11
8.27763
 21
-10.182
  0
LINE
  8
0
 10
8.27763
 20
-10.182
 11
8.25334
 21
-10.185
  0
LINE
  8
0
 10
8.25334
 20
-10.185
 11
8.01213
 21
-10.1996
  0
LINE
  8
0
 10
8.01213
 20
-10.1996
 11
3.2998
 21
-10.2
  0
LINE
  8
0
 10
3.2998
 20
-10.2
 11
3.19102
 21
-10.1938
  0
LINE
  8
0
 10
3.19102
 20
-10.1938
 11
3.16664
 21
-10.1908
  0
LINE
  8
0
 10
3.16664
 20
-10.1908
 11
3.07191
 21
-10.1732
  0
LINE
  8
0
 10
3.07191
 20
-10.1732
 11
3.04944
 21
-10.1677
  0
LINE
  8
0
 10
3.04944
 20
-10.1677
 11
2.95764
 21
-10.1394
  0
LINE
  8
0
 10
2.95764
 20
-10.1394
 11
2.93445
 21
-10.1306
  0
LINE
  8
0
 10
2.93445
 20
-10.1306
 11
2.84558
 21
-10.0905
  0
LINE
  8
0
 10
2.84558
 20
-10.0905
 11
2.82394
 21
-10.0792
  0
LINE
  8
0
 10
2.82394
 20
-10.0792
 11
2.74191
 21
-10.0294
  0
LINE
  8
0
 10
2.74191
 20
-10.0294
 11
2.72249
 21
-10.0159
  0
LINE
  8
0
 10
2.72249
 20
-10.0159
 11
2.64632
 21
-9.95638
  0
LINE
  8
0
 10
2.64632
 20
-9.95638
 11
2.62811
 21
-9.94025
  0
LINE
  8
0
 10
2.62811
 20
-9.94025
 11
2.55975
 21
-9.87189
  0
LINE
  8
0
 10
2.55975
 20
-9.87189
 11
2.54362
 21
-9.85368
  0
LINE
  8
0
 10
2.54362
 20
-9.85368
 11
2.48405
 21
-9.77751
  0
LINE
  8
0
 10
2.48405
 20
-9.77751
 11
2.47064
 21
-9.75809
  0
LINE
  8
0
 10
2.47064
 20
-9.75809
 11
2.42084
 21
-9.67606
  0
LINE
  8
0
 10
2.42084
 20
-9.67606
 11
2.40945
 21
-9.65442
  0
LINE
  8
0
 10
2.40945
 20
-9.65442
 11
2.36942
 21
-9.56555
  0
LINE
  8
0
 10
2.36942
 20
-9.56555
 11
2.36064
 21
-9.54236
  0
LINE
  8
0
 10
2.36064
 20
-9.54236
 11
2.33232
 21
-9.45056
  0
LINE
  8
0
 10
2.33232
 20
-9.45056
 11
2.3268
 21
-9.42809
  0
LINE
  8
0
 10
2.3268
 20
-9.42809
 11
2.30922
 21
-9.33336
  0
LINE
  8
0
 10
2.30922
 20
-9.33336
 11
2.30623
 21
-9.30898
  0
LINE
  8
0
 10
2.30623
 20
-9.30898
 11
2.30037
 21
-9.2123
  0
LINE
  8
0
 10
2.30037
 20
-9.2123
 11
2.3
 21
-8.5
  0
LINE
  8
0
 10
2.3
 20
-8.5
 11
2.30225
 21
-8.45308
  0
LINE
  8
0
 10
2.30225
 20
-8.45308
 11
2.30544
 21
-8.42668
  0
LINE
  8
0
 10
2.30544
 20
-8.42668
 11
2.31227
 21
-8.39055
  0
LINE
  8
0
 10
2.31227
 20
-8.39055
 11
2.32874
 21
-8.33359
  0
LINE
  8
0
 10
2.32874
 20
-8.33359
 11
2.3512
 21
-8.27962
  0
LINE
  8
0
 10
2.3512
 20
-8.27962
 11
2.38077
 21
-8.22699
  0
LINE
  8
0
 10
2.38077
 20
-8.22699
 11
2.39604
 21
-8.20482
  0
LINE
  8
0
 10
2.39604
 20
-8.20482
 11
2.43378
 21
-8.15936
  0
LINE
  8
0
 10
2.43378
 20
-8.15936
 11
2.4789
 21
-8.11667
  0
LINE
  8
0
 10
2.4789
 20
-8.11667
 11
2.50819
 21
-8.09421
  0
LINE
  8
0
 10
2.50819
 20
-8.09421
 11
2.55565
 21
-8.06386
  0
LINE
  8
0
 10
2.55565
 20
-8.06386
 11
2.57942
 21
-8.05139
  0
LINE
  8
0
 10
2.57942
 20
-8.05139
 11
2.61263
 21
-8.03674
  0
LINE
  8
0
 10
2.61263
 20
-8.03674
 11
2.67007
 21
-8.01772
  0
LINE
  8
0
 10
2.67007
 20
-8.01772
 11
2.72549
 21
-8.00583
  0
LINE
  8
0
 10
2.72549
 20
-8.00583
 11
2.75288
 21
-8.00244
  0
LINE
  8
0
 10
2.75288
 20
-8.00244
 11
2.78902
 21
-8.00049
  0
LINE
  8
0
 10
2.78902
 20
-8.00049
 11
4.99014
 21
-8.0002
  0
LINE
  8
0
 10
4.99014
 20
-8.0002
 11
5.06998
 21
-7.99545
  0
LINE
  8
0
 10
5.06998
 20
-7.99545
 11
5.14314
 21
-7.98155
  0
LINE
  8
0
 10
5.14314
 20
-7.98155
 11
5.21404
 21
-7.95889
  0
LINE
  8
0
 10
5.21404
 20
-7.95889
 11
5.28108
 21
-7.92757
  0
LINE
  8
0
 10
5.28108
 20
-7.92757
 11
5.3443
 21
-7.88786
  0
LINE
  8
0
 10
5.3443
 20
-7.88786
 11
5.40242
 21
-7.84077
  0
LINE
  8
0
 10
5.40242
 20
-7.84077
 11
5.4539
 21
-7.78709
  0
LINE
  8
0
 10
5.4539
 20
-7.78709
 11
5.49821
 21
-7.72826
  0
LINE
  8
0
 10
5.49821
 20
-7.72826
 11
5.53485
 21
-7.66302
  0
LINE
  8
0
 10
5.53485
 20
-7.66302
 11
5.56354
 21
-7.59464
  0
LINE
  8
0
 10
5.56354
 20
-7.59464
 11
5.58299
 21
-7.52405
  0
LINE
  8
0
 10
5.58299
 20
-7.52405
 11
5.59323
 21
-7.4501
  0
LINE
  8
0
 10
5.59323
 20
-7.4501
 11
5.59473
 21
-7.37498
  0
LINE
  8
0
 10
5.59473
 20
-7.37498
 11
5.58742
 21
-7.30121
  0
LINE
  8
0
 10
5.58742
 20
-7.30121
 11
5.57071
 21
-7.22931
  0
LINE
  8
0
 10
5.57071
 20
-7.22931
 11
5.54515
 21
-7.15993
  0
LINE
  8
0
 10
5.54515
 20
-7.15993
 11
5.51039
 21
-7.09262
  0
LINE
  8
0
 10
5.51039
 20
-7.09262
 11
5.46855
 21
-7.03096
  0
LINE
  8
0
 10
5.46855
 20
-7.03096
 11
5.41559
 21
-6.97089
  0
LINE
  8
0
 10
5.41559
 20
-6.97089
 11
3.11861
 21
-4.6739
  0
LINE
  8
0
 10
3.11861
 20
-4.6739
 11
2.87999
 21
-4.46127
  0
LINE
  8
0
 10
2.87999
 20
-4.46127
 11
2.62379
 21
-4.27893
  0
LINE
  8
0
 10
2.62379
 20
-4.27893
 11
2.34976
 21
-4.12781
  0
LINE
  8
0
 10
2.34976
 20
-4.12781
 11
2.05904
 21
-4.00751
  0
LINE
  8
0
 10
2.05904
 20
-4.00751
 11
1.75703
 21
-3.92084
  0
LINE
  8
0
 10
1.75703
 20
-3.92084
 11
1.44829
 21
-3.86801
  0
LINE
  8
0
 10
1.44829
 20
-3.86801
 11
1.12926
 21
-3.85039
  0
LINE
  8
0
 10
1.12926
 20
-3.85039
 11
-1.12926
 21
-3.85039
  0
LINE
  8
0
 10
-1.12926
 20
-3.85039
 11
-1.44829
 21
-3.86801
  0
LINE
  8
0
 10
-1.44829
 20
-3.86801
 11
-1.75703
 21
-3.92084
  0
LINE
  8
0
 10
-1.75703
 20
-3.92084
 11
-2.05904
 21
-4.00751
  0
LINE
  8
0
 10
-2.05904
 20
-4.00751
 11
-2.34976
 21
-4.12781
  0
LINE
  8
0
 10
-2.34976
 20
-4.12781
 11
-2.62379
 21
-4.27893
  0
LINE
  8
0
 10
-2.62379
 20
-4.27893
 11
-2.87999
 21
-4.46127
  0
LINE
  8
0
 10
-2.87999
 20
-4.46127
 11
-3.11861
 21
-4.6739
  0
LINE
  8
0
 10
-3.11861
 20
-4.6739
 11
-5.41559
 21
-6.97089
  0
LINE
  8
0
 10
-5.41559
 20
-6.97089
 11
-5.46855
 21
-7.03096
  0
LINE
  8
0
 10
-5.46855
 20
-7.03096
 11
-5.51039
 21
-7.09262
  0
LINE
  8
0
 10
-5.51039
 20
-7.09262
 11
-5.54515
 21
-7.15993
  0
LINE
  8
0
 10
-5.54515
 20
-7.15993
 11
-5.57071
 21
-7.22931
  0
LINE
  8
0
 10
-5.57071
 20
-7.22931
 11
-5.58742
 21
-7.30121
  0
LINE
  8
0
 10
-5.58742
 20
-7.30121
 11
-5.59473
 21
-7.37498
  0
LINE
  8
0
 10
-5.59473
 20
-7.37498
 11
-5.59323
 21
-7.4501
  0
LINE
  8
0
 10
-5.59323
 20
-7.4501
 11
-5.58299
 21
-7.52405
  0
LINE
  8
0
 10
-5.58299
 20
-7.52405
 11
-5.56354
 21
-7.59464
  0
LINE
  8
0
 10
-5.56354
 20
-7.59464
 11
-5.53485
 21
-7.66302
  0
LINE
  8
0
 10
-5.53485
 20
-7.66302
 11
-5.49821
 21
-7.72826
  0
LINE
  8
0
 10
-5.49821
 20
-7.72826
 11
-5.4539
 21
-7.78709
  0
LINE
  8
0
 10
-5.4539
 20
-7.78709
 11
-5.40242
 21
-7.84077
  0
LINE
  8
0
 10
-5.40242
 20
-7.84077
 11
-5.3443
 21
-7.88786
  0
LINE
  8
0
 10
-5.3443
 20
-7.88786
 11
-5.28108
 21
-7.92757
  0
LINE
  8
0
 10
-5.28108
 20
-7.92757
 11
-5.21404
 21
-7.95889
  0
LINE
  8
0
 10
-5.21404
 20
-7.95889
 11
-5.14314
 21
-7.98155
  0
LINE
  8
0
 10
-5.14314
 20
-7.98155
 11
-5.06998
 21
-7.99545
  0
LINE
  8
0
 10
-5.06998
 20
-7.99545
 11
-4.99014
 21
-8.0002
  0
LINE
  8
0
 10
-4.99014
 20
-8.0002
 11
-2.7998
 21
-8.0002
  0
LINE
  8
0
 10
-2.7998
 20
-8.0002
 11
-2.75288
 21
-8.00244
  0
LINE
  8
0
 10
-2.75288
 20
-8.00244
 11
-2.72549
 21
-8.00583
  0
LINE
  8
0
 10
-2.72549
 20
-8.00583
 11
-2.69034
 21
-8.01266
  0
LINE
  8
0
 10
-2.69034
 20
-8.01266
 11
-2.63492
 21
-8.02846
  0
LINE
  8
0
 10
-2.63492
 20
-8.02846
 11
-2.57942
 21
-8.05139
  0
LINE
  8
0
 10
-2.57942
 20
-8.05139
 11
-2.55565
 21
-8.06386
  0
LINE
  8
0
 10
-2.55565
 20
-8.06386
 11
-2.52538
 21
-8.08241
  0
LINE
  8
0
 10
-2.52538
 20
-8.08241
 11
-2.4789
 21
-8.11667
  0
LINE
  8
0
 10
-2.4789
 20
-8.11667
 11
-2.43378
 21
-8.15936
  0
LINE
  8
0
 10
-2.43378
 20
-8.15936
 11
-2.39604
 21
-8.20482
  0
LINE
  8
0
 10
-2.39604
 20
-8.20482
 11
-2.38077
 21
-8.22699
  0
LINE
  8
0
 10
-2.38077
 20
-8.22699
 11
-2.36221
 21
-8.25824
  0
LINE
  8
0
 10
-2.36221
 20
-8.25824
 11
-2.33655
 21
-8.31282
  0
LINE
  8
0
 10
-2.33655
 20
-8.31282
 11
-2.31799
 21
-8.36777
  0
LINE
  8
0
 10
-2.31799
 20
-8.36777
 11
-2.30544
 21
-8.42668
  0
LINE
  8
0
 10
-2.30544
 20
-8.42668
 11
-2.30225
 21
-8.45308
  0
LINE
  8
0
 10
-2.30225
 20
-8.45308
 11
-2.30029
 21
-8.48921
  0
LINE
  8
0
 10
-2.30029
 20
-8.48921
 11
-2.3
 21
-9.2002
  0
LINE
  8
0
 10
-2.3
 20
-9.2002
 11
-2.30623
 21
-9.30898
  0
LINE
  8
0
 10
-2.30623
 20
-9.30898
 11
-2.30922
 21
-9.33336
  0
LINE
  8
0
 10
-2.30922
 20
-9.33336
 11
-2.3268
 21
-9.42809
  0
LINE
  8
0
 10
-2.3268
 20
-9.42809
 11
-2.33232
 21
-9.45056
  0
LINE
  8
0
 10
-2.33232
 20
-9.45056
 11
-2.36064
 21
-9.54236
  0
LINE
  8
0
 10
-2.36064
 20
-9.54236
 11
-2.36942
 21
-9.56555
  0
LINE
  8
0
 10
-2.36942
 20
-9.56555
 11
-2.40945
 21
-9.65442
  0
LINE
  8
0
 10
-2.40945
 20
-9.65442
 11
-2.42084
 21
-9.67606
  0
LINE
  8
0
 10
-2.42084
 20
-9.67606
 11
-2.47064
 21
-9.75809
  0
LINE
  8
0
 10
-2.47064
 20
-9.75809
 11
-2.48405
 21
-9.77751
  0
LINE
  8
0
 10
-2.48405
 20
-9.77751
 11
-2.54362
 21
-9.85368
  0
LINE
  8
0
 10
-2.54362
 20
-9.85368
 11
-2.55975
 21
-9.87189
  0
LINE
  8
0
 10
-2.55975
 20
-9.87189
 11
-2.62811
 21
-9.94025
  0
LINE
  8
0
 10
-2.62811
 20
-9.94025
 11
-2.64632
 21
-9.95638
  0
LINE
  8
0
 10
-2.64632
 20
-9.95638
 11
-2.72249
 21
-10.0159
  0
LINE
  8
0
 10
-2.72249
 20
-10.0159
 11
-2.74191
 21
-10.0294
  0
LINE
  8
0
 10
-2.74191
 20
-10.0294
 11
-2.82394
 21
-10.0792
  0
LINE
  8
0
 10
-2.82394
 20
-10.0792
 11
-2.84558
 21
-10.0905
  0
LINE
  8
0
 10
-2.84558
 20
-10.0905
 11
-2.93445
 21
-10.1306
  0
LINE
  8
0
 10
-2.93445
 20
-10.1306
 11
-2.95764
 21
-10.1394
  0
LINE
  8
0
 10
-2.95764
 20
-10.1394
 11
-3.04944
 21
-10.1677
  0
LINE
  8
0
 10
-3.04944
 20
-10.1677
 11
-3.07191
 21
-10.1732
  0
LINE
  8
0
 10
-3.07191
 20
-10.1732
 11
-3.16664
 21
-10.1908
  0
LINE
  8
0
 10
-3.16664
 20
-10.1908
 11
-3.19102
 21
-10.1938
  0
LINE
  8
0
 10
-3.19102
 20
-10.1938
 11
-3.2998
 21
-10.2
  0
LINE
  8
0
 10
-3.2998
 20
-10.2
 11
-8
 21
-10.2
  0
LINE
  8
0
 10
28.74
 20
-4.78046
 11
25.98
 21
0
  0
LINE
  8
0
 10
25.98
 20
0
 11
28.74
 21
4.78046
  0
LINE
  8
0
 10
28.74
 20
4.78046
 11
34.26
 21
4.78046
  0
LINE
  8
0
 10
34.26
 20
4.78046
 11
37.02
 21
0
  0
LINE
  8
0
 10
37.02
 20
0
 11
34.26
 21
-4.78046
  0
LINE
  8
0
 10
34.26
 20
-4.78046
 11
28.74
 21
-4.78046
  0
LINE
  8
0
 10
-34.157
 20
-2.49506
 11
-34.4684
 21
-2.4557
  0
LINE
  8
0
 10
-34.4684
 20
-2.4557
 11
-34.7725
 21
-2.37764
  0
LINE
  8
0
 10
-34.7725
 20
-2.37764
 11
-35.0644
 21
-2.26205
  0
LINE
  8
0
 10
-35.0644
 20
-2.26205
 11
-35.3396
 21
-2.11081
  0
LINE
  8
0
 10
-35.3396
 20
-2.11081
 11
-35.5936
 21
-1.92627
  0
LINE
  8
0
 10
-35.5936
 20
-1.92627
 11
-35.8224
 21
-1.71136
  0
LINE
  8
0
 10
-35.8224
 20
-1.71136
 11
-36.0225
 21
-1.46945
  0
LINE
  8
0
 10
-36.0225
 20
-1.46945
 11
-36.1908
 21
-1.20438
  0
LINE
  8
0
 10
-36.1908
 20
-1.20438
 11
-36.3244
 21
-0.920303
  0
LINE
  8
0
 10
-36.3244
 20
-0.920303
 11
-36.4214
 21
-0.621719
  0
LINE
  8
0
 10
-36.4214
 20
-0.621719
 11
-36.4803
 21
-0.313324
  0
LINE
  8
0
 10
-36.4803
 20
-0.313324
 11
-36.5
 21
0
  0
LINE
  8
0
 10
-36.5
 20
0
 11
-36.4803
 21
0.313324
  0
LINE
  8
0
 10
-36.4803
 20
0.313324
 11
-36.4214
 21
0.621719
  0
LINE
  8
0
 10
-36.4214
 20
0.621719
 11
-36.3244
 21
0.920303
  0
LINE
  8
0
 10
-36.3244
 20
0.920303
 11
-36.1908
 21
1.20438
  0
LINE
  8
0
 10
-36.1908
 20
1.20438
 11
-36.0225
 21
1.46945
  0
LINE
  8
0
 10
-36.0225
 20
1.46945
 11
-35.8224
 21
1.71136
  0
LINE
  8
0
 10
-35.8224
 20
1.71136
 11
-35.5936
 21
1.92627
  0
LINE
  8
0
 10
-35.5936
 20
1.92627
 11
-35.3396
 21
2.11081
  0
LINE
  8
0
 10
-35.3396
 20
2.11081
 11
-35.0644
 21
2.26205
  0
LINE
  8
0
 10
-35.0644
 20
2.26205
 11
-34.7725
 21
2.37764
  0
LINE
  8
0
 10
-34.7725
 20
2.37764
 11
-34.4684
 21
2.4557
  0
LINE
  8
0
 10
-34.4684
 20
2.4557
 11
-34.157
 21
2.49506
  0
LINE
  8
0
 10
-34.157
 20
2.49506
 11
-33.843
 21
2.49506
  0
LINE
  8
0
 10
-33.843
 20
2.49506
 11
-33.5315
 21
2.4557
  0
LINE
  8
0
 10
-33.5315
 20
2.4557
 11
-33.2274
 21
2.37764
  0
LINE
  8
0
 10
-33.2274
 20
2.37764
 11
-32.9355
 21
2.26205
  0
LINE
  8
0
 10
-32.9355
 20
2.26205
 11
-32.6604
 21
2.11081
  0
LINE
  8
0
 10
-32.6604
 20
2.11081
 11
-32.4064
 21
1.92627
  0
LINE
  8
0
 10
-32.4064
 20
1.92627
 11
-32.1776
 21
1.71136
  0
LINE
  8
0
 10
-32.1776
 20
1.71136
 11
-31.9774
 21
1.46945
  0
LINE
  8
0
 10
-31.9774
 20
1.46945
 11
-31.8092
 21
1.20438
  0
LINE
  8
0
 10
-31.8092
 20
1.20438
 11
-31.6756
 21
0.920303
  0
LINE
  8
0
 10
-31.6756
 20
0.920303
 11
-31.5785
 21
0.621719
  0
LINE
  8
0
 10
-31.5785
 20
0.621719
 11
-31.5197
 21
0.313324
  0
LINE
  8
0
 10
-31.5197
 20
0.313324
 11
-31.5
 21
0
  0
LINE
  8
0
 10
-31.5
 20
0
 11
-31.5197
 21
-0.313324
  0
LINE
  8
0
 10
-31.5197
 20
-0.313324
 11
-31.5785
 21
-0.621719
  0
LINE
  8
0
 10
-31.5785
 20
-0.621719
 11
-31.6756
 21
-0.920303
  0
LINE
  8
0
 10
-31.6756
 20
-0.920303
 11
-31.8092
 21
-1.20438
  0
LINE
  8
0
 10
-31.8092
 20
-1.20438
 11
-31.9774
 21
-1.46945
  0
LINE
  8
0
 10
-31.9774
 20
-1.46945
 11
-32.1776
 21
-1.71136
  0
LINE
  8
0
 10
-32.1776
 20
-1.71136
 11
-32.4064
 21
-1.92627
  0
LINE
  8
0
 10
-32.4064
 20
-1.92627
 11
-32.6604
 21
-2.11081
  0
LINE
  8
0
 10
-32.6604
 20
-2.11081
 11
-32.9355
 21
-2.26205
  0
LINE
  8
0
 10
-32.9355
 20
-2.26205
 11
-33.2274
 21
-2.37764
  0
LINE
  8
0
 10
-33.2274
 20
-2.37764
 11
-33.5315
 21
-2.4557
  0
LINE
  8
0
 10
-33.5315
 20
-2.4557
 11
-33.843
 21
-2.49506
  0
LINE
  8
0
 10
-33.843
 20
-2.49506
 11
-34.157
 21
-2.49506
  0
LINE
  8
0
 10
21.4058
 20
-11.497
 11
21.2189
 21
-11.4734
  0
LINE
  8
0
 10
21.2189
 20
-11.4734
 11
21.0365
 21
-11.4266
  0
LINE
  8
0
 10
21.0365
 20
-11.4266
 11
20.8613
 21
-11.3572
  0
LINE
  8
0
 10
20.8613
 20
-11.3572
 11
20.6963
 21
-11.2665
  0
LINE
  8
0
 10
20.6963
 20
-11.2665
 11
20.5439
 21
-11.1558
  0
LINE
  8
0
 10
20.5439
 20
-11.1558
 11
20.4066
 21
-11.0268
  0
LINE
  8
0
 10
20.4066
 20
-11.0268
 11
20.2865
 21
-10.8817
  0
LINE
  8
0
 10
20.2865
 20
-10.8817
 11
20.1855
 21
-10.7226
  0
LINE
  8
0
 10
20.1855
 20
-10.7226
 11
20.1053
 21
-10.5522
  0
LINE
  8
0
 10
20.1053
 20
-10.5522
 11
20.0471
 21
-10.373
  0
LINE
  8
0
 10
20.0471
 20
-10.373
 11
20.0118
 21
-10.188
  0
LINE
  8
0
 10
20.0118
 20
-10.188
 11
20
 21
-10
  0
LINE
  8
0
 10
20
 20
-10
 11
20.0118
 21
-9.812
  0
LINE
  8
0
 10
20.0118
 20
-9.812
 11
20.0471
 21
-9.62695
  0
LINE
  8
0
 10
20.0471
 20
-9.62695
 11
20.1053
 21
-9.4478
  0
LINE
  8
0
 10
20.1053
 20
-9.4478
 11
20.1855
 21
-9.27736
  0
LINE
  8
0
 10
20.1855
 20
-9.27736
 11
20.2865
 21
-9.11832
  0
LINE
  8
0
 10
20.2865
 20
-9.11832
 11
20.4066
 21
-8.97318
  0
LINE
  8
0
 10
20.4066
 20
-8.97318
 11
20.5439
 21
-8.84422
  0
LINE
  8
0
 10
20.5439
 20
-8.84422
 11
20.6963
 21
-8.73351
  0
LINE
  8
0
 10
20.6963
 20
-8.73351
 11
20.8613
 21
-8.64275
  0
LINE
  8
0
 10
20.8613
 20
-8.64275
 11
21.0365
 21
-8.57341
  0
LINE
  8
0
 10
21.0365
 20
-8.57341
 11
21.2189
 21
-8.52657
  0
LINE
  8
0
 10
21.2189
 20
-8.52657
 11
21.4058
 21
-8.50294
  0
LINE
  8
0
 10
21.4058
 20
-8.50294
 11
21.5942
 21
-8.50294
  0
LINE
  8
0
 10
21.5942
 20
-8.50294
 11
21.7811
 21
-8.52657
  0
LINE
  8
0
 10
21.7811
 20
-8.52657
 11
21.9635
 21
-8.57341
  0
LINE
  8
0
 10
21.9635
 20
-8.57341
 11
22.1387
 21
-8.64275
  0
LINE
  8
0
 10
22.1387
 20
-8.64275
 11
22.3037
 21
-8.73351
  0
LINE
  8
0
 10
22.3037
 20
-8.73351
 11
22.4561
 21
-8.84422
  0
LINE
  8
0
 10
22.4561
 20
-8.84422
 11
22.5935
 21
-8.97318
  0
LINE
  8
0
 10
22.5935
 20
-8.97318
 11
22.7135
 21
-9.11832
  0
LINE
  8
0
 10
22.7135
 20
-9.11832
 11
22.8145
 21
-9.27736
  0
LINE
  8
0
 10
22.8145
 20
-9.27736
 11
22.8947
 21
-9.4478
  0
LINE
  8
0
 10
22.8947
 20
-9.4478
 11
22.9529
 21
-9.62695
  0
LINE
  8
0
 10
22.9529
 20
-9.62695
 11
22.9882
 21
-9.812
  0
LINE
  8
0
 10
22.9882
 20
-9.812
 11
23
 21
-10
  0
LINE
  8
0
 10
23
 20
-10
 11
22.9882
 21
-10.188
  0
LINE
  8
0
 10
22.9882
 20
-10.188
 11
22.9529
 21
-10.373
  0
LINE
  8
0
 10
22.9529
 20
-10.373
 11
22.8947
 21
-10.5522
  0
LINE
  8
0
 10
22.8947
 20
-10.5522
 11
22.8145
 21
-10.7226
  0
LINE
  8
0
 10
22.8145
 20
-10.7226
 11
22.7135
 21
-10.8817
  0
LINE
  8
0
 10
22.7135
 20
-10.8817
 11
22.5935
 21
-11.0268
  0
LINE
  8
0
 10
22.5935
 20
-11.0268
 11
22.4561
 21
-11.1558
  0
LINE
  8
0
 10
22.4561
 20
-11.1558
 11
22.3037
 21
-11.2665
  0
LINE
  8
0
 10
22.3037
 20
-11.2665
 11
22.1387
 21
-11.3572
  0
LINE
  8
0
 10
22.1387
 20
-11.3572
 11
21.9635
 21
-11.4266
  0
LINE
  8
0
 10
21.9635
 20
-11.4266
 11
21.7811
 21
-11.4734
  0
LINE
  8
0
 10
21.7811
 20
-11.4734
 11
21.5942
 21
-11.497
  0
LINE
  8
0
 10
21.5942
 20
-11.497
 11
21.4058
 21
-11.497
  0
LINE
  8
0
 10
41.4058
 20
-11.497
 11
41.2189
 21
-11.4734
  0
LINE
  8
0
 10
41.2189
 20
-11.4734
 11
41.0365
 21
-11.4266
  0
LINE
  8
0
 10
41.0365
 20
-11.4266
 11
40.8613
 21
-11.3572
  0
LINE
  8
0
 10
40.8613
 20
-11.3572
 11
40.6963
 21
-11.2665
  0
LINE
  8
0
 10
40.6963
 20
-11.2665
 11
40.5439
 21
-11.1558
  0
LINE
  8
0
 10
40.5439
 20
-11.1558
 11
40.4065
 21
-11.0268
  0
LINE
  8
0
 10
40.4065
 20
-11.0268
 11
40.2865
 21
-10.8817
  0
LINE
  8
0
 10
40.2865
 20
-10.8817
 11
40.1855
 21
-10.7226
  0
LINE
  8
0
 10
40.1855
 20
-10.7226
 11
40.1053
 21
-10.5522
  0
LINE
  8
0
 10
40.1053
 20
-10.5522
 11
40.0471
 21
-10.373
  0
LINE
  8
0
 10
40.0471
 20
-10.373
 11
40.0118
 21
-10.188
  0
LINE
  8
0
 10
40.0118
 20
-10.188
 11
40
 21
-10
  0
LINE
  8
0
 10
40
 20
-10
 11
40.0118
 21
-9.812
  0
LINE
  8
0
 10
40.0118
 20
-9.812
 11
40.0471
 21
-9.62695
  0
LINE
  8
0
 10
40.0471
 20
-9.62695
 11
40.1053
 21
-9.4478
  0
LINE
  8
0
 10
40.1053
 20
-9.4478
 11
40.1855
 21
-9.27736
  0
LINE
  8
0
 10
40.1855
 20
-9.27736
 11
40.2865
 21
-9.11832
  0
LINE
  8
0
 10
40.2865
 20
-9.11832
 11
40.4065
 21
-8.97318
  0
LINE
  8
0
 10
40.4065
 20
-8.97318
 11
40.5439
 21
-8.84422
  0
LINE
  8
0
 10
40.5439
 20
-8.84422
 11
40.6963
 21
-8.73351
  0
LINE
  8
0
 10
40.6963
 20
-8.73351
 11
40.8613
 21
-8.64275
  0
LINE
  8
0
 10
40.8613
 20
-8.64275
 11
41.0365
 21
-8.57341
  0
LINE
  8
0
 10
41.0365
 20
-8.57341
 11
41.2189
 21
-8.52657
  0
LINE
  8
0
 10
41.2189
 20
-8.52657
 11
41.4058
 21
-8.50294
  0
LINE
  8
0
 10
41.4058
 20
-8.50294
 11
41.5942
 21
-8.50294
  0
LINE
  8
0
 10
41.5942
 20
-8.50294
 11
41.7811
 21
-8.52657
  0
LINE
  8
0
 10
41.7811
 20
-8.52657
 11
41.9635
 21
-8.57341
  0
LINE
  8
0
 10
41.9635
 20
-8.57341
 11
42.1387
 21
-8.64275
  0
LINE
  8
0
 10
42.1387
 20
-8.64275
 11
42.3037
 21
-8.73351
  0
LINE
  8
0
 10
42.3037
 20
-8.73351
 11
42.4561
 21
-8.84422
  0
LINE
  8
0
 10
42.4561
 20
-8.84422
 11
42.5934
 21
-8.97318
  0
LINE
  8
0
 10
42.5934
 20
-8.97318
 11
42.7135
 21
-9.11832
  0
LINE
  8
0
 10
42.7135
 20
-9.11832
 11
42.8145
 21
-9.27736
  0
LINE
  8
0
 10
42.8145
 20
-9.27736
 11
42.8947
 21
-9.4478
  0
LINE
  8
0
 10
42.8947
 20
-9.4478
 11
42.9529
 21
-9.62695
  0
LINE
  8
0
 10
42.9529
 20
-9.62695
 11
42.9882
 21
-9.812
  0
LINE
  8
0
 10
42.9882
 20
-9.812
 11
43
 21
-10
  0
LINE
  8
0
 10
43
 20
-10
 11
42.9882
 21
-10.188
  0
LINE
  8
0
 10
42.9882
 20
-10.188
 11
42.9529
 21
-10.373
  0
LINE
  8
0
 10
42.9529
 20
-10.373
 11
42.8947
 21
-10.5522
  0
LINE
  8
0
 10
42.8947
 20
-10.5522
 11
42.8145
 21
-10.7226
  0
LINE
  8
0
 10
42.8145
 20
-10.7226
 11
42.7135
 21
-10.8817
  0
LINE
  8
0
 10
42.7135
 20
-10.8817
 11
42.5934
 21
-11.0268
  0
LINE
  8
0
 10
42.5934
 20
-11.0268
 11
42.4561
 21
-11.1558
  0
LINE
  8
0
 10
42.4561
 20
-11.1558
 11
42.3037
 21
-11.2665
  0
LINE
  8
0
 10
42.3037
 20
-11.2665
 11
42.1387
 21
-11.3572
  0
LINE
  8
0
 10
42.1387
 20
-11.3572
 11
41.9635
 21
-11.4266
  0
LINE
  8
0
 10
41.9635
 20
-11.4266
 11
41.7811
 21
-11.4734
  0
LINE
  8
0
 10
41.7811
 20
-11.4734
 11
41.5942
 21
-11.497
  0
LINE
  8
0
 10
41.5942
 20
-11.497
 11
41.4058
 21
-11.497
  0
LINE
  8
0
 10
-55.0942
 20
-36.497
 11
-55.2811
 21
-36.4734
  0
LINE
  8
0
 10
-55.2811
 20
-36.4734
 11
-55.4635
 21
-36.4266
  0
LINE
  8
0
 10
-55.4635
 20
-36.4266
 11
-55.6387
 21
-36.3572
  0
LINE
  8
0
 10
-55.6387
 20
-36.3572
 11
-55.8037
 21
-36.2665
  0
LINE
  8
0
 10
-55.8037
 20
-36.2665
 11
-55.9561
 21
-36.1558
  0
LINE
  8
0
 10
-55.9561
 20
-36.1558
 11
-56.0934
 21
-36.0268
  0
LINE
  8
0
 10
-56.0934
 20
-36.0268
 11
-56.2135
 21
-35.8817
  0
LINE
  8
0
 10
-56.2135
 20
-35.8817
 11
-56.3145
 21
-35.7226
  0
LINE
  8
0
 10
-56.3145
 20
-35.7226
 11
-56.3947
 21
-35.5522
  0
LINE
  8
0
 10
-56.3947
 20
-35.5522
 11
-56.4529
 21
-35.373
  0
LINE
  8
0
 10
-56.4529
 20
-35.373
 11
-56.4882
 21
-35.188
  0
LINE
  8
0
 10
-56.4882
 20
-35.188
 11
-56.5
 21
-35
  0
LINE
  8
0
 10
-56.5
 20
-35
 11
-56.4882
 21
-34.812
  0
LINE
  8
0
 10
-56.4882
 20
-34.812
 11
-56.4529
 21
-34.627
  0
LINE
  8
0
 10
-56.4529
 20
-34.627
 11
-56.3947
 21
-34.4478
  0
LINE
  8
0
 10
-56.3947
 20
-34.4478
 11
-56.3145
 21
-34.2774
  0
LINE
  8
0
 10
-56.3145
 20
-34.2774
 11
-56.2135
 21
-34.1183
  0
LINE
  8
0
 10
-56.2135
 20
-34.1183
 11
-56.0934
 21
-33.9732
  0
LINE
  8
0
 10
-56.0934
 20
-33.9732
 11
-55.9561
 21
-33.8442
  0
LINE
  8
0
 10
-55.9561
 20
-33.8442
 11
-55.8037
 21
-33.7335
  0
LINE
  8
0
 10
-55.8037
 20
-33.7335
 11
-55.6387
 21
-33.6427
  0
LINE
  8
0
 10
-55.6387
 20
-33.6427
 11
-55.4635
 21
-33.5734
  0
LINE
  8
0
 10
-55.4635
 20
-33.5734
 11
-55.2811
 21
-33.5266
  0
LINE
  8
0
 10
-55.2811
 20
-33.5266
 11
-55.0942
 21
-33.5029
  0
LINE
  8
0
 10
-55.0942
 20
-33.5029
 11
-54.9058
 21
-33.5029
  0
LINE
  8
0
 10
-54.9058
 20
-33.5029
 11
-54.7189
 21
-33.5266
  0
LINE
  8
0
 10
-54.7189
 20
-33.5266
 11
-54.5365
 21
-33.5734
  0
LINE
  8
0
 10
-54.5365
 20
-33.5734
 11
-54.3613
 21
-33.6427
  0
LINE
  8
0
 10
-54.3613
 20
-33.6427
 11
-54.1963
 21
-33.7335
  0
LINE
  8
0
 10
-54.1963
 20
-33.7335
 11
-54.0439
 21
-33.8442
  0
LINE
  8
0
 10
-54.0439
 20
-33.8442
 11
-53.9065
 21
-33.9732
  0
LINE
  8
0
 10
-53.9065
 20
-33.9732
 11
-53.7865
 21
-34.1183
  0
LINE
  8
0
 10
-53.7865
 20
-34.1183
 11
-53.6855
 21
-34.2774
  0
LINE
  8
0
 10
-53.6855
 20
-34.2774
 11
-53.6053
 21
-34.4478
  0
LINE
  8
0
 10
-53.6053
 20
-34.4478
 11
-53.5471
 21
-34.627
  0
LINE
  8
0
 10
-53.5471
 20
-34.627
 11
-53.5118
 21
-34.812
  0
LINE
  8
0
 10
-53.5118
 20
-34.812
 11
-53.5
 21
-35
  0
LINE
  8
0
 10
-53.5
 20
-35
 11
-53.5118
 21
-35.188
  0
LINE
  8
0
 10
-53.5118
 20
-35.188
 11
-53.5471
 21
-35.373
  0
LINE
  8
0
 10
-53.5471
 20
-35.373
 11
-53.6053
 21
-35.5522
  0
LINE
  8
0
 10
-53.6053
 20
-35.5522
 11
-53.6855
 21
-35.7226
  0
LINE
  8
0
 10
-53.6855
 20
-35.7226
 11
-53.7865
 21
-35.8817
  0
LINE
  8
0
 10
-53.7865
 20
-35.8817
 11
-53.9065
 21
-36.0268
  0
LINE
  8
0
 10
-53.9065
 20
-36.0268
 11
-54.0439
 21
-36.1558
  0
LINE
  8
0
 10
-54.0439
 20
-36.1558
 11
-54.1963
 21
-36.2665
  0
LINE
  8
0
 10
-54.1963
 20
-36.2665
 11
-54.3613
 21
-36.3572
  0
LINE
  8
0
 10
-54.3613
 20
-36.3572
 11
-54.5365
 21
-36.4266
  0
LINE
  8
0
 10
-54.5365
 20
-36.4266
 11
-54.7189
 21
-36.4734
  0
LINE
  8
0
 10
-54.7189
 20
-36.4734
 11
-54.9058
 21
-36.497
  0
LINE
  8
0
 10
-54.9058
 20
-36.497
 11
-55.0942
 21
-36.497
  0
LINE
  8
0
 10
54.9058
 20
-36.497
 11
54.7189
 21
-36.4734
  0
LINE
  8
0
 10
54.7189
 20
-36.4734
 11
54.5365
 21
-36.4266
  0
LINE
  8
0
 10
54.5365
 20
-36.4266
 11
54.3613
 21
-36.3572
  0
LINE
  8
0
 10
54.3613
 20
-36.3572
 11
54.1963
 21
-36.2665
  0
LINE
  8
0
 10
54.1963
 20
-36.2665
 11
54.0439
 21
-36.1558
  0
LINE
  8
0
 10
54.0439
 20
-36.1558
 11
53.9065
 21
-36.0268
  0
LINE
  8
0
 10
53.9065
 20
-36.0268
 11
53.7865
 21
-35.8817
  0
LINE
  8
0
 10
53.7865
 20
-35.8817
 11
53.6855
 21
-35.7226
  0
LINE
  8
0
 10
53.6855
 20
-35.7226
 11
53.6053
 21
-35.5522
  0
LINE
  8
0
 10
53.6053
 20
-35.5522
 11
53.5471
 21
-35.373
  0
LINE
  8
0
 10
53.5471
 20
-35.373
 11
53.5118
 21
-35.188
  0
LINE
  8
0
 10
53.5118
 20
-35.188
 11
53.5
 21
-35
  0
LINE
  8
0
 10
53.5
 20
-35
 11
53.5118
 21
-34.812
  0
LINE
  8
0
 10
53.5118
 20
-34.812
 11
53.5471
 21
-34.627
  0
LINE
  8
0
 10
53.5471
 20
-34.627
 11
53.6053
 21
-34.4478
  0
LINE
  8
0
 10
53.6053
 20
-34.4478
 11
53.6855
 21
-34.2774
  0
LINE
  8
0
 10
53.6855
 20
-34.2774
 11
53.7865
 21
-34.1183
  0
LINE
  8
0
 10
53.7865
 20
-34.1183
 11
53.9065
 21
-33.9732
  0
LINE
  8
0
 10
53.9065
 20
-33.9732
 11
54.0439
 21
-33.8442
  0
LINE
  8
0
 10
54.0439
 20
-33.8442
 11
54.1963
 21
-33.7335
  0
LINE
  8
0
 10
54.1963
 20
-33.7335
 11
54.3613
 21
-33.6427
  0
LINE
  8
0
 10
54.3613
 20
-33.6427
 11
54.5365
 21
-33.5734
  0
LINE
  8
0
 10
54.5365
 20
-33.5734
 11
54.7189
 21
-33.5266
  0
LINE
  8
0
 10
54.7189
 20
-33.5266
 11
54.9058
 21
-33.5029
  0
LINE
  8
0
 10
54.9058
 20
-33.5029
 11
55.0942
 21
-33.5029
  0
LINE
  8
0
 10
55.0942
 20
-33.5029
 11
55.2811
 21
-33.5266
  0
LINE
  8
0
 10
55.2811
 20
-33.5266
 11
55.4635
 21
-33.5734
  0
LINE
  8
0
 10
55.4635
 20
-33.5734
 11
55.6387
 21
-33.6427
  0
LINE
  8
0
 10
55.6387
 20
-33.6427
 11
55.8037
 21
-33.7335
  0
LINE
  8
0
 10
55.8037
 20
-33.7335
 11
55.9561
 21
-33.8442
  0
LINE
  8
0
 10
55.9561
 20
-33.8442
 11
56.0934
 21
-33.9732
  0
LINE
  8
0
 10
56.0934
 20
-33.9732
 11
56.2135
 21
-34.1183
  0
LINE
  8
0
 10
56.2135
 20
-34.1183
 11
56.3145
 21
-34.2774
  0
LINE
  8
0
 10
56.3145
 20
-34.2774
 11
56.3947
 21
-34.4478
  0
LINE
  8
0
 10
56.3947
 20
-34.4478
 11
56.4529
 21
-34.627
  0
LINE
  8
0
 10
56.4529
 20
-34.627
 11
56.4882
 21
-34.812
  0
LINE
  8
0
 10
56.4882
 20
-34.812
 11
56.5
 21
-35
  0
LINE
  8
0
 10
56.5
 20
-35
 11
56.4882
 21
-35.188
  0
LINE
  8
0
 10
56.4882
 20
-35.188
 11
56.4529
 21
-35.373
  0
LINE
  8
0
 10
56.4529
 20
-35.373
 11
56.3947
 21
-35.5522
  0
LINE
  8
0
 10
56.3947
 20
-35.5522
 11
56.3145
 21
-35.7226
  0
LINE
  8
0
 10
56.3145
 20
-35.7226
 11
56.2135
 21
-35.8817
  0
LINE
  8
0
 10
56.2135
 20
-35.8817
 11
56.0934
 21
-36.0268
  0
LINE
  8
0
 10
56.0934
 20
-36.0268
 11
55.9561
 21
-36.1558
  0
LINE
  8
0
 10
55.9561
 20
-36.1558
 11
55.8037
 21
-36.2665
  0
LINE
  8
0
 10
55.8037
 20
-36.2665
 11
55.6387
 21
-36.3572
  0
LINE
  8
0
 10
55.6387
 20
-36.3572
 11
55.4635
 21
-36.4266
  0
LINE
  8
0
 10
55.4635
 20
-36.4266
 11
55.2811
 21
-36.4734
  0
LINE
  8
0
 10
55.2811
 20
-36.4734
 11
55.0942
 21
-36.497
  0
LINE
  8
0
 10
55.0942
 20
-36.497
 11
54.9058
 21
-36.497
  0
ENDSEC
  0
SECTION
  2
OBJECTS
  0
DICTIONARY
  0
ENDSEC
  0
EOF
