  0
SECTION
  2
BLOCKS
  0
ENDSEC
  0
SECTION
  2
ENTITIES
  0
LINE
  8
0
 10
-13.8714
 20
-26.9802
 11
-13.6834
 21
-26.9684
  0
LINE
  8
0
 10
-13.6834
 20
-26.9684
 11
-12.4385
 21
-26.8111
  0
LINE
  8
0
 10
-12.4385
 20
-26.8111
 11
-12.2534
 21
-26.7758
  0
LINE
  8
0
 10
-12.2534
 20
-26.7758
 11
-11.0394
 21
-26.4643
  0
LINE
  8
0
 10
-11.0394
 20
-26.4643
 11
33.8601
 21
-11.889
  0
LINE
  8
0
 10
33.8601
 20
-11.889
 11
34.4542
 21
-11.6753
  0
LINE
  8
0
 10
34.4542
 20
-11.6753
 11
34.7461
 21
-11.5597
  0
LINE
  8
0
 10
34.7461
 20
-11.5597
 11
35.8819
 21
-11.0251
  0
LINE
  8
0
 10
35.8819
 20
-11.0251
 11
36.1571
 21
-10.8739
  0
LINE
  8
0
 10
36.1571
 20
-10.8739
 11
37.2174
 21
-10.201
  0
LINE
  8
0
 10
37.2174
 20
-10.201
 11
37.4714
 21
-10.0164
  0
LINE
  8
0
 10
37.4714
 20
-10.0164
 11
38.4388
 21
-9.2162
  0
LINE
  8
0
 10
38.4388
 20
-9.2162
 11
38.6676
 21
-9.0013
  0
LINE
  8
0
 10
38.6676
 20
-9.0013
 11
39.5277
 21
-8.08543
  0
LINE
  8
0
 10
39.5277
 20
-8.08543
 11
39.7278
 21
-7.84352
  0
LINE
  8
0
 10
39.7278
 20
-7.84352
 11
40.4657
 21
-6.82785
  0
LINE
  8
0
 10
40.4657
 20
-6.82785
 11
40.634
 21
-6.56277
  0
LINE
  8
0
 10
40.634
 20
-6.56277
 11
41.2391
 21
-5.46198
  0
LINE
  8
0
 10
41.2391
 20
-5.46198
 11
41.3728
 21
-5.1779
  0
LINE
  8
0
 10
41.3728
 20
-5.1779
 11
41.835
 21
-4.01047
  0
LINE
  8
0
 10
41.835
 20
-4.01047
 11
41.932
 21
-3.71188
  0
LINE
  8
0
 10
41.932
 20
-3.71188
 11
42.2443
 21
-2.49579
  0
LINE
  8
0
 10
42.2443
 20
-2.49579
 11
42.3031
 21
-2.18739
  0
LINE
  8
0
 10
42.3031
 20
-2.18739
 11
42.4606
 21
-0.941284
  0
LINE
  8
0
 10
42.4606
 20
-0.941284
 11
42.4803
 21
-0.62796
  0
LINE
  8
0
 10
42.4803
 20
-0.62796
 11
42.4803
 21
0.62796
  0
LINE
  8
0
 10
42.4803
 20
0.62796
 11
42.4606
 21
0.941284
  0
LINE
  8
0
 10
42.4606
 20
0.941284
 11
42.3031
 21
2.18739
  0
LINE
  8
0
 10
42.3031
 20
2.18739
 11
42.2443
 21
2.49579
  0
LINE
  8
0
 10
42.2443
 20
2.49579
 11
41.932
 21
3.71188
  0
LINE
  8
0
 10
41.932
 20
3.71188
 11
41.835
 21
4.01047
  0
LINE
  8
0
 10
41.835
 20
4.01047
 11
41.3728
 21
5.1779
  0
LINE
  8
0
 10
41.3728
 20
5.1779
 11
41.2391
 21
5.46198
  0
LINE
  8
0
 10
41.2391
 20
5.46198
 11
40.634
 21
6.56277
  0
LINE
  8
0
 10
40.634
 20
6.56277
 11
40.4657
 21
6.82785
  0
LINE
  8
0
 10
40.4657
 20
6.82785
 11
39.7278
 21
7.84352
  0
LINE
  8
0
 10
39.7278
 20
7.84352
 11
39.5277
 21
8.08543
  0
LINE
  8
0
 10
39.5277
 20
8.08543
 11
38.6676
 21
9.0013
  0
LINE
  8
0
 10
38.6676
 20
9.0013
 11
38.4388
 21
9.2162
  0
LINE
  8
0
 10
38.4388
 20
9.2162
 11
37.4714
 21
10.0164
  0
LINE
  8
0
 10
37.4714
 20
10.0164
 11
37.2174
 21
10.201
  0
LINE
  8
0
 10
37.2174
 20
10.201
 11
36.1571
 21
10.8739
  0
LINE
  8
0
 10
36.1571
 20
10.8739
 11
35.8819
 21
11.0251
  0
LINE
  8
0
 10
35.8819
 20
11.0251
 11
34.7461
 21
11.5597
  0
LINE
  8
0
 10
34.7461
 20
11.5597
 11
34.4542
 21
11.6753
  0
LINE
  8
0
 10
34.4542
 20
11.6753
 11
33.8601
 21
11.8891
  0
LINE
  8
0
 10
33.8601
 20
11.8891
 11
-11.0394
 21
26.4643
  0
LINE
  8
0
 10
-11.0394
 20
26.4643
 11
-12.2534
 21
26.7758
  0
LINE
  8
0
 10
-12.2534
 20
26.7758
 11
-12.4385
 21
26.8111
  0
LINE
  8
0
 10
-12.4385
 20
26.8111
 11
-13.6834
 21
26.9684
  0
LINE
  8
0
 10
-13.6834
 20
26.9684
 11
-13.8714
 21
26.9802
  0
LINE
  8
0
 10
-13.8714
 20
26.9802
 11
-14.5
 21
27
  0
LINE
  8
0
 10
-14.5
 20
27
 11
-47.5
 21
27
  0
LINE
  8
0
 10
-47.5
 20
27
 11
-48.1286
 21
26.9802
  0
LINE
  8
0
 10
-48.1286
 20
26.9802
 11
-48.3166
 21
26.9684
  0
LINE
  8
0
 10
-48.3166
 20
26.9684
 11
-49.5615
 21
26.8111
  0
LINE
  8
0
 10
-49.5615
 20
26.8111
 11
-49.7466
 21
26.7758
  0
LINE
  8
0
 10
-49.7466
 20
26.7758
 11
-50.9633
 21
26.4634
  0
LINE
  8
0
 10
-50.9633
 20
26.4634
 11
-51.1424
 21
26.4052
  0
LINE
  8
0
 10
-51.1424
 20
26.4052
 11
-52.3098
 21
25.943
  0
LINE
  8
0
 10
-52.3098
 20
25.943
 11
-52.4803
 21
25.8628
  0
LINE
  8
0
 10
-52.4803
 20
25.8628
 11
-53.5811
 21
25.2576
  0
LINE
  8
0
 10
-53.5811
 20
25.2576
 11
-53.7401
 21
25.1567
  0
LINE
  8
0
 10
-53.7401
 20
25.1567
 11
-54.7559
 21
24.4187
  0
LINE
  8
0
 10
-54.7559
 20
24.4187
 11
-54.901
 21
24.2986
  0
LINE
  8
0
 10
-54.901
 20
24.2986
 11
-55.8163
 21
23.4391
  0
LINE
  8
0
 10
-55.8163
 20
23.4391
 11
-55.9453
 21
23.3018
  0
LINE
  8
0
 10
-55.9453
 20
23.3018
 11
-56.7462
 21
22.3336
  0
LINE
  8
0
 10
-56.7462
 20
22.3336
 11
-56.8569
 21
22.1812
  0
LINE
  8
0
 10
-56.8569
 20
22.1812
 11
-57.5293
 21
21.1217
  0
LINE
  8
0
 10
-57.5293
 20
21.1217
 11
-57.62
 21
20.9567
  0
LINE
  8
0
 10
-57.62
 20
20.9567
 11
-58.1551
 21
19.8196
  0
LINE
  8
0
 10
-58.1551
 20
19.8196
 11
-58.2245
 21
19.6444
  0
LINE
  8
0
 10
-58.2245
 20
19.6444
 11
-58.6124
 21
18.4504
  0
LINE
  8
0
 10
-58.6124
 20
18.4504
 11
-58.6593
 21
18.2679
  0
LINE
  8
0
 10
-58.6593
 20
18.2679
 11
-58.8945
 21
17.035
  0
LINE
  8
0
 10
-58.8945
 20
17.035
 11
-58.9181
 21
16.8481
  0
LINE
  8
0
 10
-58.9181
 20
16.8481
 11
-58.997
 21
15.5942
  0
LINE
  8
0
 10
-58.997
 20
15.5942
 11
-58.997
 21
-15.5942
  0
LINE
  8
0
 10
-58.997
 20
-15.5942
 11
-58.9181
 21
-16.8481
  0
LINE
  8
0
 10
-58.9181
 20
-16.8481
 11
-58.8945
 21
-17.035
  0
LINE
  8
0
 10
-58.8945
 20
-17.035
 11
-58.6593
 21
-18.2679
  0
LINE
  8
0
 10
-58.6593
 20
-18.2679
 11
-58.6124
 21
-18.4504
  0
LINE
  8
0
 10
-58.6124
 20
-18.4504
 11
-58.2245
 21
-19.6444
  0
LINE
  8
0
 10
-58.2245
 20
-19.6444
 11
-58.1551
 21
-19.8196
  0
LINE
  8
0
 10
-58.1551
 20
-19.8196
 11
-57.62
 21
-20.9566
  0
LINE
  8
0
 10
-57.62
 20
-20.9566
 11
-57.5293
 21
-21.1217
  0
LINE
  8
0
 10
-57.5293
 20
-21.1217
 11
-56.8569
 21
-22.1812
  0
LINE
  8
0
 10
-56.8569
 20
-22.1812
 11
-56.7462
 21
-22.3336
  0
LINE
  8
0
 10
-56.7462
 20
-22.3336
 11
-55.9453
 21
-23.3017
  0
LINE
  8
0
 10
-55.9453
 20
-23.3017
 11
-55.8163
 21
-23.4391
  0
LINE
  8
0
 10
-55.8163
 20
-23.4391
 11
-54.901
 21
-24.2986
  0
LINE
  8
0
 10
-54.901
 20
-24.2986
 11
-54.7559
 21
-24.4186
  0
LINE
  8
0
 10
-54.7559
 20
-24.4186
 11
-53.7401
 21
-25.1566
  0
LINE
  8
0
 10
-53.7401
 20
-25.1566
 11
-53.5811
 21
-25.2576
  0
LINE
  8
0
 10
-53.5811
 20
-25.2576
 11
-52.4803
 21
-25.8628
  0
LINE
  8
0
 10
-52.4803
 20
-25.8628
 11
-52.3098
 21
-25.943
  0
LINE
  8
0
 10
-52.3098
 20
-25.943
 11
-51.1424
 21
-26.4052
  0
LINE
  8
0
 10
-51.1424
 20
-26.4052
 11
-50.9633
 21
-26.4634
  0
LINE
  8
0
 10
-50.9633
 20
-26.4634
 11
-49.7466
 21
-26.7758
  0
LINE
  8
0
 10
-49.7466
 20
-26.7758
 11
-49.5615
 21
-26.8111
  0
LINE
  8
0
 10
-49.5615
 20
-26.8111
 11
-48.3166
 21
-26.9684
  0
LINE
  8
0
 10
-48.3166
 20
-26.9684
 11
-48.1286
 21
-26.9802
  0
LINE
  8
0
 10
-48.1286
 20
-26.9802
 11
-47.5
 21
-27
  0
LINE
  8
0
 10
-47.5
 20
-27
 11
-14.5
 21
-27
  0
LINE
  8
0
 10
-14.5
 20
-27
 11
-13.8714
 21
-26.9802
  0
LINE
  8
0
 10
-47.5
 20
14
 11
-47.688
 21
14.0118
  0
LINE
  8
0
 10
-47.688
 20
14.0118
 11
-47.873
 21
14.0471
  0
LINE
  8
0
 10
-47.873
 20
14.0471
 11
-48.0522
 21
14.1053
  0
LINE
  8
0
 10
-48.0522
 20
14.1053
 11
-48.2226
 21
14.1855
  0
LINE
  8
0
 10
-48.2226
 20
14.1855
 11
-48.3817
 21
14.2865
  0
LINE
  8
0
 10
-48.3817
 20
14.2865
 11
-48.5268
 21
14.4066
  0
LINE
  8
0
 10
-48.5268
 20
14.4066
 11
-48.6558
 21
14.5439
  0
LINE
  8
0
 10
-48.6558
 20
14.5439
 11
-48.7665
 21
14.6963
  0
LINE
  8
0
 10
-48.7665
 20
14.6963
 11
-48.8572
 21
14.8613
  0
LINE
  8
0
 10
-48.8572
 20
14.8613
 11
-48.9266
 21
15.0365
  0
LINE
  8
0
 10
-48.9266
 20
15.0365
 11
-48.9734
 21
15.2189
  0
LINE
  8
0
 10
-48.9734
 20
15.2189
 11
-48.997
 21
15.4058
  0
LINE
  8
0
 10
-48.997
 20
15.4058
 11
-48.997
 21
15.5942
  0
LINE
  8
0
 10
-48.997
 20
15.5942
 11
-48.9734
 21
15.7811
  0
LINE
  8
0
 10
-48.9734
 20
15.7811
 11
-48.9266
 21
15.9635
  0
LINE
  8
0
 10
-48.9266
 20
15.9635
 11
-48.8572
 21
16.1387
  0
LINE
  8
0
 10
-48.8572
 20
16.1387
 11
-48.7665
 21
16.3037
  0
LINE
  8
0
 10
-48.7665
 20
16.3037
 11
-48.6558
 21
16.4561
  0
LINE
  8
0
 10
-48.6558
 20
16.4561
 11
-48.5268
 21
16.5934
  0
LINE
  8
0
 10
-48.5268
 20
16.5934
 11
-48.3817
 21
16.7135
  0
LINE
  8
0
 10
-48.3817
 20
16.7135
 11
-48.2226
 21
16.8145
  0
LINE
  8
0
 10
-48.2226
 20
16.8145
 11
-48.0522
 21
16.8947
  0
LINE
  8
0
 10
-48.0522
 20
16.8947
 11
-47.873
 21
16.9529
  0
LINE
  8
0
 10
-47.873
 20
16.9529
 11
-47.688
 21
16.9882
  0
LINE
  8
0
 10
-47.688
 20
16.9882
 11
-47.5
 21
17
  0
LINE
  8
0
 10
-47.5
 20
17
 11
-45.5
 21
17
  0
LINE
  8
0
 10
-45.5
 20
17
 11
-45.312
 21
16.9882
  0
LINE
  8
0
 10
-45.312
 20
16.9882
 11
-45.127
 21
16.9529
  0
LINE
  8
0
 10
-45.127
 20
16.9529
 11
-44.9478
 21
16.8947
  0
LINE
  8
0
 10
-44.9478
 20
16.8947
 11
-44.7774
 21
16.8145
  0
LINE
  8
0
 10
-44.7774
 20
16.8145
 11
-44.6183
 21
16.7135
  0
LINE
  8
0
 10
-44.6183
 20
16.7135
 11
-44.4732
 21
16.5934
  0
LINE
  8
0
 10
-44.4732
 20
16.5934
 11
-44.3442
 21
16.4561
  0
LINE
  8
0
 10
-44.3442
 20
16.4561
 11
-44.2335
 21
16.3037
  0
LINE
  8
0
 10
-44.2335
 20
16.3037
 11
-44.1428
 21
16.1387
  0
LINE
  8
0
 10
-44.1428
 20
16.1387
 11
-44.0734
 21
15.9635
  0
LINE
  8
0
 10
-44.0734
 20
15.9635
 11
-44.0266
 21
15.7811
  0
LINE
  8
0
 10
-44.0266
 20
15.7811
 11
-44.003
 21
15.5942
  0
LINE
  8
0
 10
-44.003
 20
15.5942
 11
-44.003
 21
15.4058
  0
LINE
  8
0
 10
-44.003
 20
15.4058
 11
-44.0266
 21
15.2189
  0
LINE
  8
0
 10
-44.0266
 20
15.2189
 11
-44.0734
 21
15.0365
  0
LINE
  8
0
 10
-44.0734
 20
15.0365
 11
-44.1428
 21
14.8613
  0
LINE
  8
0
 10
-44.1428
 20
14.8613
 11
-44.2335
 21
14.6963
  0
LINE
  8
0
 10
-44.2335
 20
14.6963
 11
-44.3442
 21
14.5439
  0
LINE
  8
0
 10
-44.3442
 20
14.5439
 11
-44.4732
 21
14.4066
  0
LINE
  8
0
 10
-44.4732
 20
14.4066
 11
-44.6183
 21
14.2865
  0
LINE
  8
0
 10
-44.6183
 20
14.2865
 11
-44.7774
 21
14.1855
  0
LINE
  8
0
 10
-44.7774
 20
14.1855
 11
-44.9478
 21
14.1053
  0
LINE
  8
0
 10
-44.9478
 20
14.1053
 11
-45.127
 21
14.0471
  0
LINE
  8
0
 10
-45.127
 20
14.0471
 11
-45.312
 21
14.0118
  0
LINE
  8
0
 10
-45.312
 20
14.0118
 11
-45.5
 21
14
  0
LINE
  8
0
 10
-45.5
 20
14
 11
-47.5
 21
14
  0
LINE
  8
0
 10
-16.5
 20
14
 11
-16.688
 21
14.0118
  0
LINE
  8
0
 10
-16.688
 20
14.0118
 11
-16.873
 21
14.0471
  0
LINE
  8
0
 10
-16.873
 20
14.0471
 11
-17.0522
 21
14.1053
  0
LINE
  8
0
 10
-17.0522
 20
14.1053
 11
-17.2226
 21
14.1855
  0
LINE
  8
0
 10
-17.2226
 20
14.1855
 11
-17.3817
 21
14.2865
  0
LINE
  8
0
 10
-17.3817
 20
14.2865
 11
-17.5268
 21
14.4065
  0
LINE
  8
0
 10
-17.5268
 20
14.4065
 11
-17.6557
 21
14.5439
  0
LINE
  8
0
 10
-17.6557
 20
14.5439
 11
-17.7665
 21
14.6963
  0
LINE
  8
0
 10
-17.7665
 20
14.6963
 11
-17.8572
 21
14.8613
  0
LINE
  8
0
 10
-17.8572
 20
14.8613
 11
-17.9266
 21
15.0365
  0
LINE
  8
0
 10
-17.9266
 20
15.0365
 11
-17.9734
 21
15.2189
  0
LINE
  8
0
 10
-17.9734
 20
15.2189
 11
-17.997
 21
15.4058
  0
LINE
  8
0
 10
-17.997
 20
15.4058
 11
-17.997
 21
15.5942
  0
LINE
  8
0
 10
-17.997
 20
15.5942
 11
-17.9734
 21
15.7811
  0
LINE
  8
0
 10
-17.9734
 20
15.7811
 11
-17.9266
 21
15.9635
  0
LINE
  8
0
 10
-17.9266
 20
15.9635
 11
-17.8572
 21
16.1386
  0
LINE
  8
0
 10
-17.8572
 20
16.1386
 11
-17.7665
 21
16.3037
  0
LINE
  8
0
 10
-17.7665
 20
16.3037
 11
-17.6557
 21
16.4561
  0
LINE
  8
0
 10
-17.6557
 20
16.4561
 11
-17.5268
 21
16.5934
  0
LINE
  8
0
 10
-17.5268
 20
16.5934
 11
-17.3817
 21
16.7135
  0
LINE
  8
0
 10
-17.3817
 20
16.7135
 11
-17.2226
 21
16.8144
  0
LINE
  8
0
 10
-17.2226
 20
16.8144
 11
-17.0522
 21
16.8946
  0
LINE
  8
0
 10
-17.0522
 20
16.8946
 11
-16.873
 21
16.9529
  0
LINE
  8
0
 10
-16.873
 20
16.9529
 11
-16.688
 21
16.9881
  0
LINE
  8
0
 10
-16.688
 20
16.9881
 11
-16.5
 21
17
  0
LINE
  8
0
 10
-16.5
 20
17
 11
-14.5
 21
17
  0
LINE
  8
0
 10
-14.5
 20
17
 11
-14.312
 21
16.9881
  0
LINE
  8
0
 10
-14.312
 20
16.9881
 11
-14.127
 21
16.9529
  0
LINE
  8
0
 10
-14.127
 20
16.9529
 11
-13.9478
 21
16.8946
  0
LINE
  8
0
 10
-13.9478
 20
16.8946
 11
-13.7774
 21
16.8144
  0
LINE
  8
0
 10
-13.7774
 20
16.8144
 11
-13.6183
 21
16.7135
  0
LINE
  8
0
 10
-13.6183
 20
16.7135
 11
-13.4732
 21
16.5934
  0
LINE
  8
0
 10
-13.4732
 20
16.5934
 11
-13.3442
 21
16.4561
  0
LINE
  8
0
 10
-13.3442
 20
16.4561
 11
-13.2335
 21
16.3037
  0
LINE
  8
0
 10
-13.2335
 20
16.3037
 11
-13.1427
 21
16.1386
  0
LINE
  8
0
 10
-13.1427
 20
16.1386
 11
-13.0734
 21
15.9635
  0
LINE
  8
0
 10
-13.0734
 20
15.9635
 11
-13.0266
 21
15.7811
  0
LINE
  8
0
 10
-13.0266
 20
15.7811
 11
-13.0029
 21
15.5942
  0
LINE
  8
0
 10
-13.0029
 20
15.5942
 11
-13.0029
 21
15.4058
  0
LINE
  8
0
 10
-13.0029
 20
15.4058
 11
-13.0266
 21
15.2189
  0
LINE
  8
0
 10
-13.0266
 20
15.2189
 11
-13.0734
 21
15.0365
  0
LINE
  8
0
 10
-13.0734
 20
15.0365
 11
-13.1427
 21
14.8613
  0
LINE
  8
0
 10
-13.1427
 20
14.8613
 11
-13.2335
 21
14.6963
  0
LINE
  8
0
 10
-13.2335
 20
14.6963
 11
-13.3442
 21
14.5439
  0
LINE
  8
0
 10
-13.3442
 20
14.5439
 11
-13.4732
 21
14.4065
  0
LINE
  8
0
 10
-13.4732
 20
14.4065
 11
-13.6183
 21
14.2865
  0
LINE
  8
0
 10
-13.6183
 20
14.2865
 11
-13.7774
 21
14.1855
  0
LINE
  8
0
 10
-13.7774
 20
14.1855
 11
-13.9478
 21
14.1053
  0
LINE
  8
0
 10
-13.9478
 20
14.1053
 11
-14.127
 21
14.0471
  0
LINE
  8
0
 10
-14.127
 20
14.0471
 11
-14.312
 21
14.0118
  0
LINE
  8
0
 10
-14.312
 20
14.0118
 11
-14.5
 21
14
  0
LINE
  8
0
 10
-14.5
 20
14
 11
-16.5
 21
14
  0
LINE
  8
0
 10
-32.3787
 20
-10.9133
 11
-33.7356
 21
-10.6544
  0
LINE
  8
0
 10
-33.7356
 20
-10.6544
 11
-35.0494
 21
-10.2275
  0
LINE
  8
0
 10
-35.0494
 20
-10.2275
 11
-36.2993
 21
-9.63934
  0
LINE
  8
0
 10
-36.2993
 20
-9.63934
 11
-37.4656
 21
-8.89917
  0
LINE
  8
0
 10
-37.4656
 20
-8.89917
 11
-38.53
 21
-8.01863
  0
LINE
  8
0
 10
-38.53
 20
-8.01863
 11
-39.4756
 21
-7.01164
  0
LINE
  8
0
 10
-39.4756
 20
-7.01164
 11
-40.2876
 21
-5.89407
  0
LINE
  8
0
 10
-40.2876
 20
-5.89407
 11
-40.9531
 21
-4.68355
  0
LINE
  8
0
 10
-40.9531
 20
-4.68355
 11
-41.4616
 21
-3.39917
  0
LINE
  8
0
 10
-41.4616
 20
-3.39917
 11
-41.8051
 21
-2.06117
  0
LINE
  8
0
 10
-41.8051
 20
-2.06117
 11
-41.9783
 21
-0.690674
  0
LINE
  8
0
 10
-41.9783
 20
-0.690674
 11
-41.9783
 21
0.690689
  0
LINE
  8
0
 10
-41.9783
 20
0.690689
 11
-41.8051
 21
2.06119
  0
LINE
  8
0
 10
-41.8051
 20
2.06119
 11
-41.4616
 21
3.39919
  0
LINE
  8
0
 10
-41.4616
 20
3.39919
 11
-40.9531
 21
4.68356
  0
LINE
  8
0
 10
-40.9531
 20
4.68356
 11
-40.2876
 21
5.89409
  0
LINE
  8
0
 10
-40.2876
 20
5.89409
 11
-39.4756
 21
7.01166
  0
LINE
  8
0
 10
-39.4756
 20
7.01166
 11
-38.53
 21
8.01865
  0
LINE
  8
0
 10
-38.53
 20
8.01865
 11
-37.4656
 21
8.89919
  0
LINE
  8
0
 10
-37.4656
 20
8.89919
 11
-36.2993
 21
9.63936
  0
LINE
  8
0
 10
-36.2993
 20
9.63936
 11
-35.0494
 21
10.2275
  0
LINE
  8
0
 10
-35.0494
 20
10.2275
 11
-33.7356
 21
10.6544
  0
LINE
  8
0
 10
-33.7356
 20
10.6544
 11
-32.3787
 21
10.9133
  0
LINE
  8
0
 10
-32.3787
 20
10.9133
 11
-31
 21
11
  0
LINE
  8
0
 10
-31
 20
11
 11
-29.6213
 21
10.9133
  0
LINE
  8
0
 10
-29.6213
 20
10.9133
 11
-28.2644
 21
10.6544
  0
LINE
  8
0
 10
-28.2644
 20
10.6544
 11
-26.9506
 21
10.2275
  0
LINE
  8
0
 10
-26.9506
 20
10.2275
 11
-25.7007
 21
9.63934
  0
LINE
  8
0
 10
-25.7007
 20
9.63934
 11
-24.5344
 21
8.89917
  0
LINE
  8
0
 10
-24.5344
 20
8.89917
 11
-23.47
 21
8.01863
  0
LINE
  8
0
 10
-23.47
 20
8.01863
 11
-22.5244
 21
7.01164
  0
LINE
  8
0
 10
-22.5244
 20
7.01164
 11
-21.7124
 21
5.89407
  0
LINE
  8
0
 10
-21.7124
 20
5.89407
 11
-21.0469
 21
4.68355
  0
LINE
  8
0
 10
-21.0469
 20
4.68355
 11
-20.5384
 21
3.39917
  0
LINE
  8
0
 10
-20.5384
 20
3.39917
 11
-20.1949
 21
2.06117
  0
LINE
  8
0
 10
-20.1949
 20
2.06117
 11
-20.0217
 21
0.690674
  0
LINE
  8
0
 10
-20.0217
 20
0.690674
 11
-20.0217
 21
-0.690689
  0
LINE
  8
0
 10
-20.0217
 20
-0.690689
 11
-20.1949
 21
-2.06119
  0
LINE
  8
0
 10
-20.1949
 20
-2.06119
 11
-20.5384
 21
-3.39919
  0
LINE
  8
0
 10
-20.5384
 20
-3.39919
 11
-21.0469
 21
-4.68356
  0
LINE
  8
0
 10
-21.0469
 20
-4.68356
 11
-21.7124
 21
-5.89409
  0
LINE
  8
0
 10
-21.7124
 20
-5.89409
 11
-22.5244
 21
-7.01166
  0
LINE
  8
0
 10
-22.5244
 20
-7.01166
 11
-23.47
 21
-8.01865
  0
LINE
  8
0
 10
-23.47
 20
-8.01865
 11
-24.5344
 21
-8.89919
  0
LINE
  8
0
 10
-24.5344
 20
-8.89919
 11
-25.7007
 21
-9.63936
  0
LINE
  8
0
 10
-25.7007
 20
-9.63936
 11
-26.9506
 21
-10.2275
  0
LINE
  8
0
 10
-26.9506
 20
-10.2275
 11
-28.2644
 21
-10.6544
  0
LINE
  8
0
 10
-28.2644
 20
-10.6544
 11
-29.6213
 21
-10.9133
  0
LINE
  8
0
 10
-29.6213
 20
-10.9133
 11
-31
 21
-11
  0
LINE
  8
0
 10
-31
 20
-11
 11
-32.3787
 21
-10.9133
  0
LINE
  8
0
 10
-0.156967
 20
-2.49506
 11
-0.468445
 21
-2.4557
  0
LINE
  8
0
 10
-0.468445
 20
-2.4557
 11
-0.772537
 21
-2.37764
  0
LINE
  8
0
 10
-0.772537
 20
-2.37764
 11
-1.06444
 21
-2.26205
  0
LINE
  8
0
 10
-1.06444
 20
-2.26205
 11
-1.33955
 21
-2.11081
  0
LINE
  8
0
 10
-1.33955
 20
-2.11081
 11
-1.59355
 21
-1.92627
  0
LINE
  8
0
 10
-1.59355
 20
-1.92627
 11
-1.82242
 21
-1.71136
  0
LINE
  8
0
 10
-1.82242
 20
-1.71136
 11
-2.02254
 21
-1.46945
  0
LINE
  8
0
 10
-2.02254
 20
-1.46945
 11
-2.19077
 21
-1.20438
  0
LINE
  8
0
 10
-2.19077
 20
-1.20438
 11
-2.32443
 21
-0.920303
  0
LINE
  8
0
 10
-2.32443
 20
-0.920303
 11
-2.42145
 21
-0.621719
  0
LINE
  8
0
 10
-2.42145
 20
-0.621719
 11
-2.48029
 21
-0.313324
  0
LINE
  8
0
 10
-2.48029
 20
-0.313324
 11
-2.5
 21
0
  0
LINE
  8
0
 10
-2.5
 20
0
 11
-2.48029
 21
0.313324
  0
LINE
  8
0
 10
-2.48029
 20
0.313324
 11
-2.42145
 21
0.621719
  0
LINE
  8
0
 10
-2.42145
 20
0.621719
 11
-2.32443
 21
0.920303
  0
LINE
  8
0
 10
-2.32443
 20
0.920303
 11
-2.19077
 21
1.20438
  0
LINE
  8
0
 10
-2.19077
 20
1.20438
 11
-2.02254
 21
1.46945
  0
LINE
  8
0
 10
-2.02254
 20
1.46945
 11
-1.82242
 21
1.71136
  0
LINE
  8
0
 10
-1.82242
 20
1.71136
 11
-1.59355
 21
1.92627
  0
LINE
  8
0
 10
-1.59355
 20
1.92627
 11
-1.33955
 21
2.11081
  0
LINE
  8
0
 10
-1.33955
 20
2.11081
 11
-1.06444
 21
2.26205
  0
LINE
  8
0
 10
-1.06444
 20
2.26205
 11
-0.772537
 21
2.37764
  0
LINE
  8
0
 10
-0.772537
 20
2.37764
 11
-0.468445
 21
2.4557
  0
LINE
  8
0
 10
-0.468445
 20
2.4557
 11
-0.156967
 21
2.49506
  0
LINE
  8
0
 10
-0.156967
 20
2.49506
 11
0.156967
 21
2.49506
  0
LINE
  8
0
 10
0.156967
 20
2.49506
 11
0.468445
 21
2.4557
  0
LINE
  8
0
 10
0.468445
 20
2.4557
 11
0.772537
 21
2.37764
  0
LINE
  8
0
 10
0.772537
 20
2.37764
 11
1.06444
 21
2.26205
  0
LINE
  8
0
 10
1.06444
 20
2.26205
 11
1.33955
 21
2.11081
  0
LINE
  8
0
 10
1.33955
 20
2.11081
 11
1.59355
 21
1.92627
  0
LINE
  8
0
 10
1.59355
 20
1.92627
 11
1.82242
 21
1.71136
  0
LINE
  8
0
 10
1.82242
 20
1.71136
 11
2.02254
 21
1.46945
  0
LINE
  8
0
 10
2.02254
 20
1.46945
 11
2.19077
 21
1.20438
  0
LINE
  8
0
 10
2.19077
 20
1.20438
 11
2.32443
 21
0.920303
  0
LINE
  8
0
 10
2.32443
 20
0.920303
 11
2.42145
 21
0.621719
  0
LINE
  8
0
 10
2.42145
 20
0.621719
 11
2.48029
 21
0.313324
  0
LINE
  8
0
 10
2.48029
 20
0.313324
 11
2.5
 21
0
  0
LINE
  8
0
 10
2.5
 20
0
 11
2.48029
 21
-0.313324
  0
LINE
  8
0
 10
2.48029
 20
-0.313324
 11
2.42145
 21
-0.621719
  0
LINE
  8
0
 10
2.42145
 20
-0.621719
 11
2.32443
 21
-0.920303
  0
LINE
  8
0
 10
2.32443
 20
-0.920303
 11
2.19077
 21
-1.20438
  0
LINE
  8
0
 10
2.19077
 20
-1.20438
 11
2.02254
 21
-1.46945
  0
LINE
  8
0
 10
2.02254
 20
-1.46945
 11
1.82242
 21
-1.71136
  0
LINE
  8
0
 10
1.82242
 20
-1.71136
 11
1.59355
 21
-1.92627
  0
LINE
  8
0
 10
1.59355
 20
-1.92627
 11
1.33955
 21
-2.11081
  0
LINE
  8
0
 10
1.33955
 20
-2.11081
 11
1.06444
 21
-2.26205
  0
LINE
  8
0
 10
1.06444
 20
-2.26205
 11
0.772537
 21
-2.37764
  0
LINE
  8
0
 10
0.772537
 20
-2.37764
 11
0.468445
 21
-2.4557
  0
LINE
  8
0
 10
0.468445
 20
-2.4557
 11
0.156967
 21
-2.49506
  0
LINE
  8
0
 10
0.156967
 20
-2.49506
 11
-0.156967
 21
-2.49506
  0
LINE
  8
0
 10
29.843
 20
-2.49506
 11
29.5315
 21
-2.4557
  0
LINE
  8
0
 10
29.5315
 20
-2.4557
 11
29.2274
 21
-2.37764
  0
LINE
  8
0
 10
29.2274
 20
-2.37764
 11
28.9355
 21
-2.26205
  0
LINE
  8
0
 10
28.9355
 20
-2.26205
 11
28.6604
 21
-2.11081
  0
LINE
  8
0
 10
28.6604
 20
-2.11081
 11
28.4064
 21
-1.92627
  0
LINE
  8
0
 10
28.4064
 20
-1.92627
 11
28.1776
 21
-1.71136
  0
LINE
  8
0
 10
28.1776
 20
-1.71136
 11
27.9774
 21
-1.46945
  0
LINE
  8
0
 10
27.9774
 20
-1.46945
 11
27.8092
 21
-1.20438
  0
LINE
  8
0
 10
27.8092
 20
-1.20438
 11
27.6756
 21
-0.920303
  0
LINE
  8
0
 10
27.6756
 20
-0.920303
 11
27.5785
 21
-0.621719
  0
LINE
  8
0
 10
27.5785
 20
-0.621719
 11
27.5197
 21
-0.313324
  0
LINE
  8
0
 10
27.5197
 20
-0.313324
 11
27.5
 21
0
  0
LINE
  8
0
 10
27.5
 20
0
 11
27.5197
 21
0.313324
  0
LINE
  8
0
 10
27.5197
 20
0.313324
 11
27.5785
 21
0.621719
  0
LINE
  8
0
 10
27.5785
 20
0.621719
 11
27.6756
 21
0.920303
  0
LINE
  8
0
 10
27.6756
 20
0.920303
 11
27.8092
 21
1.20438
  0
LINE
  8
0
 10
27.8092
 20
1.20438
 11
27.9774
 21
1.46945
  0
LINE
  8
0
 10
27.9774
 20
1.46945
 11
28.1776
 21
1.71136
  0
LINE
  8
0
 10
28.1776
 20
1.71136
 11
28.4064
 21
1.92627
  0
LINE
  8
0
 10
28.4064
 20
1.92627
 11
28.6604
 21
2.11081
  0
LINE
  8
0
 10
28.6604
 20
2.11081
 11
28.9355
 21
2.26205
  0
LINE
  8
0
 10
28.9355
 20
2.26205
 11
29.2274
 21
2.37764
  0
LINE
  8
0
 10
29.2274
 20
2.37764
 11
29.5315
 21
2.4557
  0
LINE
  8
0
 10
29.5315
 20
2.4557
 11
29.843
 21
2.49506
  0
LINE
  8
0
 10
29.843
 20
2.49506
 11
30.157
 21
2.49506
  0
LINE
  8
0
 10
30.157
 20
2.49506
 11
30.4684
 21
2.4557
  0
LINE
  8
0
 10
30.4684
 20
2.4557
 11
30.7725
 21
2.37764
  0
LINE
  8
0
 10
30.7725
 20
2.37764
 11
31.0644
 21
2.26205
  0
LINE
  8
0
 10
31.0644
 20
2.26205
 11
31.3396
 21
2.11081
  0
LINE
  8
0
 10
31.3396
 20
2.11081
 11
31.5936
 21
1.92627
  0
LINE
  8
0
 10
31.5936
 20
1.92627
 11
31.8224
 21
1.71136
  0
LINE
  8
0
 10
31.8224
 20
1.71136
 11
32.0225
 21
1.46945
  0
LINE
  8
0
 10
32.0225
 20
1.46945
 11
32.1908
 21
1.20438
  0
LINE
  8
0
 10
32.1908
 20
1.20438
 11
32.3244
 21
0.920303
  0
LINE
  8
0
 10
32.3244
 20
0.920303
 11
32.4214
 21
0.621719
  0
LINE
  8
0
 10
32.4214
 20
0.621719
 11
32.4803
 21
0.313324
  0
LINE
  8
0
 10
32.4803
 20
0.313324
 11
32.5
 21
0
  0
LINE
  8
0
 10
32.5
 20
0
 11
32.4803
 21
-0.313324
  0
LINE
  8
0
 10
32.4803
 20
-0.313324
 11
32.4214
 21
-0.621719
  0
LINE
  8
0
 10
32.4214
 20
-0.621719
 11
32.3244
 21
-0.920303
  0
LINE
  8
0
 10
32.3244
 20
-0.920303
 11
32.1908
 21
-1.20438
  0
LINE
  8
0
 10
32.1908
 20
-1.20438
 11
32.0225
 21
-1.46945
  0
LINE
  8
0
 10
32.0225
 20
-1.46945
 11
31.8224
 21
-1.71136
  0
LINE
  8
0
 10
31.8224
 20
-1.71136
 11
31.5936
 21
-1.92627
  0
LINE
  8
0
 10
31.5936
 20
-1.92627
 11
31.3396
 21
-2.11081
  0
LINE
  8
0
 10
31.3396
 20
-2.11081
 11
31.0644
 21
-2.26205
  0
LINE
  8
0
 10
31.0644
 20
-2.26205
 11
30.7725
 21
-2.37764
  0
LINE
  8
0
 10
30.7725
 20
-2.37764
 11
30.4684
 21
-2.4557
  0
LINE
  8
0
 10
30.4684
 20
-2.4557
 11
30.157
 21
-2.49506
  0
LINE
  8
0
 10
30.157
 20
-2.49506
 11
29.843
 21
-2.49506
  0
LINE
  8
0
 10
-47.5
 20
-17
 11
-47.688
 21
-16.9881
  0
LINE
  8
0
 10
-47.688
 20
-16.9881
 11
-47.873
 21
-16.9529
  0
LINE
  8
0
 10
-47.873
 20
-16.9529
 11
-48.0522
 21
-16.8946
  0
LINE
  8
0
 10
-48.0522
 20
-16.8946
 11
-48.2226
 21
-16.8144
  0
LINE
  8
0
 10
-48.2226
 20
-16.8144
 11
-48.3817
 21
-16.7135
  0
LINE
  8
0
 10
-48.3817
 20
-16.7135
 11
-48.5268
 21
-16.5934
  0
LINE
  8
0
 10
-48.5268
 20
-16.5934
 11
-48.6558
 21
-16.4561
  0
LINE
  8
0
 10
-48.6558
 20
-16.4561
 11
-48.7665
 21
-16.3037
  0
LINE
  8
0
 10
-48.7665
 20
-16.3037
 11
-48.8572
 21
-16.1386
  0
LINE
  8
0
 10
-48.8572
 20
-16.1386
 11
-48.9266
 21
-15.9635
  0
LINE
  8
0
 10
-48.9266
 20
-15.9635
 11
-48.9734
 21
-15.7811
  0
LINE
  8
0
 10
-48.9734
 20
-15.7811
 11
-48.997
 21
-15.5942
  0
LINE
  8
0
 10
-48.997
 20
-15.5942
 11
-48.997
 21
-15.4058
  0
LINE
  8
0
 10
-48.997
 20
-15.4058
 11
-48.9734
 21
-15.2189
  0
LINE
  8
0
 10
-48.9734
 20
-15.2189
 11
-48.9266
 21
-15.0365
  0
LINE
  8
0
 10
-48.9266
 20
-15.0365
 11
-48.8572
 21
-14.8613
  0
LINE
  8
0
 10
-48.8572
 20
-14.8613
 11
-48.7665
 21
-14.6963
  0
LINE
  8
0
 10
-48.7665
 20
-14.6963
 11
-48.6558
 21
-14.5439
  0
LINE
  8
0
 10
-48.6558
 20
-14.5439
 11
-48.5268
 21
-14.4065
  0
LINE
  8
0
 10
-48.5268
 20
-14.4065
 11
-48.3817
 21
-14.2865
  0
LINE
  8
0
 10
-48.3817
 20
-14.2865
 11
-48.2226
 21
-14.1855
  0
LINE
  8
0
 10
-48.2226
 20
-14.1855
 11
-48.0522
 21
-14.1053
  0
LINE
  8
0
 10
-48.0522
 20
-14.1053
 11
-47.873
 21
-14.0471
  0
LINE
  8
0
 10
-47.873
 20
-14.0471
 11
-47.688
 21
-14.0118
  0
LINE
  8
0
 10
-47.688
 20
-14.0118
 11
-47.5
 21
-14
  0
LINE
  8
0
 10
-47.5
 20
-14
 11
-45.5
 21
-14
  0
LINE
  8
0
 10
-45.5
 20
-14
 11
-45.312
 21
-14.0118
  0
LINE
  8
0
 10
-45.312
 20
-14.0118
 11
-45.127
 21
-14.0471
  0
LINE
  8
0
 10
-45.127
 20
-14.0471
 11
-44.9478
 21
-14.1053
  0
LINE
  8
0
 10
-44.9478
 20
-14.1053
 11
-44.7774
 21
-14.1855
  0
LINE
  8
0
 10
-44.7774
 20
-14.1855
 11
-44.6183
 21
-14.2865
  0
LINE
  8
0
 10
-44.6183
 20
-14.2865
 11
-44.4732
 21
-14.4065
  0
LINE
  8
0
 10
-44.4732
 20
-14.4065
 11
-44.3442
 21
-14.5439
  0
LINE
  8
0
 10
-44.3442
 20
-14.5439
 11
-44.2335
 21
-14.6963
  0
LINE
  8
0
 10
-44.2335
 20
-14.6963
 11
-44.1428
 21
-14.8613
  0
LINE
  8
0
 10
-44.1428
 20
-14.8613
 11
-44.0734
 21
-15.0365
  0
LINE
  8
0
 10
-44.0734
 20
-15.0365
 11
-44.0266
 21
-15.2189
  0
LINE
  8
0
 10
-44.0266
 20
-15.2189
 11
-44.003
 21
-15.4058
  0
LINE
  8
0
 10
-44.003
 20
-15.4058
 11
-44.003
 21
-15.5942
  0
LINE
  8
0
 10
-44.003
 20
-15.5942
 11
-44.0266
 21
-15.7811
  0
LINE
  8
0
 10
-44.0266
 20
-15.7811
 11
-44.0734
 21
-15.9635
  0
LINE
  8
0
 10
-44.0734
 20
-15.9635
 11
-44.1428
 21
-16.1386
  0
LINE
  8
0
 10
-44.1428
 20
-16.1386
 11
-44.2335
 21
-16.3037
  0
LINE
  8
0
 10
-44.2335
 20
-16.3037
 11
-44.3442
 21
-16.4561
  0
LINE
  8
0
 10
-44.3442
 20
-16.4561
 11
-44.4732
 21
-16.5934
  0
LINE
  8
0
 10
-44.4732
 20
-16.5934
 11
-44.6183
 21
-16.7135
  0
LINE
  8
0
 10
-44.6183
 20
-16.7135
 11
-44.7774
 21
-16.8144
  0
LINE
  8
0
 10
-44.7774
 20
-16.8144
 11
-44.9478
 21
-16.8946
  0
LINE
  8
0
 10
-44.9478
 20
-16.8946
 11
-45.127
 21
-16.9529
  0
LINE
  8
0
 10
-45.127
 20
-16.9529
 11
-45.312
 21
-16.9881
  0
LINE
  8
0
 10
-45.312
 20
-16.9881
 11
-45.5
 21
-17
  0
LINE
  8
0
 10
-45.5
 20
-17
 11
-47.5
 21
-17
  0
LINE
  8
0
 10
-16.5
 20
-17
 11
-16.688
 21
-16.9882
  0
LINE
  8
0
 10
-16.688
 20
-16.9882
 11
-16.873
 21
-16.9529
  0
LINE
  8
0
 10
-16.873
 20
-16.9529
 11
-17.0522
 21
-16.8947
  0
LINE
  8
0
 10
-17.0522
 20
-16.8947
 11
-17.2226
 21
-16.8145
  0
LINE
  8
0
 10
-17.2226
 20
-16.8145
 11
-17.3817
 21
-16.7135
  0
LINE
  8
0
 10
-17.3817
 20
-16.7135
 11
-17.5268
 21
-16.5934
  0
LINE
  8
0
 10
-17.5268
 20
-16.5934
 11
-17.6558
 21
-16.4561
  0
LINE
  8
0
 10
-17.6558
 20
-16.4561
 11
-17.7665
 21
-16.3037
  0
LINE
  8
0
 10
-17.7665
 20
-16.3037
 11
-17.8572
 21
-16.1387
  0
LINE
  8
0
 10
-17.8572
 20
-16.1387
 11
-17.9266
 21
-15.9635
  0
LINE
  8
0
 10
-17.9266
 20
-15.9635
 11
-17.9734
 21
-15.7811
  0
LINE
  8
0
 10
-17.9734
 20
-15.7811
 11
-17.997
 21
-15.5942
  0
LINE
  8
0
 10
-17.997
 20
-15.5942
 11
-17.997
 21
-15.4058
  0
LINE
  8
0
 10
-17.997
 20
-15.4058
 11
-17.9734
 21
-15.2189
  0
LINE
  8
0
 10
-17.9734
 20
-15.2189
 11
-17.9266
 21
-15.0365
  0
LINE
  8
0
 10
-17.9266
 20
-15.0365
 11
-17.8572
 21
-14.8613
  0
LINE
  8
0
 10
-17.8572
 20
-14.8613
 11
-17.7665
 21
-14.6963
  0
LINE
  8
0
 10
-17.7665
 20
-14.6963
 11
-17.6558
 21
-14.5439
  0
LINE
  8
0
 10
-17.6558
 20
-14.5439
 11
-17.5268
 21
-14.4066
  0
LINE
  8
0
 10
-17.5268
 20
-14.4066
 11
-17.3817
 21
-14.2865
  0
LINE
  8
0
 10
-17.3817
 20
-14.2865
 11
-17.2226
 21
-14.1855
  0
LINE
  8
0
 10
-17.2226
 20
-14.1855
 11
-17.0522
 21
-14.1053
  0
LINE
  8
0
 10
-17.0522
 20
-14.1053
 11
-16.873
 21
-14.0471
  0
LINE
  8
0
 10
-16.873
 20
-14.0471
 11
-16.688
 21
-14.0118
  0
LINE
  8
0
 10
-16.688
 20
-14.0118
 11
-16.5
 21
-14
  0
LINE
  8
0
 10
-16.5
 20
-14
 11
-14.5
 21
-14
  0
LINE
  8
0
 10
-14.5
 20
-14
 11
-14.312
 21
-14.0118
  0
LINE
  8
0
 10
-14.312
 20
-14.0118
 11
-14.127
 21
-14.0471
  0
LINE
  8
0
 10
-14.127
 20
-14.0471
 11
-13.9478
 21
-14.1053
  0
LINE
  8
0
 10
-13.9478
 20
-14.1053
 11
-13.7774
 21
-14.1855
  0
LINE
  8
0
 10
-13.7774
 20
-14.1855
 11
-13.6183
 21
-14.2865
  0
LINE
  8
0
 10
-13.6183
 20
-14.2865
 11
-13.4732
 21
-14.4066
  0
LINE
  8
0
 10
-13.4732
 20
-14.4066
 11
-13.3442
 21
-14.5439
  0
LINE
  8
0
 10
-13.3442
 20
-14.5439
 11
-13.2335
 21
-14.6963
  0
LINE
  8
0
 10
-13.2335
 20
-14.6963
 11
-13.1428
 21
-14.8613
  0
LINE
  8
0
 10
-13.1428
 20
-14.8613
 11
-13.0734
 21
-15.0365
  0
LINE
  8
0
 10
-13.0734
 20
-15.0365
 11
-13.0266
 21
-15.2189
  0
LINE
  8
0
 10
-13.0266
 20
-15.2189
 11
-13.003
 21
-15.4058
  0
LINE
  8
0
 10
-13.003
 20
-15.4058
 11
-13.003
 21
-15.5942
  0
LINE
  8
0
 10
-13.003
 20
-15.5942
 11
-13.0266
 21
-15.7811
  0
LINE
  8
0
 10
-13.0266
 20
-15.7811
 11
-13.0734
 21
-15.9635
  0
LINE
  8
0
 10
-13.0734
 20
-15.9635
 11
-13.1428
 21
-16.1387
  0
LINE
  8
0
 10
-13.1428
 20
-16.1387
 11
-13.2335
 21
-16.3037
  0
LINE
  8
0
 10
-13.2335
 20
-16.3037
 11
-13.3442
 21
-16.4561
  0
LINE
  8
0
 10
-13.3442
 20
-16.4561
 11
-13.4732
 21
-16.5934
  0
LINE
  8
0
 10
-13.4732
 20
-16.5934
 11
-13.6183
 21
-16.7135
  0
LINE
  8
0
 10
-13.6183
 20
-16.7135
 11
-13.7774
 21
-16.8145
  0
LINE
  8
0
 10
-13.7774
 20
-16.8145
 11
-13.9478
 21
-16.8947
  0
LINE
  8
0
 10
-13.9478
 20
-16.8947
 11
-14.127
 21
-16.9529
  0
LINE
  8
0
 10
-14.127
 20
-16.9529
 11
-14.312
 21
-16.9882
  0
LINE
  8
0
 10
-14.312
 20
-16.9882
 11
-14.5
 21
-17
  0
LINE
  8
0
 10
-14.5
 20
-17
 11
-16.5
 21
-17
  0
ENDSEC
  0
SECTION
  2
OBJECTS
  0
DICTIONARY
  0
ENDSEC
  0
EOF
